<svg width="373" height="369" viewBox="0 0 373 369" fill="none" xmlns="http://www.w3.org/2000/svg">
<path fill-rule="evenodd" clip-rule="evenodd" d="M16.1129 250.959C16.1306 244.981 15.4687 237.143 20.4849 232.925C21.8027 232.055 22.1706 231.022 22.0758 229.445C21.6708 224.379 22.7144 219.246 26.3625 215.494C28.8268 212.454 29.0944 207.952 33.3472 206.645C39.9536 199.989 30.6715 188.125 47.9968 184.674C50.89 184.063 55.8317 188.99 55.9552 183.344C56.6005 177.284 57.0754 169.248 64.0687 167.339C73.1418 164.35 82.0705 164.503 90.6894 169.037C92.4613 169.97 92.4769 170 94.1055 168.399C100.614 162.368 124.847 165.758 132.739 169.221C138.938 171.49 134.035 175.968 137.817 177.166C156.585 178.869 154.346 203.25 138.325 207.203C133.682 208.211 127.298 209.075 125.156 203.67C124.047 188.858 80.231 208.292 71.1729 210.727C65.9162 213.538 69.1866 224.141 68.5552 229.394C69.9987 236.27 72.8109 230.999 69.0087 241.397C65.6441 247.312 56.4759 247.726 50.3119 247.307C42.9565 245.61 39.1052 252.928 35.4699 257.933C32.2697 261.519 37.2159 264.809 35.7945 268.607C36.0441 270.452 36.9192 272.779 34.4546 273.262C20.5188 278.054 14.576 261.399 16.1129 250.959" fill="#FF3B53"/>
<path fill-rule="evenodd" clip-rule="evenodd" d="M54.1035 303.917C69.5298 303.266 84.6706 305.054 99.8013 307.849C105.409 308.927 102.106 316.748 101.079 320.367C97.9162 328.131 99.0391 336.709 98.2052 344.918C97.7126 351.908 102.072 363.038 93.3577 366.188C83.8239 370.291 73.4749 367.406 63.6234 366.183C50.3422 363.887 36.7626 365.504 23.5672 362.414C18.1159 360.599 9.76948 363.26 6.85036 357.117C1.65113 343.375 0.636211 327.648 0.930788 313.087C12.7959 302.53 38.9191 304.644 54.1035 303.917" fill="#FFC43C"/>
<path fill-rule="evenodd" clip-rule="evenodd" d="M51.7573 137.009C51.3886 144.766 37.6557 154.521 31.9846 159.616C29.9534 161.409 27.9246 161.878 25.4586 160.599C18.4898 156.2 9.34132 154.145 3.70317 148.192C1.05232 141.218 15.4921 127.204 19.0125 120.303C21.5689 116.664 24.3239 120.26 26.9336 121.918C34.8162 127.201 45.0066 130.617 51.7573 137.009" fill="#3E5DFF"/>
<path fill-rule="evenodd" clip-rule="evenodd" d="M194.113 352.134C183.368 351.192 164.065 346.109 170.326 331.656C172.65 324.428 180.241 322.418 186.764 320.604C195.391 318.139 211.912 324.269 211.306 334.65C210.308 343.467 203.947 353.035 194.113 352.134" fill="#3E5DFF"/>
<path fill-rule="evenodd" clip-rule="evenodd" d="M125.777 225.692C125.993 232.831 121.097 230.417 117.562 227.263C108.548 220.011 95.4441 223.551 92.2218 234.796C91.7448 235.708 91.2477 237.483 89.9528 237.039C79.6543 232.554 87.5086 222.147 92.2315 216.084C102.78 206.821 123.296 210.512 125.777 225.692" fill="#3E5DFF"/>
<path fill-rule="evenodd" clip-rule="evenodd" d="M160.398 299.684C168.023 298.635 170.451 308.01 163.991 311.186C154.791 314.194 145.59 317.202 136.449 320.387C132.665 322.419 129.106 320.616 125.08 320.506C121.058 313.92 153.864 299.538 160.398 299.684" fill="#3E5DFF"/>
<path fill-rule="evenodd" clip-rule="evenodd" d="M200.87 155.114C202.745 154.816 205.833 156.478 207.827 155.289C209.046 154.823 210.003 154.971 210.595 156.312C213.443 158.631 212.599 160.724 209.14 161.256C204.97 161.623 200.557 163.26 196.494 161.592C194.619 160.131 191.935 162.749 190.473 160.897C190.565 156.121 196.798 154.818 200.87 155.114" fill="#3E5DFF"/>
<path fill-rule="evenodd" clip-rule="evenodd" d="M128.981 181.78C128.423 180.509 126.7 181.475 126.43 182.634C126.774 184.21 129.064 182.9 128.981 181.78M42.3669 218.721C42.3828 217.392 41.2291 215.192 39.6392 215.814C38.7891 216.855 41.514 220.996 42.3669 218.721M28.2833 237.83C26.9489 239.248 29.5838 241.396 30.8009 241.234C32.6209 240.158 30.1016 238.032 28.2833 237.83M58.0214 192.07C59.5604 190.461 57.552 187.199 55.5568 187.34C54.5775 189.144 56.004 191.529 58.0214 192.07M69.315 239.261C69.2793 239.263 69.2437 239.264 69.208 239.266C68.4499 244.066 71.0437 250.751 67.3312 254.399C65.3197 256.957 65.5693 257.777 62.8627 255.117C51.6861 249.325 39.1885 252.397 40.1131 266.932C39.7964 280.494 72.4311 274.44 64.6312 280.029C61.8401 280.846 58.101 279.61 56.3944 282.524C51.7671 289.539 47.3976 296.736 42.5822 303.646C36.2438 312.887 30.8843 322.726 26.7952 333.172C25.4033 337.276 31.3208 339.881 33.4915 342.727C42.1769 350.427 60.3565 352.341 68.7916 343.526C71.7405 341.456 66.6295 338.213 68.388 335.241C66.3606 327.049 69.0163 318.316 69.4327 309.95C70.3555 294.731 75.3259 298.039 87.5687 297.558C99.9202 296.415 112.243 295.121 124.555 293.452C131.052 293.026 133.241 287.641 132.411 281.811C132.402 280.547 132.01 280.203 130.795 280.42C125.69 281.379 120.918 279.107 116.209 277.495C113.852 277.541 105.861 267.083 110.7 267.586C113.217 269.057 114.703 271.808 117.355 272.985C121.518 274.752 126.096 275.828 130.563 274.656C133.752 272.659 130.302 265.621 130.726 262.186C130.147 259.073 128.674 258.611 130.647 255.218C131.485 252.773 134.402 253.662 136.399 252.496C154.517 247.213 147.936 250.573 138.316 235.817C132.324 228.001 126.908 219.345 124.132 209.841C123.534 207.662 123.02 205.459 122.375 203.294C121.083 198.964 121.672 199.28 117.261 200.226C105.385 203.462 77.0093 208.946 69.6148 217.883C68.8314 224.921 70.7252 232.131 69.315 239.261M58.7653 247.949C60.4265 247.11 63.4574 251.201 63.816 248.42C62.3535 238.909 64.8458 229.392 64.1151 219.832C64.562 215.53 66.4104 212.288 70.6082 210.481C83.2685 205.24 96.3856 201.241 109.733 198.207C122.394 195.107 124.128 193.951 128.503 207.448C128.821 208.305 129.443 208.581 130.288 208.19C135.101 205.043 142.503 206.468 145.565 201.055C147.77 197.303 150.691 192.345 146.733 188.729C143.706 185.938 139.759 181.837 135.525 181.767C132.965 186.393 123.819 193.764 121.57 184.971C120.793 180.456 124.628 177.648 128.466 176.422C133.474 173.603 125.78 169.475 122.592 169.502C118.116 168.612 95.4022 166.917 96.4787 173.961C96.6667 176.505 96.3759 178.971 93.6583 179.825C89.557 181.339 89.1385 174.986 90.744 172.57C91.5623 171.08 91.2501 170.332 89.7291 169.554C77.7833 164.687 61.8758 168.421 56.9102 181.369C56.3297 182.755 56.3387 183.067 57.6939 183.777C68.9547 191.477 55.5083 200.471 52.0191 190.973C51.4701 189.775 51.8581 187.31 49.966 187.48C38.8728 188.378 36.457 201.189 38.0618 210.222C40.291 213.979 46.3567 211.726 45.6876 219.359C45.5695 223.1 39.7375 225.248 37.536 222.022C35.277 220.268 35.6571 215.109 32.2838 215.467C23.1862 216.597 23.8342 226.351 25.5321 233.113C26.1884 235.509 29.7818 234.941 31.5666 236.219C40.4703 242.354 26.5293 248.12 23.7542 239.324C21.6268 237.112 20.1324 242.112 18.7817 243.334C13.5662 253.684 25.0713 263.422 31.3488 270.496C32.2295 271.372 36.0579 274.906 35.6616 271.83C29.8812 256.56 43.2022 240.401 58.776 247.913C58.2969 247.922 57.7593 247.679 57.3869 248.085C57.8383 247.979 58.3052 247.989 58.7653 247.949M79.396 164.206C84.2675 164.419 88.9551 165.141 93.1681 167.74C94.1436 168.342 94.9903 168.335 95.9872 167.842C99.7845 165.962 103.905 165.494 108.054 165.115C115.023 164.832 122.277 164.627 128.976 166.745C136.525 168.877 133.208 174.558 137.638 177.003C144.731 180.131 154.381 185.419 153.669 194.398C145.083 229.199 108.863 187.582 151.316 244.755C161.139 254.978 142.727 253.334 137.154 257.693C135.284 258.608 135.142 259.004 135.397 260.947C136.153 272.268 142.283 291.301 128.699 296.801C112.746 300.705 96.1606 302.006 79.8571 303.842C78.7293 304.039 76.9241 303.787 76.8352 305.352C78.2233 317.576 71.971 330.145 75.4274 341.921C76.9899 345.734 72.1455 348.512 69.63 350.503C52.9454 360.695 30.0546 353.127 19.7804 337.135C17.7592 334.136 18.3196 334.699 20.246 331.594C20.4028 331.342 20.896 331.097 21.1719 331.153C24.8204 331.744 30.5115 312.531 32.74 308.88C34.4777 304.83 36.3445 300.859 39.6264 297.76C42.2852 291.931 46.0535 286.805 50.0816 281.77C50.9841 279.091 44.2265 279.474 42.4355 278.325C38.6008 277.421 35.7235 280.523 31.9269 277.811C19.6976 269.887 4.34088 249.298 18.9686 236.849C22.8954 235.184 21.2287 231.613 20.6285 228.393C19.13 220.918 23.6289 213.176 31.433 212.235C37.257 210.803 26.7208 189.369 48.4585 183.646C59.2076 180.872 52.5279 164.989 79.396 164.206" fill="white"/>
<path fill-rule="evenodd" clip-rule="evenodd" d="M164.62 307.221C155.658 299.37 143.447 310.863 134.79 314.71C132.687 316.444 128.286 317.478 127.789 320.221C138.484 316.907 159.201 318.374 164.62 307.221M158.521 300.373C171.015 300.689 171.568 310.425 161.986 316.429C155.252 320.844 146.925 321.001 139.274 322.724C132.231 324.008 125.73 327.282 118.538 327.932C114.219 327.886 112.414 332.509 108.653 333.677C106.92 335.715 105.31 337.99 102.964 339.506C98.5072 343.54 94.0636 347.581 90.5737 352.529C88.6788 354.778 87.7155 358.432 85.056 359.734C93.5652 334.6 132.491 304.871 158.521 300.373" fill="white"/>
<path fill-rule="evenodd" clip-rule="evenodd" d="M153.119 283.846C160.072 282.413 164.501 275.501 169.745 271.107C175.182 268.468 181.958 241.865 171.578 254.884C166.884 265.625 161.557 275.511 153.119 283.846M181.813 255.107C181.59 267.109 173.406 275.719 164.367 282.637C160.153 285.762 151.326 291.929 146.446 289.557C150.679 285.636 152.133 279.313 156.47 275.221C159.52 271.629 161.742 267.617 163.33 263.199C164.784 258.757 167.057 254.73 169.744 250.929C174.173 244.679 182.928 246.861 181.813 255.107" fill="white"/>
<path fill-rule="evenodd" clip-rule="evenodd" d="M159.066 164.877C158.494 159.733 157.804 154.542 156.716 149.401C154.196 139.669 146.304 142.195 151.344 150.915C154.286 152.462 157.675 167.708 159.066 164.877M164.098 167.629C163.723 173.156 165.422 182.49 160.735 186.063C159.65 184.681 160.13 182.089 159.939 180.325C160.341 173.163 154.975 167.649 152.768 161.152C148.868 153.844 142.376 146.755 148.962 138.663C150.379 137.003 151.768 136.576 153.565 137.716C164.774 143.076 163.105 157.112 164.098 167.629" fill="white"/>
<path fill-rule="evenodd" clip-rule="evenodd" d="M174.232 198.224C180.849 196.471 187.898 197.044 194.271 194.294C198.846 192.856 198.776 184.378 193.085 185.925C187.159 186.943 181.857 189.312 177.343 193.322C176.496 194.636 171.905 196.978 174.232 198.224M195.647 182.753C203.51 183.203 202.415 195.244 197.34 197.065C193.516 199.076 189.094 199.098 184.947 199.988C171.804 201.664 166.192 205.815 161.072 217.968C160.788 219 158.871 220.201 158.776 218.438C162.049 200.125 175.94 183.292 195.647 182.753" fill="white"/>
<path fill-rule="evenodd" clip-rule="evenodd" d="M197.416 161.353C199.275 161.687 207.021 160.4 206.09 158.28C202.502 155.398 194.951 157.884 191.687 160.478C193.275 161.672 194.812 160.964 197.416 161.353M177.641 172.788C178.981 161.425 192.553 151.785 203.911 152.601C218.01 155.576 207.772 168.032 197.686 165.846C190.084 164.586 181.706 165.162 177.641 172.788" fill="white"/>
<path fill-rule="evenodd" clip-rule="evenodd" d="M118.556 232.904C116.84 231.717 111.366 223.977 110.294 228.294C111.511 236.187 110.807 242.313 118.556 232.904M102.553 238.713C101.811 236.501 103.683 227.903 100.594 228.396C97.4827 229.483 91.5922 234.35 92.8681 237.577C94.9274 238.202 102.738 242.882 102.553 238.713M108.814 221.216C116.129 220.849 116.286 224.825 120.974 227.835C135.306 232.29 105.862 250.244 94.6145 242.241C78.8447 238.297 96.9652 219.563 108.814 221.216" fill="white"/>
<path fill-rule="evenodd" clip-rule="evenodd" d="M107.448 208.01C105.134 212.487 98.0575 211.899 93.9158 214.265C92.3737 214.747 85.1172 219.949 87.4167 215.127C92.3352 210.585 100.932 204.507 107.448 208.01" fill="white"/>
<path fill-rule="evenodd" clip-rule="evenodd" d="M61.7082 264.947C60.0563 264.741 44.5168 264.264 50.1608 261.326C54.6203 260.991 60.7358 259.776 64.1351 263.284C65.1489 264.965 62.8069 265.101 61.7082 264.947" fill="white"/>
<path fill-rule="evenodd" clip-rule="evenodd" d="M256.237 32.8848C271.709 33.7184 287.538 36.1421 301.819 42.4164C311.368 46.261 316.247 55.4979 321.895 63.4824C327.328 71.3586 329.481 80.6992 332.624 89.5643C340.029 105.199 335.372 122.297 333.231 138.589C330.206 145.237 335.881 151.017 330.698 151.683C326.317 152.773 326.24 152.804 324.577 148.724C319.341 141.191 308.93 138.888 301.662 133.505C290.279 126.736 280.068 118.206 269.067 110.875C255.39 103.004 245.26 89.6882 230.826 83.3927C229.257 82.8172 227.499 82.9154 227.118 80.6391C224.165 78.1326 219.439 76.8512 216.006 74.7794C210.243 71.8072 204.496 68.7939 199.843 64.1309C199.123 63.4088 198.357 62.8506 197.254 62.9805C183.074 58.7093 215.54 45.6032 219.604 43.4829C231.28 38.5228 243.324 32.9057 256.237 32.8848" fill="#FFC43C"/>
<path fill-rule="evenodd" clip-rule="evenodd" d="M315.731 30.3315C314.878 29.7585 314.663 29.2966 313.861 29.8928C314.321 30.9885 314.56 30.9441 315.731 30.3315M278.321 22.4927C276.145 22.7502 274.594 21.722 273.49 23.5071C271.868 27.1368 260.832 22.836 257.539 22.5785C253.841 23.4213 249.916 22.614 246.334 24.182C243.079 24.8084 230.665 33.0579 229.589 29.623C228.88 28.7194 227.916 27.2125 226.624 28.1102C219.263 33.491 210.259 37.4043 204.096 44.0517C201.516 49.1879 196.527 42.0696 193.723 40.3482C190.607 37.6311 199.011 26.8081 200.736 23.8015C205.193 19.1552 206.896 28.4963 213.298 22.5405C215.991 20.1688 220.376 19.923 221.945 16.3649C226.858 6.31687 230.807 9.62233 239.007 13.0434C246.203 13.1371 251.913 11.5146 258.151 7.72598C262.121 5.29165 266.97 9.24328 267.772 6.17659C269.242 2.66258 271.165 1.44038 274.538 3.90605C277.74 6.00236 280.67 8.39155 281.593 12.4432C282.686 14.0101 285.341 13.1722 287.017 13.3378C293.405 13.0416 299.364 15.7863 305.591 16.8022C311.378 18.052 316.792 21.6667 318.788 27.3782C319.013 28.1255 318.741 29.4588 319.121 29.6435C321.263 31.3455 323.822 30.9795 326.279 30.0367C331.262 27.7386 341.934 36.0545 339.046 40.9265C337.664 42.5486 339.327 43.6164 340.072 44.9419C341.64 48.2933 344.06 50.1945 347.805 51.2256C352.864 52.6195 356.373 56.4248 359.065 60.9118C362.006 65.4914 356.438 68.5789 353.765 71.4524C352.838 72.8208 352.061 74.3079 351.36 75.8095C350.476 77.6988 352.507 78.3584 353.139 79.6112C354.729 82.122 356.139 84.6265 358.863 86.1247C364.052 89.472 367.517 94.1138 368.314 100.437C369.752 106.685 368.925 112.968 361.085 108.277C359.524 116.013 363.1 127.158 355.176 132.043C352.38 132.589 348.791 138.524 346.891 136.16C342.204 131.763 339.635 130.915 341.7 123.929C344.464 109.649 344.542 94.8059 340.1 80.8782C335.953 68.3846 332.672 53.5342 322.399 44.6841C315.845 42.502 313.093 35.0184 306.329 33.5138C301.15 32.2125 295.874 31.2709 290.768 29.6946C285.778 28.816 283.743 21.0568 278.321 22.4927" fill="#FF3C54"/>
<path fill-rule="evenodd" clip-rule="evenodd" d="M256.676 183.583C271.293 174.589 291.528 177.534 298.359 194.661C299.056 196.478 298.009 197.689 296.233 197.766C293.011 196.703 290.604 198.645 288.034 199.998C278.817 204.846 269.605 209.705 260.375 214.528C257.266 216.153 253.934 217.334 251.135 219.569C249.915 220.544 249.451 220.291 248.444 218.875C246.317 215.838 243.156 212.905 244.593 208.772C246.708 201.122 248.659 193.541 252.6 186.633C254.764 186.706 256.145 185.718 256.676 183.583" fill="#39C4FF"/>
<path fill-rule="evenodd" clip-rule="evenodd" d="M256.836 183.588C254.216 192.311 237.045 177.147 244.144 193.757C245.229 197.095 245.105 197.328 241.636 198.505C229.642 201.091 248.178 207.833 241.344 211.763C227.498 215.531 238.944 214.135 241.905 218.55C243.899 223.089 234.563 220.803 232.987 218.9C216.075 205.798 240.699 208.879 233.275 203.199C223.084 193.224 237.215 195.437 236.886 190.85C236.07 187.065 232.67 181.15 238.1 179.485C242.616 176.705 249.02 181.721 248.783 177.611C248.453 169.813 255.882 161.029 263.515 167.201C273.796 177.907 277.477 156.38 288.423 166.532C290.445 168.48 292.434 169.228 295.141 169.045C300.327 168.553 307.245 173.928 306.016 179.185C305.272 183.572 311.922 187.695 312.077 192.527C311.186 198.9 305.124 190.193 304.356 187.684C303.312 184.803 301.317 182.666 299.061 180.732C297.912 179.747 296.376 179.149 296.273 177.269C296.256 176.955 295.495 176.51 295.023 176.424C292.428 176.044 291.194 173.806 289.405 172.225C283.899 167.67 281.741 177.528 276.401 177.47C269.984 178.065 269.152 176.654 264.699 172.583C258.03 169.009 255.995 178.763 256.836 183.588" fill="#3E5CFF"/>
<path fill-rule="evenodd" clip-rule="evenodd" d="M285.443 279.714C287.243 280.325 288.072 282.005 288.73 283.552C289.275 285.567 290.175 286.595 292.384 286.757C294.952 286.573 300.404 291.52 296.255 293.074C293.011 293.782 290.196 292.875 291.19 297.444C291.14 299.05 292.243 301.422 290.691 302.523C288.897 302.89 284.602 296.758 284.59 294.779C284.462 293.532 283.477 293.244 282.437 293.254C279.704 293.69 274.578 288.192 278.953 287.198C280.513 286.698 282.555 286.751 283.548 285.732C284.72 284.325 283.435 281.096 285.443 279.714" fill="#FFC43C"/>
<path fill-rule="evenodd" clip-rule="evenodd" d="M101.792 61.9175C97.313 60.719 90.2338 60.0526 87.7935 54.7426C87.6631 54.6065 88.0808 53.5527 88.3978 53.4631C91.7476 50.7083 114.001 61.4079 101.792 61.9175" fill="#FFC43C"/>
<path fill-rule="evenodd" clip-rule="evenodd" d="M102.867 103.154C100.621 103.109 89.2694 95.6727 96.2305 95.1924C100.113 95.3471 113.316 102.525 102.867 103.154" fill="#FF3C54"/>
<path fill-rule="evenodd" clip-rule="evenodd" d="M332.342 233.654C334.602 233.628 339.444 236.31 339.055 238.801C338.355 240.65 335.928 241.195 334.772 239.764C333.892 238.119 329.656 235.195 332.342 233.654" fill="#FFC43C"/>
<path fill-rule="evenodd" clip-rule="evenodd" d="M271.231 177.231C272.962 177.242 274.693 177.252 276.423 177.264C274.683 178.187 272.953 178.108 271.231 177.231" fill="#39C4FF"/>
<path fill-rule="evenodd" clip-rule="evenodd" d="M315.538 30.0725C314.454 30.6274 314.233 30.6665 313.808 29.6753C314.55 29.1356 314.749 29.5537 315.538 30.0725" fill="#FFC43C"/>
<path fill-rule="evenodd" clip-rule="evenodd" d="M260.741 20.1986C280.201 19.4187 295.963 26.6325 312.331 35.5662C344.823 53.7586 347.379 95.0272 342.771 128.145C344.133 130.641 348.294 129.833 350.767 130.684C354.907 130.185 357.795 124.479 356.446 120.108C354.677 114.974 350.22 103.147 359.602 104.318C374.749 109.518 364.02 88.9979 357.742 85.427C337.174 71.176 360.179 68.5507 358.999 61.8038C358.75 50.1758 327.321 54.7628 337.921 40.901C340.702 38.7292 342.538 36.9469 337.995 35.4863C333.839 33.6503 329.311 33.3014 324.918 32.7144C300.33 30.55 324.613 19.6579 307.712 17.1845C301.835 17.033 295.918 17.3312 290.088 17.7906C283.035 19.6157 275.648 18.4626 276.212 9.58303C275.872 6.48609 275.129 5.79311 271.909 5.66474C258.739 3.24846 243.75 29.1525 235.099 10.2096C233.534 7.98064 232.566 7.71718 230.085 8.59637C222.724 12.1956 223.155 25.0726 213.512 25.804C208.212 27.9192 200.571 22.397 196.645 27.3762C194.588 29.5342 192.307 43.814 196.583 42.3206C215.197 30.6571 238.915 20.2572 260.741 20.1986M337.534 98.8384C337.796 56.0368 311.469 33.9335 271.305 26.5757C242.025 24.8793 213.089 36.8521 189.523 53.5631C183.88 56.7287 192.522 58.3662 194.387 60.8929C202.881 67.4316 211.989 73.0086 221.727 77.49C239.617 87.6321 256.188 100.219 273.192 111.868C291.209 123.107 309.725 133.55 325.655 147.741C326.251 148.292 327.279 148.013 327.286 147.29C327.318 144.406 328.914 142.228 330.503 140.093C338.693 127.952 337.833 113.038 337.534 98.8384M179.466 57.0627C181.567 55.1378 183.972 55.2364 185.372 52.8496C186.667 50.3687 190.928 48.4607 190.192 45.4078C184.98 35.2243 190.79 15.9381 204.488 20.0848C215.509 24.6274 217.082 17.5469 221.729 9.65057C225.944 3.24733 236.726 0.824705 240.33 8.92587C242.308 14.9425 247.139 11.4485 250.805 9.16209C257.758 2.97977 277.412 -5.75952 281.355 7.16973C281.774 9.16134 280.725 13.0699 283.799 13.0453C293.87 12.9326 304.174 11.3037 314.075 13.8611C318.54 15.2791 320.227 18.5753 318.953 23.1C314.437 30.2104 338.051 27.4295 342.13 31.8427C345.462 33.4376 348.52 37.8529 345.04 40.91C343.794 42.1116 341.739 42.6049 341.566 44.7753C347.59 47.7394 354.367 49.0753 360.024 52.7835C364.292 55.6054 365.299 59.8685 364.629 64.6623C364.563 70.4423 352.288 70.8901 355.418 76.8388C362.619 82.4554 369.407 87.4279 372.057 96.7919C375.798 104.948 367.596 111.687 359.716 108.773C358.293 108.305 357.75 109.399 358.202 110.594C362.047 117.48 364.807 125.597 358.196 131.87C354.239 137.553 347.845 135.98 341.93 135.309C334.013 138.217 333.436 160.558 322.044 150.623C308.455 139.62 293.865 129.971 278.304 121.99C263.176 112.511 248.513 102.243 233.517 92.5501C223.465 84.184 210.572 80.6247 200.064 72.9194C192.66 68.1854 187.336 61.5594 179.466 57.0627" fill="white"/>
<path fill-rule="evenodd" clip-rule="evenodd" d="M294.611 172.88C290.533 173.34 298.074 179.63 298.538 174.334C298.022 172.54 296.28 173.151 294.611 172.88M301.535 181.708C301.797 185.872 305.993 187.273 306.671 182.848C306.06 180.67 303.216 181.555 301.535 181.708M280.309 169.844L280.325 169.7C282.087 169.558 285.748 171.634 286.204 169.074C286.367 167.807 287.165 165.251 285.058 165.499C281.402 165.642 270.047 170.518 280.309 169.844M247.281 182.532C235.776 176.191 237.017 181.134 239.42 190.943C240.271 194.873 245.666 183.785 247.281 182.532M264.865 172.322C263.154 171.069 262.251 169.272 261.538 167.313C255.876 163.411 252.267 173.688 252.263 178.916C256.418 176.53 261.403 175.453 264.865 172.322M281.131 176.068C271.411 175.968 263.488 181.956 254.832 185.116C253.645 185.7 253.394 187.376 252.113 188.007C243.45 195.201 245.722 206.845 244.747 216.822C245.183 218.901 247.416 217.281 248.557 216.782C264.953 208.941 281.228 200.987 297.523 193.017C304.889 190.61 294.587 181.963 291.506 179.29C288.451 177.061 285.321 176.113 281.131 176.068M241.881 217.534C239.028 222.384 232.193 218.479 227.864 218.086C225.289 217.525 224.011 214.007 226.642 211.759C227.998 210.226 233.409 208.852 230.266 206.397C217.509 191.354 235.561 195.31 234.585 190.338C232.807 184.559 233.206 173.057 242.062 175.86C244.28 176.75 246.75 179.238 247.753 175.533C249.546 170.049 252.323 163.723 258.807 163.02C265.58 160.901 264.414 170.559 269.165 167.712C274.568 165.049 289.416 156.087 291.759 165.533C290.394 170.295 296.355 167.994 299.045 168.965C306.349 170.765 302.289 175.322 310.474 178.222C316.495 183.796 309.134 188.353 305.889 192.158C306.046 194.327 304.6 195.116 303.024 195.837C284.765 203.782 267.473 214.013 248.319 219.988C236.076 222.172 240.536 202.194 239.081 195.363C218.22 198.327 244.19 203.965 234.04 211.844C232.914 212.572 228.984 214.247 231.344 215.552C234.805 216.155 238.401 218.349 241.881 217.534" fill="white"/>
<path fill-rule="evenodd" clip-rule="evenodd" d="M340.784 200.565C346.742 199.782 357.086 199.888 359.246 193.249C359.142 189.471 355.827 185.886 352.068 185.66C343.824 185.314 337.733 191.906 331.997 196.81C331.038 200.487 338.317 200.079 340.784 200.565M328.809 190.995C336.833 185.353 344.368 177.869 354.923 180.205C362.695 181.198 368.215 194.272 360.956 199.118C352.074 203.759 339.452 206.885 330.296 201.498C328.53 200.127 327.806 200.327 326.283 201.869C311.35 218.881 308.008 242.617 307.991 264.54C307.274 267.461 311.569 287.169 305.812 282.418C299.435 253.58 301.916 218.866 323.189 196.519C327.026 189.647 317.618 183.081 328.724 171.223C335.558 163.046 348.751 156.114 358.206 163.225C352.051 164.346 344.767 163.141 339.538 167.956C332.109 173.439 325.112 180.866 328.809 190.995" fill="white"/>
<path fill-rule="evenodd" clip-rule="evenodd" d="M147.736 73.8081C147.183 70.5053 141.826 52.5414 137.6 55.9629C124.587 72.1837 144.398 86.4904 147.736 73.8081M95.7799 39.758C90.7634 39.9199 71.0675 43.5461 82.7721 36.4705C91.96 34.0744 101.442 33.2919 110.713 35.6708C119.852 37.8904 129.238 39.7673 137.234 44.9903C138.964 46.0346 139.012 46.0399 140.451 44.671C145.776 39.6073 152.047 36.2575 159.13 34.447C160.928 34.0237 167.163 32.9752 165.943 36.0583C160.658 37.6044 141.487 43.7359 143.391 50.4363C168.273 87.3016 127.313 91.074 130.977 62.6378C130.619 58.7636 137.486 52.3075 133.402 50.1647C122.512 43.6042 108.078 40.6065 95.7799 39.758" fill="white"/>
<path fill-rule="evenodd" clip-rule="evenodd" d="M215.691 122.646C208.496 121.575 208.295 121.639 207.944 128.691C206.886 134.917 200.663 129.618 201.75 125.287C201.655 120.114 202.041 120.907 197.33 119.929C192.912 119.127 193.801 116.959 197.763 116.559C202.969 117.19 201.676 112.069 203.11 108.718C203.475 106.633 207.169 106.969 207.54 109.008C208.46 111.448 207.057 116.012 210.034 116.964C213.001 117.926 216.998 117.317 218.931 120.152C220.479 122.42 216.824 122.717 215.691 122.646" fill="white"/>
<path fill-rule="evenodd" clip-rule="evenodd" d="M265.802 250.354C262.634 242.027 262.42 239.488 269.197 247.594C272.172 251.201 277.451 247.493 281.454 249.28C286.724 252.482 277.025 254.092 274.613 254.536C271.029 255.98 275.585 261.636 273.596 264.058C268.945 264.888 270.496 256.42 266.436 256.876C262.475 258.234 253.344 261.78 260.22 254.387C262.11 253.145 264.648 252.414 265.802 250.354" fill="white"/>
<path fill-rule="evenodd" clip-rule="evenodd" d="M241.236 125.262C240.091 124.098 239.39 119.427 237.282 120.423C234.09 124.995 233.386 129.648 241.236 125.262M243.227 129.405C224.604 133.885 231.855 127.567 236.013 115.361C240.274 106.19 243.056 121.792 246.724 124.159C251.448 127.647 246.819 131.543 243.227 129.405" fill="white"/>
<path fill-rule="evenodd" clip-rule="evenodd" d="M140.696 100.731C131.635 100.527 120.113 93.9048 122.774 84.1152C126.859 85.9156 127.869 92.4703 132.923 93.5667C136.287 95.1695 139.933 95.5819 143.574 96.1762C148.309 99.1042 143.531 100.557 140.696 100.731" fill="white"/>
<path fill-rule="evenodd" clip-rule="evenodd" d="M83.1387 78.9229C84.6832 79.37 85.569 80.9824 87.3443 81.1817C89.3676 82.4255 86.961 85.4248 85.2562 85.4713C82.4616 85.9764 79.7003 79.6077 83.1387 78.9229" fill="white"/>
<path fill-rule="evenodd" clip-rule="evenodd" d="M335.796 303.554C333.995 303.112 330.886 301.045 333.909 299.526C335.926 299.77 338.805 296.829 339.736 299.814C340.127 301.716 338.555 303.455 335.796 303.554" fill="white"/>
<path fill-rule="evenodd" clip-rule="evenodd" d="M341.381 264.808C344.296 265.651 344.468 271.313 340.936 271.028C339.245 270.739 339.928 268.613 339.278 267.369C338.749 265.536 339.203 264.823 341.381 264.808" fill="white"/>
<path fill-rule="evenodd" clip-rule="evenodd" d="M281.606 140.57C281.112 144.204 273.764 141.317 276.238 138.349C277.039 135.985 281.862 138.671 281.606 140.57" fill="white"/>
<path fill-rule="evenodd" clip-rule="evenodd" d="M172.389 90.6856C169.228 90.3244 171.524 86.0189 173.931 86.1975C175.364 86.1751 176.902 87.5593 175.461 88.8568C174.694 89.6761 174.13 90.7875 172.389 90.6856" fill="white"/>
<path fill-rule="evenodd" clip-rule="evenodd" d="M278.154 40.0512C277.668 42.4648 263.147 48.3907 263.627 44.2777C263.719 38.9099 275.273 35.8299 278.154 40.0512" fill="white"/>
<path fill-rule="evenodd" clip-rule="evenodd" d="M241.07 53.3953C241.447 56.8857 239.421 60.3369 236.69 56.4095C233.885 53.9146 235.296 40.7781 239.453 46.3748C240.169 48.9444 240.661 51.5798 241.07 53.3953" fill="white"/>
<path fill-rule="evenodd" clip-rule="evenodd" d="M284.038 96.5804C284.869 94.0019 285.404 87.1188 289.728 88.9084C294.441 91.2558 284.139 109.292 284.038 96.5804" fill="white"/>
<path fill-rule="evenodd" clip-rule="evenodd" d="M299.977 57.4614C302.175 58.4464 307.363 57.4541 307.228 60.7113C307.027 62.6986 305.975 63.0982 304.436 62.9814C297.684 62.3425 285.148 60.4603 299.977 57.4614" fill="white"/>
<path fill-rule="evenodd" clip-rule="evenodd" d="M316.923 116.688C316.586 119.222 314.284 125.611 311.303 121.587C308.579 117.796 315.785 108.781 316.923 116.688" fill="white"/>
<path fill-rule="evenodd" clip-rule="evenodd" d="M262.572 78.4933C262.795 87.1237 255.629 75.9304 258.347 72.5291C261.487 69.1727 262.546 76.4048 262.572 78.4933" fill="white"/>
<path fill-rule="evenodd" clip-rule="evenodd" d="M323.501 96.923C320.894 96.9144 312.722 94.5257 317.202 91.4062C319.241 91.0503 327.39 95.1759 323.501 96.923" fill="white"/>
<path fill-rule="evenodd" clip-rule="evenodd" d="M288.192 183.187C287.844 185.997 285.922 188.057 283.789 189.742C276.61 192.48 284.765 175.142 288.192 183.187" fill="white"/>
<path fill-rule="evenodd" clip-rule="evenodd" d="M263.955 197.388C262.644 200.302 259.375 195.768 258.291 194.413C256.732 187.523 264.203 191.338 263.955 197.388" fill="white"/>
<path fill-rule="evenodd" clip-rule="evenodd" d="M251.974 207.346C250.524 205.509 252.72 201.975 254.276 200.461C259.261 199.849 253.926 206.753 251.974 207.346" fill="white"/>
<path fill-rule="evenodd" clip-rule="evenodd" d="M273.29 188.247C271.853 189.544 269.555 187.453 269.154 185.965C269.743 183.115 273.597 186.39 273.29 188.247" fill="white"/>
</svg>
