<svg width="360" height="360" viewBox="0 0 360 360" fill="none" xmlns="http://www.w3.org/2000/svg">
<path fill-rule="evenodd" clip-rule="evenodd" d="M106.585 267.263C107.092 266.031 106.668 265.329 105.423 265.286C100.757 265.345 98.651 261.224 95.332 258.715C91.0575 254.499 99.9117 250.855 94.2742 244.408C92.232 241.378 91.3555 237.606 88.3336 235.264C85.9775 233.296 84.6745 231.001 86.0802 227.712C86.6727 226.327 86.4571 224.59 86.5751 223.01C86.4246 216.578 97.146 215.842 98.2651 221.803C98.932 223.435 99.5 224.692 101.554 224.573C103.706 224.812 104.634 227.357 107.042 225.849C109.001 225.06 109.517 225.307 110.524 227.066C111.609 228.959 113.656 230.296 113.831 232.718C113.903 233.075 114.509 233.67 114.801 233.684C118.043 233.212 118.61 237.406 121.506 237.499C124.451 237.031 124.403 240.479 126.647 241.075C133.175 240.552 128.985 245.849 135.281 242.7C140.705 242.043 140.604 254.754 147.026 252.216C150.724 251.5 151.954 257.036 154.562 258.982C154.855 259.338 155.296 259.801 155.681 259.814C158.549 259.904 159.79 262.314 161.767 263.706C164.14 265.151 166.171 266.942 168.008 269.012C174.169 276.617 160.913 283.142 156.888 288.767C154.974 290.912 152.482 291.038 149.855 290.246C146.267 291.64 143.077 289.887 139.701 289.182C136.091 288.428 133.461 286.851 132.385 283.247C131.9 281.623 131.003 281.261 129.525 281.8C124.877 283.809 120.151 280.239 119.644 275.493C119.75 272.552 116.512 272.832 114.559 273.618C110.827 274.343 105.567 271.449 106.585 267.263" fill="#FFC53E"/>
<path fill-rule="evenodd" clip-rule="evenodd" d="M23.9003 341.308C16.7786 340.77 8.059 340.888 5.05304 333.025C-4.32066 318.881 0.260845 294.147 19.2041 291.299C58.7872 286.653 68.2954 341.752 23.924 340.935C23.9159 341.06 23.9083 341.184 23.9003 341.308" fill="#FF3F56"/>
<path fill-rule="evenodd" clip-rule="evenodd" d="M78.388 234.499C78.5442 241.717 77.4497 247.649 80.1004 254.039C85.0833 264.996 89.273 276.769 98.714 284.749C106.134 288.456 113.741 292.531 121.728 294.946C131.373 296.744 128.767 306.464 122.271 305.6C95.2621 298.244 61.8249 285.183 58.0092 253.491C55.846 243.607 56.1414 233.191 61.9051 224.552C62.6379 223.165 67.2295 219.315 67.1792 222.99C65.5799 229.431 62.3762 235.702 63.2398 242.486C64.5871 254.261 68.4476 265.073 76.2745 274.205C77.48 275.793 82.7043 279.706 81.1759 274.91C76.9579 265.037 68.8237 256.659 69.1947 245.342C69.4881 236.656 69.5265 227.685 73.2988 219.684C81.4933 212.574 78.1161 231.162 78.388 234.499" fill="#3CC5FF"/>
<path fill-rule="evenodd" clip-rule="evenodd" d="M95.19 196.124C94.7482 199.106 96.9107 204.448 92.3806 204.804C87.2899 205.571 86.5572 204.972 86.3496 199.862C86.2857 193.946 84.2881 188.636 78.7585 185.534C66.3798 177.928 58.6598 180.925 50.1965 191.821C43.9918 199.392 38.025 192.506 41.7367 185.278C45.08 178.753 48.5532 171.339 56.2994 169.318C72.0502 163.718 98.3097 175.411 95.3587 196.117C95.3029 196.119 95.2462 196.122 95.19 196.124" fill="#3A5AFF"/>
<path fill-rule="evenodd" clip-rule="evenodd" d="M43.1824 198.222C39.7094 200.264 10.7025 208.968 27.7414 209.265C47.9965 209.648 44.1349 215.774 43.1824 198.222V198.222ZM49.2951 203.366C47.5302 208.13 58.9538 215.815 62.5318 213.4C63.8575 211.26 60.758 210.521 60.5386 208.534C59.8317 201.048 58.3908 192.599 62.0372 185.657C62.3031 185.11 61.6595 184.46 61.0687 184.575C53.1192 186.883 49.7206 194.974 49.2951 203.366V203.366ZM72.4598 194.176C74.1087 206.382 62.8931 222.511 82.9406 210.151C95.5249 200.164 69.9162 173.102 72.4598 194.176V194.176ZM90.6774 222.037C91.6451 244.538 103.465 265.358 123.606 275.931C132.945 281.467 146.084 293.688 156.93 285.832C161.496 281.394 166.006 276.841 168.707 270.981C171.444 265.862 163.369 263.416 160.517 260.401C145.947 249.876 130.787 240.354 115.221 231.397C107.899 226.931 100.301 222.891 93.3653 217.798C90.0207 215.093 90.655 219.921 90.6774 222.037V222.037ZM53.7966 233.184C53.8911 233.182 53.9852 233.181 54.0793 233.18C51.0373 273.834 95.3235 311.602 134.901 298.199C140.328 295.805 151.547 293.065 138.74 290.839C131.881 287.857 125.112 284.728 118.741 280.793C94.8099 269.143 82.0442 246.538 83.8661 220.023C84.0599 218.663 84.0008 216.611 82.005 217.26C56.3824 228.633 52.4431 205.255 53.7966 233.184V233.184ZM92.663 196.802C93.524 200.475 90.3195 208.07 92.6402 209.654C102.591 216.249 113.67 220.913 123.613 227.572C137.918 235.002 151.187 244.011 164.306 253.363C167.913 255.764 170.125 260.061 174.829 260.095C177.223 260.417 178.207 261.459 178.527 263.607C180.699 269.161 175.91 273.158 173.313 277.597C166.925 288.252 158.825 297.615 147.405 302.918C140.322 306.825 132.56 308.557 124.641 309.709C122.98 310.159 119.33 309.195 119.891 312.039C121.783 316.116 122.76 340.698 125.809 339.475C130.44 337.311 159.554 346.585 145.994 351.513C140.85 352.511 125.055 341.446 128.647 351.713C129.282 354.046 129.892 361.521 125.908 359.075C122.93 356.104 123.404 351.002 120.669 348.229C115.522 350.509 114.045 361.925 106.948 359.719C103.873 357.26 108.054 353.976 109.368 351.671C111.723 347.445 117.617 344.15 116.105 338.766C114.54 329.715 111.889 320.653 112.811 311.38C112.796 306.992 104.903 308.724 101.96 306.796C91.2547 304.059 81.7547 298.368 72.5657 292.692C71.5739 293.089 71.9061 294.004 71.9875 294.692C72.6641 300.38 72.6311 306.115 73.3684 311.816C75.1916 315.99 70.8763 332.958 75.8306 332.68C79.1161 331.728 98.8247 344.338 90.8757 346.543C86.6246 347.818 78.1725 336.397 76.4687 340.748C75.5474 344.723 78.3624 351.396 74.3201 353.688C68.8202 352.279 72.3117 343.49 69.4899 339.938C64.3707 341.386 59.5569 350.509 53.8139 347.671C51.5952 346.751 51.2576 343.899 52.9909 342.218C57.0433 337.281 66.9662 336.107 68.0626 329.459C68.1145 315.919 65.66 302.476 66.5602 288.917C66.5159 282.435 60.6812 277.833 57.2665 272.767C45.9763 260.081 46.4827 242.347 47.5542 226.434C46.6887 223.62 51.8919 215.631 48.3747 215.248C36.8574 217.548 24.5918 213.877 12.7752 214.127C11.2322 213.962 9.29552 214.156 8.50547 212.552C6.19736 201.848 35.0966 196.07 42.9536 192.526C47.7366 189.531 48.6777 182.707 55.2015 180.394C62.7095 177.735 51.1099 172.328 49.2335 163.566C51.3361 153.909 59.7844 172.098 61.1737 175.041C61.397 176.678 71.6575 177.677 70.9671 174.741C71.7208 167.792 71.3874 159.556 75.1958 153.605C82.0446 151.053 76.8494 171.173 77.4757 174.997C77.1511 179.54 76.2741 178.585 80.7443 180.468C82.3219 181.132 82.5435 181.105 83.4496 179.674C86.1937 175.644 90.2743 172.177 94.7905 170.724C95.3565 175.628 90.1861 179.708 86.4667 182.433C83.8066 183.07 92.2634 194.342 92.7766 196.933L92.663 196.802Z" fill="white"/>
<path fill-rule="evenodd" clip-rule="evenodd" d="M48.0904 286.203C48.0938 287.877 47.6937 288.591 45.9261 288.573C38.897 288.761 41.793 303.637 32.1756 298.622C26.1324 294.695 23.9467 291.385 20.3388 299.943C18.341 302.482 18.1565 308.197 14.1952 308.075C12.8803 307.994 11.6716 306.513 12.2751 305.412C15.05 295.444 19.9724 280.212 32.371 290.664C34.2936 292.094 35.3371 290.088 35.8881 288.367C36.1188 282.142 48.7502 277.527 48.0904 286.203" fill="white"/>
<path fill-rule="evenodd" clip-rule="evenodd" d="M215.97 293.539C208.708 297.967 202.729 301.358 199.227 290.894C198.972 289.634 197.95 289.27 196.604 289.762C192.1 291.396 187.619 294.406 182.646 293.573C180.404 292.968 178.382 288.831 181.918 288.344C188.535 286.649 199.199 277.733 204.263 285.771C206.352 292.034 208.15 291.002 213.215 288.331C226.51 281.565 223.037 313.304 215.97 293.539" fill="white"/>
<path fill-rule="evenodd" clip-rule="evenodd" d="M156.632 211.5C162.51 209.69 166.266 219.244 168.729 214.225C171.721 205.958 182.363 207.372 184.154 216.108C183.557 223.449 177.149 212.064 174.813 215.629C173.178 218.446 171.514 222.966 167.705 223.075C156.119 221.136 160.062 211.811 151.762 226.501C140.061 233.637 148.819 208.18 156.632 211.5" fill="white"/>
<path fill-rule="evenodd" clip-rule="evenodd" d="M21.425 160.945C29.7743 158.772 32.8142 170.563 28.913 175.805C21.6639 180.06 27.0422 167.261 22.6924 166.858C19.385 167.144 16.0704 167.759 12.7436 167.663C3.94694 167.345 15.764 152.244 9.2256 151.256C6.92853 151.152 0.755177 155.723 -0.000244141 152.889C1.936 145.576 15.8282 140.07 17.1588 150.376C18.2489 155.059 13.3188 162.55 21.425 160.945" fill="white"/>
<path fill-rule="evenodd" clip-rule="evenodd" d="M201.115 316.781C198.182 327.867 198.482 314.092 193.617 317.028C190.544 318.246 187.697 320.209 184.567 321.258C175.784 323.655 180.903 311.679 174.392 313.652C170.146 314.201 165.936 315.218 161.656 315.416C157.888 316.293 158.958 310.937 161.825 310.428C168.411 308.8 183.894 300.272 184.207 312.411C185.716 318.449 199.492 304.006 201.115 316.781" fill="white"/>
<path fill-rule="evenodd" clip-rule="evenodd" d="M31.9447 135.607C41.7161 132.626 43.2624 154.569 36.0069 149.41C33.2919 140.469 37.6353 138.482 26.0676 141.936C11.9359 141.167 32.0613 119.21 12.4028 125.395C9.08874 125.979 8.98391 123.056 11.2362 122.099C17.1542 117.815 28.2277 118.176 28.5536 127.303C28.658 130.812 25.7577 137.079 31.9447 135.607" fill="white"/>
<path fill-rule="evenodd" clip-rule="evenodd" d="M135.948 212.172C133.146 212.074 131.738 211.022 129.93 213.221C126.889 216.038 124.285 209.629 125.707 207.178C128.471 200.451 135.587 209.008 138.622 206.04C138.721 201.282 127.953 196.06 136.066 191.345C138.266 190.576 154.749 186.304 153.25 190.415C151.698 193.886 147.354 194.518 144.437 196.494C140.352 197.909 143.429 200.609 143.69 203.497C144.336 208.794 141.301 212.942 135.948 212.172" fill="white"/>
<path fill-rule="evenodd" clip-rule="evenodd" d="M26.4745 260.49C33.8395 247.391 46.7388 266.258 35.2084 263.207C31.7063 262.476 32.4925 269.67 27.7941 268.154C23.6518 268.487 18.223 260.645 16.1333 266.412C14.8226 270.131 11.4762 276.804 6.74868 273.7C4.5611 270.367 9.96592 265.816 10.6905 262.177C15.1116 254.814 20.2451 256.806 26.4745 260.49" fill="white"/>
<path fill-rule="evenodd" clip-rule="evenodd" d="M205.594 249.064C205.8 250.64 204.487 253.737 202.559 251.642C201.076 249.233 200.403 245.605 196.506 248.365C186.057 253.467 184.47 243.02 181.502 245.482C178.114 247.718 174.559 250.905 170.292 248.899C165.49 244.841 179.02 240.457 181.503 238.015C185.223 235.683 188.703 238.22 190.178 241.777C194.244 249.073 204.257 230.441 205.594 249.064" fill="white"/>
<path fill-rule="evenodd" clip-rule="evenodd" d="M24.1217 246.508C20.9166 246.218 15.6941 240.003 12.766 242.172C10.6774 244.205 9.72017 250.25 6.09692 249.082C4.90702 248.629 2.98496 248.774 3.12237 246.933C4.08846 239.609 12.0574 230.363 19.1817 236.97C20.909 237.996 23.1805 242.358 25.1202 239.64C31.3618 226.858 38.8832 241.108 34.8759 242.119C29.3344 236.828 30.3313 248.108 24.1217 246.508" fill="white"/>
<path fill-rule="evenodd" clip-rule="evenodd" d="M164.744 337.561C162.286 337.779 153.562 336.485 158.09 333.09C163.459 332.803 172.189 328.309 175.089 334.608C175.919 335.935 175.466 339.442 178.054 338.403C184.313 335.19 191.721 332.884 196.145 340.069C197.138 341.239 196.47 342.48 194.98 342.356C181.831 334.834 177.541 353.413 169.99 339.314C169.263 336.694 166.78 337.533 164.751 337.414C164.749 337.463 164.746 337.512 164.744 337.561" fill="white"/>
<path fill-rule="evenodd" clip-rule="evenodd" d="M53.6539 310.395C49.4811 327.969 41.156 313.912 37.3723 316.682C34.9237 319.003 33.6469 323.025 30.4907 324.346C25.3534 323.848 35.1428 300.335 44.9788 310.612C47.5353 314.224 52.6008 302.804 53.6539 310.395" fill="white"/>
<path fill-rule="evenodd" clip-rule="evenodd" d="M119.769 135.144C117.375 151.414 109.175 139.968 106.341 145.169C105.275 147.613 105.003 152.123 101.521 151.957C97.9644 149.517 100.515 142.209 101.524 138.548C103.312 134.26 108.237 134.971 111.595 136.721C114.604 137.686 114.665 132.724 117.407 132.098C120.808 131.112 119.222 133.78 119.769 135.144" fill="white"/>
<path fill-rule="evenodd" clip-rule="evenodd" d="M226.74 320.876C224.375 320.818 222.487 318.946 222.1 316.48C221.862 313.079 218.584 314.628 216.283 314.522C208.238 311.944 219.094 307.522 222.291 306.219C228.294 303.042 227.372 311.149 229.247 314.288C233.752 312.419 237.159 312.047 237.463 317.905C237.703 319.208 228.301 320.769 226.74 320.876" fill="white"/>
<path fill-rule="evenodd" clip-rule="evenodd" d="M65.8381 143.416C65.3412 162.383 54.3215 131.181 65.7324 131.659C67.8967 131.053 71.9192 133.206 71.6958 129.476C70.1921 125.185 76.8169 118.891 77.8846 125.226C75.8498 128.661 77.2148 132.836 75.1955 136.185C71.3864 141.871 63.6024 131.07 65.8381 143.416" fill="white"/>
<path fill-rule="evenodd" clip-rule="evenodd" d="M223.594 340.615C220.027 339.366 217.544 335.715 213.432 336.841C205.591 334.84 220.207 324.539 223.951 333.482C226.611 335.471 230.06 331.345 233.216 331.639C233.978 331.505 234.778 332.393 234.685 333.149C234.543 338.501 227.627 338.814 223.594 340.615" fill="white"/>
<path fill-rule="evenodd" clip-rule="evenodd" d="M92.5376 196.748C92.8593 192.622 92.8521 192.59 96.8637 191.768C100.065 191.284 103.477 189.834 106.538 191.536C109.585 196.115 95.2822 198.603 92.4231 196.619L92.5376 196.748Z" fill="white"/>
<path fill-rule="evenodd" clip-rule="evenodd" d="M320.061 112.661C314.144 111.948 307.667 112.237 301.824 114.154C299.936 114.765 297.874 115.511 296.044 114.306C302.853 110.334 296.693 102.117 295.303 96.5262C293.547 90.3575 291.238 84.4827 286.234 80.1845C275.94 74.6543 266.839 65.5122 254.425 64.8094C238.231 63.8404 216.591 66.7122 210.561 84.3292C208.705 88.9102 200.901 117.938 212.509 111.62C215.325 107.222 213.55 101.144 216.638 96.7416C215.484 102.341 218.24 110.276 213.139 114.155C201.045 115.545 188.709 114.883 176.733 117.885C162.764 119.858 167.04 102.298 166.385 93.608C166.242 84.7335 165.407 75.759 166.74 66.9441C166.887 65.7714 166.765 64.8666 165.498 64.2285C160.659 55.1325 181.322 57.7289 186.291 56.5724C196.971 57.8131 207.061 54.0887 217.675 54.4078C236.031 54.9224 254.386 54.3593 272.714 53.4327C290.206 52.3953 307.778 52.9924 325.035 56.011C329.308 58.7737 326.6 67.8232 327.977 72.5405C327.412 84.5928 333.676 96.0153 331.501 108.037C331.161 113.409 323.858 111.57 320.061 112.661" fill="#3BC5FF"/>
<path fill-rule="evenodd" clip-rule="evenodd" d="M216.665 96.747C213.582 101.158 215.354 107.249 212.542 111.655C200.898 117.972 208.796 88.8809 210.598 84.3101C218.316 63.7421 247.969 60.656 265.959 67.9996C272.877 70.1123 277.232 75.9479 283.713 78.6313C289.642 81.7785 292.764 88.2516 294.544 94.4663C295.901 99.9012 304.45 114.643 293.814 113.854C289.791 113.113 289.413 99.6169 286.017 95.2005C283.727 86.8927 276.467 83.1397 269.6 79.0067C259.57 71.9009 246.433 71.9576 234.807 75.0005C223.769 76.8893 221.085 88.1052 216.665 96.747" fill="#3C5BFF"/>
<path fill-rule="evenodd" clip-rule="evenodd" d="M202.578 115.473C216.082 109.213 228.781 122.832 214.692 132.415C211.131 134.665 207.099 131.924 203.749 130.469C198.565 127.697 199.532 119.651 202.578 115.473" fill="#FF3C54"/>
<path fill-rule="evenodd" clip-rule="evenodd" d="M191.106 150.742C190.763 147.067 193.456 142.698 197.29 142.615C201.883 143.961 210.096 143.298 210.365 149.657C212.063 166.701 190.852 167.897 191.106 150.742" fill="#FF3C54"/>
<path fill-rule="evenodd" clip-rule="evenodd" d="M298.818 149.86C280.184 148.201 287.152 125.938 303.073 132.873C313.131 136.323 308.709 150.556 298.818 149.86" fill="#FF3C54"/>
<path fill-rule="evenodd" clip-rule="evenodd" d="M319.999 112.899C328.042 112.294 336.926 125.495 328.91 130.933C313.434 138.07 306.114 119.939 319.999 112.899" fill="#FF3C54"/>
<path fill-rule="evenodd" clip-rule="evenodd" d="M193.094 133.89C192.598 149.58 168.602 143.015 175.292 128.636C177.945 117.913 194.263 124.992 193.094 133.89" fill="#FF3C54"/>
<path fill-rule="evenodd" clip-rule="evenodd" d="M182.254 165.72C178.081 166.681 174.033 168.711 170.364 165.257C168.381 164.03 165.977 163.074 166.196 160.266C165.924 146.637 190.368 150.887 186.538 163.086C185.548 165.749 185.06 166.132 182.254 165.72" fill="#FF3C54"/>
<path fill-rule="evenodd" clip-rule="evenodd" d="M280.004 150.4C293.031 148.826 291.151 172.817 279.6 162.553C278.265 160.132 275.905 161.741 274.481 163.259C260.412 170.369 270.717 148.087 280.004 150.4" fill="#FF3C54"/>
<path fill-rule="evenodd" clip-rule="evenodd" d="M232.842 152.317C245.712 153.383 246.283 169.285 232.405 163.287C228.545 161.986 225.01 170.463 221.497 164.981C215.202 158.469 228.191 152.024 232.842 152.317" fill="#FF3C54"/>
<path fill-rule="evenodd" clip-rule="evenodd" d="M307.827 160.233C305.807 146.221 336.28 148.652 329.624 159.89C325.473 165.381 320.399 157.009 315.939 160.051C313.666 161.968 308.053 165.593 307.827 160.233" fill="#FF3C54"/>
<path fill-rule="evenodd" clip-rule="evenodd" d="M257.118 152.132C253.265 152.522 242.168 146.075 249.737 141.534C250.414 140.838 251.088 140.561 251.88 141.42C253.847 143.301 255.638 144.699 258.265 142.932C268.931 136.551 269.111 154.239 257.118 152.132" fill="#FF3C54"/>
<path fill-rule="evenodd" clip-rule="evenodd" d="M225.701 55.3828L225.858 55.1325H222.899L222.905 55.3828H225.701ZM194.042 52.3429C191.295 39.6559 192.282 44.3335 180.534 45.1918C177.817 46.274 179.554 50.5842 179.075 52.9273C178.187 55.9641 192.16 52.8381 194.042 52.3429V52.3429ZM255.277 34.6431C255.275 34.6212 255.273 34.5992 255.27 34.5773C247.945 35.2018 240.667 36.1192 233.428 37.3989C230.354 38.855 220.349 37.3506 220.16 41.0724C221.019 43.9309 219.394 51.3506 223.83 50.853C235.325 49.2216 247.04 51.3225 258.573 49.7469C263.443 49.3865 259.815 42.0874 260.32 38.8422C260.159 34.5469 260.483 34.3905 255.277 34.6431V34.6431ZM285.558 108.694C284.377 82.9935 252.573 71.3208 230.795 78.3297C218.895 83.0756 215.941 100.585 217.239 112.113C219.513 129.746 240.326 137.197 255.761 139.119C273.872 141.376 286.272 125.842 285.558 108.694V108.694ZM165.357 86.3617C168.228 116.838 156.495 112.807 181.558 111.746C189.417 112.175 197.164 110.904 204.979 110.7C212.859 112.663 203.653 115.173 200.422 115.024C164.073 122.146 165.563 106.031 167.494 132.209C168.278 140.358 168.89 148.585 170.038 156.686C170.374 159.13 170.605 159.916 173.892 159.655C184.45 158.186 194.781 161.634 205.345 161.518C218.436 161.659 231.526 162.121 244.602 161.279C260.269 160.97 275.918 160.323 291.564 159.427C299.777 158.119 322.346 159.287 326.842 153.323C327.821 142.13 325.254 130.827 325.576 119.567C325.601 118.435 325.526 116.686 324.02 116.783C313.273 117.193 302.469 116.783 291.712 116.776C289.172 117.185 289.775 121.098 288.966 123.029C279.535 158.529 217.422 145.736 210.779 114.619C201.54 61.9553 269.203 55.4395 288.551 96.8959C296.381 119.587 281.984 110.252 311.658 110.784C315.296 110.018 323.835 112.586 325.592 109.318C327.392 93.2778 327.395 77.3093 327.311 61.216C327.472 59.9456 327.607 58.0599 325.883 58.0403C317.227 57.3891 308.529 57.0057 299.917 55.9563C281.927 55.4568 264.538 55.5547 246.799 55.6956C223.623 56.1232 200.682 56.5579 177.698 59.8274C173.875 60.3678 169.342 59.769 165.806 61.165C164.519 68.9943 165.105 78.1436 165.357 86.3617V86.3617ZM334.019 86.6542C332.635 102.32 332.474 119.09 333.49 134.921C333.852 141.258 334.617 147.655 334.316 153.984C333.799 158.09 329.964 155.766 328.265 157.791C325.055 163.604 309.32 162.741 302.989 163.481C284.485 166.391 265.443 166.25 246.706 166.569C234.022 167.242 221.303 167.106 208.602 167.147C196.569 167.705 184.865 162.863 172.886 164.923C162.444 167.734 163.547 133.836 162.109 126.805C158.897 113.315 159.841 99.6071 159.303 85.8618C158.984 76.6419 159.681 67.1184 162.284 58.3173C165.048 56.4832 168.911 56.5342 172.086 55.6432C175.903 55.6827 169.02 41.4582 175.534 39.5164C182.103 38.3031 188.891 37.5459 195.569 37.4158C202.338 37.6999 200.212 46.1757 200.728 50.7916C200.775 53.2211 203.736 52.2129 205.227 51.9271C207.772 50.5683 212.773 50.9534 213.929 48.2033C214.502 43.7229 210.327 35.8483 215.927 33.8714C230.318 32.0913 244.955 29.3484 259.593 29.3913C270.55 26.8064 266.502 40.8222 268.386 47.29C270.873 51.3367 279.841 49.2369 284.283 49.7756C296.301 49.5611 308.192 51.4577 320.207 51.3327C328.441 51.356 331.926 52.2251 332.035 61.4818C332.841 69.9718 333.771 78.0693 334.019 86.6542V86.6542Z" fill="white"/>
<path fill-rule="evenodd" clip-rule="evenodd" d="M122.345 63.4628C118.622 63.5268 107.887 61.7265 115.528 58.0306C121.386 56.6211 127.394 57.1749 133.143 58.8551C135.861 59.5166 133.543 62.4565 131.668 62.4565C128.669 62.4755 125.234 63.459 122.345 63.4628" fill="white"/>
<path fill-rule="evenodd" clip-rule="evenodd" d="M304.121 203.257C304.142 205.855 304.168 208.438 304.94 210.961C305.408 212.586 303.157 212.381 302.419 211.613C298.948 207.837 297.281 203.314 297.376 198.146C299.522 187.982 305.677 197.175 304.121 203.257" fill="white"/>
<path fill-rule="evenodd" clip-rule="evenodd" d="M306.274 10.4106C308.192 10.1313 309.992 12.5184 308.651 13.9749C304.704 16.2791 297.997 25.5138 293.436 22.0956C291.399 18.682 302.705 9.84434 306.274 10.4106" fill="white"/>
<path fill-rule="evenodd" clip-rule="evenodd" d="M335.423 190.629C334.066 196.257 328.961 187.307 327.88 185.361C327.335 182.238 320.46 179.729 323.3 177.388C329.433 173.172 334.95 185.77 335.423 190.629" fill="white"/>
<path fill-rule="evenodd" clip-rule="evenodd" d="M196.757 13.8489C193.472 16.4148 186.422 6.58609 184.381 4.02665C182.754 1.72585 182.929 0.35653 185.905 0.551954C190.674 -1.66296 195.444 10.218 196.757 13.8489" fill="white"/>
<path fill-rule="evenodd" clip-rule="evenodd" d="M128.423 82.9913C127.315 86.7958 114.155 98.8241 115.345 88.99C118.077 85.8378 124.78 77.105 128.423 82.9913" fill="white"/>
<path fill-rule="evenodd" clip-rule="evenodd" d="M135.702 127.385C147.412 128.996 122.348 137.624 120.809 134.773C120.667 130.419 132.112 128.368 135.702 127.385" fill="white"/>
<path fill-rule="evenodd" clip-rule="evenodd" d="M141.868 35.6446C140.905 40.7573 127.384 30.3863 126.692 27.3198C126.655 23.3161 142.986 32.2547 141.868 35.6446" fill="white"/>
<path fill-rule="evenodd" clip-rule="evenodd" d="M348.794 114.346C352.733 115.161 358.263 115.849 359.987 119.892C360.22 123.241 351.48 119.801 349.214 119.989C345.954 119.931 344.631 113.951 348.794 114.346" fill="white"/>
<path fill-rule="evenodd" clip-rule="evenodd" d="M337.134 39.1154C330.367 38.0624 345.696 27.7885 348.053 27.6935C348.539 27.6643 349.043 28.1768 348.898 28.6221C347.702 34.1918 342.211 37.7673 337.134 39.1154" fill="white"/>
<path fill-rule="evenodd" clip-rule="evenodd" d="M256.154 189.395C256.431 187.524 256.844 181.752 259.679 183.411C262.516 186.041 262.522 186.043 261.13 189.535C258.597 197.13 256.433 198.979 256.154 189.395" fill="white"/>
<path fill-rule="evenodd" clip-rule="evenodd" d="M251.308 6.13856C253.348 -5.3521 257.803 8.81151 253.932 12.6709C251.16 13.7762 252.108 7.87142 251.308 6.13856" fill="white"/>
<path fill-rule="evenodd" clip-rule="evenodd" d="M299.616 73.0333C300.249 77.1206 293.481 78.7497 290.232 78.9231C284.977 78.7149 286.1 72.7178 289.471 71.3664C292.375 70.0349 301.021 67.4027 299.616 73.0333" fill="white"/>
<path fill-rule="evenodd" clip-rule="evenodd" d="M203.054 91.3846C200.831 90.6546 192.302 87.6992 194.091 84.6049C195.518 84.1169 194.914 81.6243 196.461 81.7057C200.276 81.2859 211.917 90.8718 203.054 91.3846" fill="white"/>
<path fill-rule="evenodd" clip-rule="evenodd" d="M215.654 74.5636C215.292 78.9926 205.347 73.2407 206.798 68.6491C207.638 66.5813 210.754 67.9133 212.426 68.0226C215.056 68.8343 215.198 72.3537 215.654 74.5636" fill="white"/>
<path fill-rule="evenodd" clip-rule="evenodd" d="M261 64.6091C261.274 62.15 266.345 58.5363 267.547 62.0168C268.037 67.6551 262.28 74.3942 261 64.6091" fill="white"/>
<path fill-rule="evenodd" clip-rule="evenodd" d="M239.832 62.1087C239.591 65.622 239.123 69.9359 236.072 64.7601C234.917 62.5143 232.663 60.0035 235.063 57.6399C237.704 55.8442 240.288 58.987 239.832 62.1087" fill="white"/>
<path fill-rule="evenodd" clip-rule="evenodd" d="M272.343 109.314C271.895 101.034 268.26 93.6112 261.5 89.4977C256.06 86.1332 259.844 93.4106 259.865 96.1556C261.743 106.397 260.996 117.078 257.662 126.957C257.415 127.588 258.025 128.157 258.691 127.998C266.937 125.637 272.627 117.862 272.343 109.314M230.273 105.713C229.956 121.776 254.444 133.903 247.31 124.498C239.072 113.543 241.623 97.8185 245.007 85.8152C235.832 87.4909 230.835 96.9717 230.273 105.713M277.615 107.734C277.622 141.862 232.104 139.173 225.963 109.772C214.916 71.512 277.415 68.3794 277.615 107.734" fill="white"/>
</svg>
