<svg width="360" height="360" viewBox="0 0 360 360" fill="none" xmlns="http://www.w3.org/2000/svg">
<path fill-rule="evenodd" clip-rule="evenodd" d="M155.498 221.612C169.922 222.398 170.892 205.535 157.525 202.748C141.349 199.466 138.483 222.051 155.498 221.612M18.6923 251.181C20.621 245.319 24.7822 240.028 22.9035 233.754C23.7003 229.152 19.2493 226.423 19.4827 221.831C19.9872 214.143 18.6033 205.958 21.3911 198.642C21.868 197.493 21.722 196.964 20.8337 196.051C18.5671 193.722 19.5148 189.953 22.599 189.072C48.0981 185.373 73.9529 182.847 99.6996 181.476C103.814 180.561 100.496 186.819 104.066 186.199C120.565 185.121 137.117 185.592 153.607 184.6C159.215 185.69 185.678 181.495 185.281 186.827C189.341 200.944 188.815 215.781 189.309 230.33C189.833 256.093 185.078 270.544 158.513 252.327C152.95 247.969 127.837 223.514 122.492 232.232C118.887 243.802 109.462 249.756 100.355 239.249C95.536 233.266 90.8183 225.772 83.3928 223.115C64.9484 218.516 47.7984 235.147 40.7291 250.69C36.6932 258.054 35.8284 272.212 24.9464 271.688C15.798 272.64 20.7849 257.494 18.6923 251.181" fill="#3BC5FF"/>
<path fill-rule="evenodd" clip-rule="evenodd" d="M18.5406 251.325C20.1505 272.869 20.2419 294.415 22.3038 315.936C23.8994 322.217 21.9295 338.455 26.3242 341.853C76.2996 344.006 126.652 342.281 176.644 339.581C183.136 339.498 193.372 335.795 195.11 344.828C196.064 350.738 187.487 349.975 183.985 352.739C180.893 354.34 177.279 353.894 173.959 353.366C145.791 350.754 117.351 353.469 89.0856 353.597C69.1223 353.652 49.4541 358.27 29.4892 355.549C25.4126 355.423 27.9195 360.684 21.9892 358.121C17.4814 357.516 17.5221 357.512 16.8193 353.294C14.5685 342.747 13.4906 332.013 12.5871 321.288C10.3338 287.594 7.0844 253.885 7.09131 220.066C6.58651 203.659 6.01222 187.341 7.72941 170.984C8.18421 168.855 7.49977 165.655 9.84735 164.617C21.7055 167.005 15.4801 237.663 18.5406 251.325" fill="#FF3B53"/>
<path fill-rule="evenodd" clip-rule="evenodd" d="M232.812 165.988C231.656 175.666 237.693 195.228 222.688 195.233C216.822 193.961 190.072 198.808 190.606 192.626C184.349 183.848 197.707 186.627 193.101 180.342C185.587 170.12 192.274 153.391 181.906 156.71C167.592 159.893 161.227 150.94 160.478 137.676C160.89 126.69 180.851 133.702 188.089 132.421C200.896 132.331 213.293 135.406 225.762 137.867C238.062 140.798 231.554 157.24 232.812 165.988" fill="#FFC43C"/>
<path fill-rule="evenodd" clip-rule="evenodd" d="M163.381 282.563C170.712 281.7 181.299 286.369 176.427 294.799C172.622 299.157 184.024 304.116 176.074 309.239C168.574 313.333 159.434 312.786 151.148 313.935C144.925 313.311 140.226 322.255 134.341 318.634C131.26 311.35 134.193 302.889 133.968 295.175C133.597 288.335 137.516 283.985 144.547 284.452C150.608 283.793 157.425 282.891 163.381 282.563" fill="#FFC43C"/>
<path fill-rule="evenodd" clip-rule="evenodd" d="M155.613 221.512C138.431 221.945 141.326 199.57 157.662 202.823C171.161 205.589 170.179 222.292 155.613 221.512" fill="#FFC43C"/>
<path fill-rule="evenodd" clip-rule="evenodd" d="M18.3528 239.299C19.5214 244.042 16.5916 271.432 21.3205 270.479C24.8861 268.962 31.1051 270.046 32.2892 265.489C36.3129 252.413 42.2604 239.653 51.3109 229.553C62.2373 216.969 77.8797 209.398 91.403 223.173C129.83 258.578 104.373 241.001 133.842 227.917C142.935 225.604 155.658 242.841 162.763 248.31C170.611 254.191 166.023 257.857 159.039 252.531C155.303 249.406 151.488 246.373 147.771 243.224C143.253 240.598 137.994 230.339 132.541 236.036C125.956 241.189 121.492 256.577 111.129 250.912C98.0278 243.053 89.7958 226.088 74.6019 222.339C54.14 226.151 45.0797 248.675 36.6466 265.396C35.9043 266.929 36.3901 267.651 38.0684 267.575C82.5748 264.65 127.048 261.9 171.666 261.486C197.534 261.266 186.612 257.937 185.361 231.7C183.469 218.085 182.654 204.377 181.262 190.721C181.956 185.096 177.667 187.952 174.204 187.865C152.359 188.37 130.525 188.102 108.698 189.565C78.9934 192.177 49.1282 191.624 19.4389 194.346C17.9016 194.608 17.4549 195.109 17.4964 196.748C17.9069 210.946 19.0255 225.087 18.3528 239.299M56.9877 271.418C55.3513 273.748 51.9922 271.492 49.9789 272.559C40.9121 274.507 31.2405 274.269 21.9306 275.412C16.9773 276.099 20.0746 284.013 18.9369 287.562C17.7248 304.672 19.0446 321.826 19.8726 338.925C71.568 338.911 127.859 337.872 181.036 340.6C207.692 341.125 196.873 341.369 195.355 308.142C193.593 295.145 192.689 281.985 190.566 269.039C189.311 262.413 190.088 263.084 183.741 263.385C179.765 263.574 175.789 263.762 171.811 263.923C140.575 264.91 108.862 267.893 78.2455 270.482C76.6489 271.251 74.3523 270.633 72.6118 270.441C67.8617 271.471 61.6045 274.192 56.943 271.399C57.4145 271.703 57.8771 271.837 58.4283 271.68C57.9661 271.49 57.4832 271.437 56.9877 271.418M179.776 182.721C181.167 179.347 178.485 164.755 178.052 160.142C166.021 160.483 153.923 161.315 141.89 161.922C99.8549 163.911 57.8511 166.589 15.7697 167.438C10.9891 166.704 4.01933 168.907 0.510651 165.271C-0.312458 163.523 2.16297 163.196 3.32467 162.886C48.2778 157.433 93.7561 156.613 138.957 153.999C149.575 153.475 160.191 152.939 170.809 152.41C177.431 152.075 186.776 150.121 188.722 158.727C198.018 217.81 198.8 277.066 205.229 336.404C205.755 340.883 204.83 347.516 198.964 347.188C189.419 346.155 179.84 345.636 170.23 345.727C149.263 345.287 128.281 345.708 107.306 345.708C77.2708 345.381 46.9007 347.259 17.1562 342.605C11.824 344.039 14.5051 332.226 13.2585 329.093C12.6545 319.961 11.7041 310.834 11.5826 301.679C12.1525 271.984 9.94043 242.334 9.83638 212.636C8.87181 200.812 10.14 188.481 7.20649 176.972C5.83464 169.578 15.4839 172.059 15.427 178.084C17.7496 201.674 18.5886 186.214 52.8502 186.781C75.5823 186.318 98.5586 182.958 120.978 183.747C139.692 181.313 160.299 183.675 179.776 182.721" fill="white"/>
<path fill-rule="evenodd" clip-rule="evenodd" d="M34.014 98.3591C40.8608 98.9655 49.8586 99.6258 56.3241 103.557C60.3596 105.467 65.4149 111.471 57.2504 109.78C46.9666 107.073 36.3537 106.834 25.9461 105.091C13.8395 99.4893 27.5222 97.9952 34.014 98.3591" fill="white"/>
<path fill-rule="evenodd" clip-rule="evenodd" d="M260.066 301.869C266.724 300.676 290.73 346.404 275.307 332.413C272.645 328.708 250.099 302.575 260.066 301.869" fill="white"/>
<path fill-rule="evenodd" clip-rule="evenodd" d="M238.846 318.605C231.797 320.717 227.208 305.725 223.145 301.025C221.598 297.255 216.165 292.576 218.776 288.488C220.002 287.749 222.122 286.476 223.213 288.082C229.94 297.341 234.215 308.128 238.846 318.605" fill="white"/>
<path fill-rule="evenodd" clip-rule="evenodd" d="M53.0801 135.692C48.5194 134.597 13.7601 134.731 18.4307 127.454C21.7424 123.628 74.4216 135.445 53.0801 135.692" fill="white"/>
<path fill-rule="evenodd" clip-rule="evenodd" d="M81.7121 126C85.6873 126.419 107.185 128.576 102.008 135.399C97.4848 137.42 62.905 128.418 81.7121 126" fill="white"/>
<path fill-rule="evenodd" clip-rule="evenodd" d="M155.68 167.849C158.756 165.482 161.191 170.122 164.004 167.527C165.104 166.514 166.52 166.021 168.013 166.185C171.609 167.681 163.927 170.855 166.897 172.873C168.103 174.22 171.018 175.113 170.616 177.25C168.909 179.422 166.046 175.708 164.256 174.947C162.22 173.172 160.714 175.948 158.958 176.698C157.815 177.291 154.796 177.529 155.539 175.458C158.402 171.992 160.317 171.076 155.68 167.849" fill="white"/>
<path fill-rule="evenodd" clip-rule="evenodd" d="M38.7909 178.387C38.3109 173.113 45.9421 172.318 48.2587 176.198C51.5928 182.329 38.6462 185.425 38.7909 178.387" fill="white"/>
<path fill-rule="evenodd" clip-rule="evenodd" d="M30.2962 173.862C35.9152 174.03 31.3096 185.643 26.6621 181.549C22.8824 178.691 25.7993 172.972 30.2962 173.862" fill="white"/>
<path fill-rule="evenodd" clip-rule="evenodd" d="M60.9231 177.077C60.8421 179.798 56.7086 181.688 54.9422 179.152C52.1592 173.748 59.9716 170.531 60.9231 177.077" fill="white"/>
<path fill-rule="evenodd" clip-rule="evenodd" d="M153.906 218.67C165.804 218.218 154.95 207.221 149.467 205.354C141.206 204.15 145.93 219.846 153.906 218.67M155.214 225.618C145.276 226.361 137.368 219.112 138.629 209.534C136.308 193.378 158.736 197.766 165.346 206.637C172.184 215.166 166.089 226.73 155.214 225.618" fill="white"/>
<path fill-rule="evenodd" clip-rule="evenodd" d="M164.774 313.08C164.779 313.156 164.785 313.232 164.79 313.309C172.746 312.789 178.227 316.203 174.109 305.305C167.914 274.846 165.957 282.062 138.491 284.947C134.509 287.156 136.967 304.848 136.214 310.058C136.659 313.355 137.171 315.949 140.991 315.367C148.927 314.766 156.846 313.812 164.774 313.08M127.414 293.014C127.168 285.093 128.287 278.996 137.252 278.528C146.203 278.075 156.269 275.595 164.755 279.171C166.159 280.56 167.715 280.78 169.599 280.681C177.357 278.527 182.013 311.525 179.79 316.446C179.115 318.418 176.827 318.007 175.167 318.047C166.86 317.715 158.698 319.166 150.487 320.019C125.919 325.361 128.176 312.439 127.414 293.014" fill="white"/>
<path fill-rule="evenodd" clip-rule="evenodd" d="M47.4231 298.316C48.6825 291.752 52.4246 284.726 58.9033 282.153C65.6644 278.713 67.3959 294.485 73.3292 290.63C88.812 269.098 85.3319 290.846 92.4338 288.05C95.7349 285.258 102.194 276.446 106.088 282.417C106.347 285.601 109.108 289.642 107.499 292.506C105.204 293.093 103.597 290.555 102.66 288.816C98.8713 286.618 93.3778 300.327 87.2766 293.844C85.484 292.779 84.1536 287.585 81.697 289.669C67.9681 311.24 63.5763 284.105 58.2679 290.599C55.4184 293.049 51.0808 305.349 47.4231 298.316" fill="white"/>
<path fill-rule="evenodd" clip-rule="evenodd" d="M91.7019 307.971C95.1669 308.59 103.177 306.141 103.846 310.622C103.733 311.522 103.088 312.019 101.536 312.091C86.2266 312.052 70.965 313.973 55.6562 313.556C49.7571 308.395 87.9546 308.447 91.6994 307.731L91.7019 307.971Z" fill="white"/>
<path fill-rule="evenodd" clip-rule="evenodd" d="M80.6014 320.538C108.075 321.105 67.2124 326.955 60.7519 324.392C58.5495 320.849 77.8122 320.646 80.6014 320.565C80.6014 320.556 80.6014 320.547 80.6014 320.538" fill="white"/>
<path fill-rule="evenodd" clip-rule="evenodd" d="M164.069 303.459C164.54 312.448 142.832 305.039 149.926 301.278C154.326 303.651 158.446 303.996 162.413 300.53C164.229 300.048 163.854 302.234 164.069 303.459" fill="white"/>
<path fill-rule="evenodd" clip-rule="evenodd" d="M156.464 291.606C156.823 283.53 168.208 292.706 163.726 295.113C160.237 296.696 156.36 296.35 156.464 291.606" fill="white"/>
<path fill-rule="evenodd" clip-rule="evenodd" d="M143.686 292.641C143.174 288.938 148.894 289.614 149.503 292.331C150.088 296.373 143.236 296.922 143.686 292.641" fill="white"/>
<path fill-rule="evenodd" clip-rule="evenodd" d="M201.462 76.3058C201.234 86.8008 204.382 96.7551 212.06 104.18C217.636 110.465 220.367 119.929 229.564 121.874C258.129 134.026 299.692 119.205 306.058 86.842C310.582 71.6171 298.086 60.9182 289.447 50.4235C281.491 39.9748 268.591 36.7819 256.363 34.5004C250.831 35.1051 243.687 35.1858 239.257 38.7751C238.341 39.9195 236.961 40.2964 235.914 39.4992C232.43 37.3378 229.257 41.2625 226.04 42.2955C212.973 48.9229 200.726 60.5828 201.462 76.3058M190.402 80.6244C189.661 52.769 208.506 36.5358 234.086 31.2597C248.014 21.4335 269.569 25.0798 284.564 32.2951C291.499 36.244 297.785 41.1625 301.715 48.2521C305.044 53.3831 310.255 57.2808 311.736 63.4918C322.402 89.1422 303.332 119.216 278.193 127.508C262.422 134.931 244.829 135.332 228.283 130.544C221.032 129.148 213.078 126.585 209.075 119.921C198.786 104.374 190.698 101.221 190.402 80.6244" fill="#FF3C54"/>
<path fill-rule="evenodd" clip-rule="evenodd" d="M148.292 61.6131C148.004 65.3208 147.269 68.4981 143.195 65.1622C138.299 67.3717 133.117 76.2959 127.22 71.204C123.802 69.5134 119.018 58.5168 115.523 63.7032C103.884 89.8284 98.4117 61.5809 91.6333 65.4474C87.7169 68.666 85.7712 74.4582 80.8613 76.2011C71.4269 73.9379 81.1033 62.5384 84.6908 58.3859C100.212 44.0243 101.959 66.6036 106.722 61.9413C108.937 57.2028 112.883 53.9482 117.832 52.4577C124.02 51.1364 126.193 60.1849 131.127 62.6914C135.027 65.868 147.572 45.2774 148.292 61.6131" fill="#3BC5FF"/>
<path fill-rule="evenodd" clip-rule="evenodd" d="M112.849 131.212C114.983 130.937 117.15 132.088 118.96 133.998C125.405 142.228 123.446 125.502 136.315 127.545C144.87 129.296 140.382 135.24 151.477 131.297C160.091 132.144 145.934 151.262 137.521 137.481C131.718 132.926 130.616 149.235 123.541 148.107C119.885 148.61 117.479 145.498 114.892 143.468C108.562 138.663 103.493 150.555 97.261 151.544C95.0754 152.457 93.4717 151.324 92.4169 149.701C86.6618 141.365 105.344 131.134 112.849 131.212" fill="#3BC5FF"/>
<path fill-rule="evenodd" clip-rule="evenodd" d="M102.516 95.7321C107.711 95.9305 113.674 109.005 114.941 104.193C116.164 101.578 118.299 99.7901 120.382 98.033C129.218 90.1418 134.526 104.998 139.139 102.02C142.009 98.7786 143.799 99.4273 145.894 102.576C146.715 103.678 147.29 106.605 145.378 106.622C143.097 106.56 142.087 108.014 140.911 109.532C134.788 116.836 128.297 99.157 122.339 106.917C111.083 130.581 105.81 101.691 99.4473 108.878C95.3267 111.795 91.9365 120.36 86.2554 115.923C77.2959 111.864 97.478 96.4525 102.516 95.7321" fill="#3BC5FF"/>
<path fill-rule="evenodd" clip-rule="evenodd" d="M325.084 180.613C325.904 173.224 335.289 161.326 343.508 167.423C346.719 169.18 336.462 185.622 333.258 184.693C332.74 184.67 332.112 185.21 331.677 185.636C328.509 188.581 323.455 184.413 325.084 180.613" fill="#3BC5FF"/>
<path fill-rule="evenodd" clip-rule="evenodd" d="M309.089 127.344C307.762 133.568 303.132 140.775 296.149 141.232C289.256 141.377 292.216 132.014 293.713 128.074C294.552 121.679 310.036 119.694 309.089 127.344" fill="#3BC5FF"/>
<path fill-rule="evenodd" clip-rule="evenodd" d="M307.447 157.06C306.734 152.172 313.025 150.887 315.823 148.042C318.836 145.623 321.985 146.593 325.138 147.441C329.639 153.036 320.003 159.585 316.637 163.745C313.135 166.233 306.458 161.675 307.447 157.06" fill="#3BC5FF"/>
<path fill-rule="evenodd" clip-rule="evenodd" d="M329.224 184.426C330.932 178.717 334.854 175.255 340.643 174.129C343.253 173.266 338.787 167.158 336.894 169.419C333.54 172.194 321.816 180.95 329.224 184.426M300.312 138.445C301.703 136.647 309.188 133.403 307.914 131.517C305.492 129.428 301.429 123.748 298.258 127.397C297.849 128.443 300.038 128.98 298.059 129.513C293.767 130.733 293.723 130.765 296.2 134.314C297.42 135.741 298.546 137.688 300.312 138.445M315.261 162.185C318.108 158.959 320.632 155.448 324.691 153.542C325.587 153.065 326.09 152.275 325.337 151.47C323.76 150.125 322.401 146.285 319.982 148.343C315.085 151.513 307.434 157.577 315.261 162.185M348.938 187.234C347.816 184.212 346.497 178.383 342.104 180.761C338.315 182.959 333.082 186.857 333.666 191.662C334.329 193.185 335.853 192.141 336.832 191.586C340.442 188.978 345.346 189.089 348.938 187.234M318.779 143.917C317.313 141.903 313.46 135.039 310.683 137.373C308.52 139.929 301.772 142.006 304.118 145.997C305.327 147.668 306.815 153.063 309.344 150.535C311.838 147.467 316.804 147.033 318.779 143.917M323.294 175.416C333.123 161.52 340.199 167.73 330.62 157.575C327.843 154.572 323.623 162.582 321.098 164.037C319.858 165.518 317.241 167.068 318.52 169.282C319.956 171.383 320.537 174.71 323.294 175.416M301.173 76.0708C302.351 62.748 292.896 50.7468 283.468 42.2695C270.841 32.4606 252.036 31.7191 237.522 37.7311C211.714 46.9412 193.734 75.3805 208.289 101.337C213.524 114.486 225.32 121.051 238.412 124.448C273.207 132.277 300.927 112.394 301.173 76.0708M289.479 127.911C287.626 126.275 286.718 121.917 283.989 122.851C269.318 131.034 251.055 132.866 235.091 127.599C204.085 120.226 190.16 80.747 207.335 54.54C225.959 22.4986 279.87 16.6209 299.526 50.6008C314.458 70.0539 306.778 98.7992 291.931 116.121C290.071 117.593 290.367 119.247 291.757 120.962C295.184 128.482 297.707 112.119 309.987 124.472C314.599 128.767 318.634 133.602 322.099 138.868C328.79 149.574 338.367 158.054 344.443 169.167C345.542 173.417 354.32 176.611 351.279 178.961C349.51 181.298 352.54 184.078 353.006 186.541C353.866 188.804 356.779 188.748 358.434 190.22C364.158 197.089 350.12 203.088 344.312 202.2C341.046 201.488 336.774 203.232 334.184 200.677C326.15 189.61 318.669 178.002 311.017 166.547C305.899 158.927 299.602 152.201 295.189 144.099C293.295 139.222 283.799 132.636 289.479 127.911" fill="white"/>
<path fill-rule="evenodd" clip-rule="evenodd" d="M175.397 134.093C173.529 128.844 196.454 107.149 195.885 118.167C193.075 120.746 177.695 141.743 175.397 134.093" fill="white"/>
<path fill-rule="evenodd" clip-rule="evenodd" d="M177.834 78.6666C189.448 80.8443 156.934 93.0593 153.61 92.3975C147.317 88.1322 174.007 78.4752 177.834 78.6666" fill="white"/>
<path fill-rule="evenodd" clip-rule="evenodd" d="M325.626 15.332C323.214 22.6659 311.519 34.2088 303.751 34.846C297.812 30.3782 321.195 15.2741 325.626 15.332" fill="white"/>
<path fill-rule="evenodd" clip-rule="evenodd" d="M272.902 147.316C272.655 152.426 271.917 166.769 265.523 156.343C260.477 141.736 272.332 130.901 272.902 147.316" fill="white"/>
<path fill-rule="evenodd" clip-rule="evenodd" d="M163.458 36.3002C169.066 37.2646 174.211 40.7576 178.631 44.2534C181.531 45.7402 183.702 52.2946 178.544 50.9944C174.812 48.7088 171.154 46.3041 167.45 43.9741C165.321 42.6511 163.145 41.4392 160.663 40.8535C156.723 38.4412 159.899 36.007 163.458 36.3002" fill="white"/>
<path fill-rule="evenodd" clip-rule="evenodd" d="M225.536 142.822C223.913 148.042 220.103 156.507 214.487 157.925C208.893 156.424 223.14 130.954 225.536 142.822" fill="white"/>
<path fill-rule="evenodd" clip-rule="evenodd" d="M209.977 32.4179C201.026 33.5706 195.802 10.4056 206.246 17.8985C208.98 21.5888 208.373 26.8919 211.46 30.1953C212.94 31.314 211.132 32.5138 209.977 32.4179" fill="white"/>
<path fill-rule="evenodd" clip-rule="evenodd" d="M246.309 15.252C244.697 26.8401 233.854 3.2868 237.976 0.127109C243.231 -1.3932 245.849 11.1725 246.309 15.252" fill="white"/>
<path fill-rule="evenodd" clip-rule="evenodd" d="M344.182 102.435C343.691 102.931 343.323 103.857 342.52 103.707C338.732 102.523 334.836 103.31 330.998 103.105C315.196 99.7344 333.855 91.1771 344.182 102.435" fill="white"/>
<path fill-rule="evenodd" clip-rule="evenodd" d="M332.461 68.3266C330.092 68.9328 324.579 65.9635 328.612 64.2348C333.921 63.6383 340.65 63.7235 345.286 65.8966C341.323 67.3886 336.664 67.3813 332.461 68.3266" fill="white"/>
<path fill-rule="evenodd" clip-rule="evenodd" d="M278.221 12.7282C278.001 9.47537 280.469 0.0565267 284.141 5.82241C284.422 10.0019 278.809 25.0623 278.221 12.7282" fill="white"/>
<path fill-rule="evenodd" clip-rule="evenodd" d="M251.394 86.5422C238.372 72.1713 242.778 60.5679 235.736 68.3809C230.775 74.5947 229.628 82.6002 227.858 90.1228C227.002 95.1933 249.056 88.6462 251.394 86.5422M264.937 78.534C272.96 73.9596 279.007 64.4559 277.698 55.0603C270.98 51.0757 260.163 53.4846 252.859 56.4061C251.733 56.8634 251.685 57.4976 252.704 58.3567C258.975 63.6567 262.464 70.8193 264.937 78.534M230.44 96.148C222.077 97.3699 225.256 93.0378 225.217 87.0885C225.872 83.1254 220.162 85.4986 218.156 83.6065C215.751 80.7009 221.339 79.7999 223.343 79.9304C226.165 80.0505 226.728 79.7833 227.332 76.6904C227.841 74.8506 229.014 72.7996 228.896 70.9293C228.201 69.1854 224.182 68.0268 222.477 66.6478C221.001 65.9437 221.881 63.7463 223.294 63.6587C226.485 63.2468 228.112 66.4387 230.903 67.1628C235.591 60.1401 241.648 61.8255 234.976 53.4461C233.787 51.984 235.148 50.7749 236.526 49.9122C239.014 49.7686 239.8 53.4112 241.423 54.9156C243.735 57.2857 247.393 52.7777 249.969 52.0619C253.205 50.5554 246.386 43.5659 250.335 42.6932C256.358 42.9466 253.285 49.3404 257.315 49.5934C259.856 48.5622 267.984 49.7589 268.174 46.7768C267.567 44.1297 266.343 41.1314 268.648 38.9665C269.321 38.1638 270.696 38.3877 271.125 39.3788C271.282 41.1968 273.129 42.2335 272.837 44.1602C269.111 51.8403 279.589 46.8377 283.183 49.7918C286.504 51.9836 280.564 53.191 282.398 55.9821C285.091 80.4257 251.539 97.0089 230.44 96.148" fill="white"/>
</svg>
