<svg width="375" height="363" viewBox="0 0 375 363" fill="none" xmlns="http://www.w3.org/2000/svg">
<path fill-rule="evenodd" clip-rule="evenodd" d="M70.416 224.27C80.6539 224.794 92.0369 224.62 97.9446 234.615C98.5059 235.105 99.1507 235.094 99.5196 234.374C105.687 219.127 122.703 208.497 139.019 211.079C151.359 210.752 156.287 220.76 160.105 230.954C162.12 237.111 162.245 243.36 160.033 249.439C154.207 264.644 152.397 281.148 144.483 295.618C140.28 304.347 137.575 322.437 128.981 327.045C112.317 331.351 100.72 313.041 87.5007 305.928C72.6619 296.918 56.6797 289.447 43.8624 277.496C38.0536 271.565 39.5003 262.583 38.504 255.01C33.6386 235.8 52.628 222.172 70.3947 224.687C70.4015 224.547 70.4088 224.409 70.416 224.27" fill="#3A5AFF"/>
<path fill-rule="evenodd" clip-rule="evenodd" d="M34.6474 155.75C34.574 151.915 35.1554 146.748 39.1563 151.734C44.0306 154.303 53.7809 164.063 58.572 157.973C58.8661 154.024 63.6546 157.133 64.0081 153.31C65.5509 150.676 67.7921 134.587 71.3887 137.01C71.9624 145.404 88.4663 167.353 86.7664 146.517C87.0707 148.59 88.5982 150.768 90.1128 148.168C92.3933 145.651 104.756 124.054 103.517 136.808C103.549 146.912 105.826 156.55 109.431 165.943C109.923 169.033 114.207 168.428 114.231 171.305C113.815 173.346 111.166 172.629 109.763 173.484C96.9666 179.674 82.52 177.916 69.2367 181.781C61.8514 184.531 54.0678 186.197 47.0274 189.884C44.0929 191.421 41.5153 190.45 40.0792 187.774C35.7663 177.92 35.5123 166.366 34.6154 155.75H34.6474Z" fill="#FF3F56"/>
<path fill-rule="evenodd" clip-rule="evenodd" d="M192.541 317.308C188.456 316.572 171.465 312.669 176.386 306.254C178.882 302.127 178.897 302.09 183.362 303.952C187.989 306.479 198.332 308.435 196.81 315.315C195.96 317.141 194.408 317.224 192.541 317.308" fill="#FF3F56"/>
<path fill-rule="evenodd" clip-rule="evenodd" d="M203.662 264.346C208.334 265.702 221.579 272.377 221.52 277.839C221.67 278.906 220.892 279.831 219.855 279.514C213.508 277.571 206.504 277.192 201.51 271.962C198.073 269.748 198.814 264.664 203.662 264.346" fill="#FF3F56"/>
<path fill-rule="evenodd" clip-rule="evenodd" d="M32.0269 276.116C33.5069 276.784 35.7638 279.049 33.9268 280.836C29.6645 285.432 20.1831 293.852 14.585 287.075C13.617 282.804 28.0221 276.035 32.0269 276.116" fill="#FF3F56"/>
<path fill-rule="evenodd" clip-rule="evenodd" d="M44.3077 331.981C44.1332 335.273 42.0291 338.492 42.0566 341.796C42.8841 344.289 37.4135 346.643 36.5839 343.464C35.3679 341.568 33.0755 340.119 34.2469 337.627C35.6791 334.369 36.1549 330.222 38.896 327.782C42.1542 325.439 44.2935 328.811 44.3077 331.981" fill="#FF3F56"/>
<path fill-rule="evenodd" clip-rule="evenodd" d="M233.454 322.846C228.142 321.662 217.853 316.114 222.888 309.766C223.982 308.354 225.269 307.835 226.674 308.803C229.718 310.642 241.988 321.671 233.454 322.846" fill="#FF3F56"/>
<path fill-rule="evenodd" clip-rule="evenodd" d="M228.115 339.67C226.977 348.087 219.669 343.173 216.385 339.544C213.588 337.074 215.347 334.399 217.927 332.426C223.54 326.532 227.217 335.371 228.115 339.67" fill="#3CC5FF"/>
<path fill-rule="evenodd" clip-rule="evenodd" d="M200.868 348.451C195.031 348.833 186.653 338.239 194.824 335.654C199.047 335.748 201.865 340.357 203.639 343.776C203.995 344.701 205.656 345.175 204.547 346.603C203.359 348.132 202.668 348.508 200.868 348.451" fill="#FF3F56"/>
<path fill-rule="evenodd" clip-rule="evenodd" d="M140.246 350.175C135.277 348.859 132.541 343.19 131.335 338.527C130.548 336.329 133.204 336.147 134.651 335.457C135.872 334.512 136.933 335.045 137.499 336.003C138.65 338.859 147.241 350.712 140.246 350.175" fill="#FF3F56"/>
<path fill-rule="evenodd" clip-rule="evenodd" d="M190.098 176.936C197.715 175.02 185.01 190.341 178.974 187.03C171.487 182.613 186.233 176.726 190.098 176.936" fill="#FF3F56"/>
<path fill-rule="evenodd" clip-rule="evenodd" d="M39.3877 110.098C38.7461 106.014 40.5212 101.71 45.101 103.426C48.9659 105.033 52.175 113.971 46.1654 114.733C42.4819 115.903 37.9523 114.718 39.3877 110.098" fill="#3CC5FF"/>
<path fill-rule="evenodd" clip-rule="evenodd" d="M152.654 160.253C151.88 163.87 149.153 171.635 144.487 166.298C141.724 162.357 144.192 157.592 148.008 155.507C151.927 152.71 151.901 157.106 152.654 160.253" fill="#FF3F56"/>
<path fill-rule="evenodd" clip-rule="evenodd" d="M199.932 209.315C218.707 212.151 196.698 217.162 190.032 215.584C183.763 211.521 196.336 209.156 199.932 209.315" fill="#FF3F56"/>
<path fill-rule="evenodd" clip-rule="evenodd" d="M217.686 234.863C216.033 237.979 211.285 237.797 208.359 236.312C206.86 235.786 204.811 235.576 204.928 233.542C205.107 226.159 218.6 227.691 217.686 234.863" fill="#3CC5FF"/>
<path fill-rule="evenodd" clip-rule="evenodd" d="M184.453 150.141C184.141 154.517 179.514 156.24 176.504 158.614C172.605 160.062 176.652 150.965 176.626 149.098C177.508 144.511 185.166 145.037 184.453 150.141" fill="#FF3F56"/>
<path fill-rule="evenodd" clip-rule="evenodd" d="M242.78 286.407C238.647 286.944 238.479 285.07 236.425 282.995C233.459 281.363 235.795 278.054 238.361 277.528C244.708 276.957 254.359 285.41 242.78 286.407" fill="#3CC5FF"/>
<path fill-rule="evenodd" clip-rule="evenodd" d="M83.8197 90.8627C83.4304 86.0381 86.4976 86.1941 90.0199 86.616C93.7592 86.8422 93.5692 88.1226 93.3766 91.039C92.8732 97.3698 82.9808 98.2938 83.8197 90.8627" fill="#3CC5FF"/>
<path fill-rule="evenodd" clip-rule="evenodd" d="M142.269 126.86C142.204 129.427 139.732 136.844 136.984 134.396C135.559 131.496 134.491 128.458 134.674 125.153C134.769 123.44 137.012 121.183 138.784 121.038C141.372 121.247 141.318 125.272 142.269 126.86" fill="#FF3F56"/>
<path fill-rule="evenodd" clip-rule="evenodd" d="M166.5 122.989C165.164 126.461 156.235 130.233 156.837 123.688C157.877 118.131 165.123 116.95 166.5 122.989" fill="#3CC5FF"/>
<path fill-rule="evenodd" clip-rule="evenodd" d="M73.4271 104.077C69.9896 104.006 67.3041 103.259 69.1271 99.2562C70.8015 94.7682 71.451 94.5194 75.3428 96.9698C79.4998 98.6464 77.1248 103.903 73.4271 104.077" fill="#3CC5FF"/>
<path fill-rule="evenodd" clip-rule="evenodd" d="M205.581 300.692C202.235 300.626 199.622 297.181 202.088 294.503C204.17 292.531 219.033 298.624 205.581 300.692" fill="#3CC5FF"/>
<path fill-rule="evenodd" clip-rule="evenodd" d="M253.105 321.966C253.001 313.515 260.834 317.975 259.452 324.194C258.316 328.987 252.347 325.975 253.105 321.966" fill="#3CC5FF"/>
<path fill-rule="evenodd" clip-rule="evenodd" d="M122.623 169.846C121.51 169.361 118.529 159.231 121.191 160.222C122.577 160.586 123.991 160.902 124.203 162.814C124.617 165.374 127.213 169.49 122.623 169.846" fill="#FF3F56"/>
<path fill-rule="evenodd" clip-rule="evenodd" d="M43.6366 72.5769C47.0432 72.6862 48.7504 78.6308 46.1902 80.0503C39.7719 81.1174 40.244 75.9286 43.6366 72.5769" fill="#3CC5FF"/>
<path fill-rule="evenodd" clip-rule="evenodd" d="M77.9036 131.427C79.6749 131.183 87.8141 143.947 83.6232 142.769C83.01 140.84 74.7617 131.809 77.9036 131.427" fill="#FF3F56"/>
<path fill-rule="evenodd" clip-rule="evenodd" d="M45.4556 148.038C44.5476 146.656 41.1383 145.431 42.5828 143.77C45.5383 141.543 48.4874 146.354 45.4556 148.038" fill="#FF3F56"/>
<path fill-rule="evenodd" clip-rule="evenodd" d="M158.483 231.757C161.375 199.54 133.302 195.082 111.52 211.796C106.315 216.123 101.017 220.382 97.1176 226.04C95.9216 228.543 92.4703 228.066 91.414 225.698C91.0004 224.751 90.3484 224.115 89.3135 223.89C81.2444 222.28 74.6131 215.492 66.0031 216.753C51.7544 217.511 33.5426 224.734 35.8688 241.901C38.4531 276.977 90.3308 299.941 114.448 322.022C120.164 326.641 119.803 327.501 123.202 320.124C126.099 313.835 128.574 307.363 131.836 301.226C142.191 279.159 159.255 257.067 158.483 231.757M167.683 231.386C168.59 256.756 152.92 278.067 141.725 299.609C135.03 310.13 133.55 323.926 124.407 332.715C123.998 333.09 122.761 333.324 122.692 333.195C121.703 331.373 119.982 333.021 118.753 332.28C104.908 324.05 92.3092 313.424 79.1703 303.957C58.3899 288.406 32.1432 273.497 27.2147 245.719C20.6762 219.814 50.8793 203.308 73.1249 209.574C79.6497 210.061 88.6755 220.187 92.5712 218.853C112.868 185.264 171.763 181.503 167.683 231.386" fill="white"/>
<path fill-rule="evenodd" clip-rule="evenodd" d="M34.8257 154.768C34.8004 154.769 34.7752 154.771 34.7495 154.772C35.4481 165.527 38.0951 176.088 38.6841 186.886C38.7765 188.977 39.0708 190.624 41.6802 189.687C63.2042 183.7 84.0844 174.794 106.579 173.029C108.988 172.394 114.898 172.426 113.944 168.78C112.146 162.792 109.762 156.893 108.558 150.751C106.924 146.105 109.179 137.375 105.394 134.578C99.2333 141.96 95.5562 151.222 92.6359 160.382C89.7185 164.677 83.7605 158.721 81.3975 156.009C78.3955 154.35 72.5522 133.561 70.362 141.45C66.8231 147.094 71.6376 168.734 61.6112 165.582C53.4387 162.073 46.4738 156.373 39.0135 151.627C35.413 148.479 34.1121 150.981 34.8257 154.768M69.5963 119.614C73.3311 119.179 79.7652 121.576 77.3851 126.267C75.9179 128.57 72.7246 130.333 76.0902 132.657C94.0009 162.233 83.8106 146.733 101.412 128.889C104.612 126.158 105.65 125.281 102.488 121.757C97.6976 109.146 111.183 110.929 116.467 118.559C118.771 121.332 118.087 124.29 115.625 126.719C111.752 128.51 121.274 156.915 122.526 161.769C123.772 165.927 128.815 178.155 121.615 178.282C102.52 177.13 83.0111 184.249 64.5726 189.283C57.0114 190.626 32.7189 202.8 32.9739 189.062C32.1628 179.888 30.0432 170.921 28.2115 161.94C26.4731 156.781 29.5175 148.527 24.8082 145.166C20.2358 143.84 20.6161 138.752 20.4232 134.896C21.0622 126.676 31.7761 130.567 33.3725 136.312C33.7028 140.32 35.1272 141.265 38.6837 142.801C44.163 146.503 49.5973 150.272 55.0338 154.037C57.1017 155.484 60.7621 159.531 61.0457 154.456C61.929 147.24 62.8166 140.022 66.2088 133.42C67.043 131.903 65.447 130.797 64.597 129.74C61.0251 125.722 63.7325 118.28 69.5959 119.522C69.5963 119.553 69.5963 119.583 69.5963 119.614" fill="white"/>
<path fill-rule="evenodd" clip-rule="evenodd" d="M65.7692 327.146C64.7525 333.719 65.4264 340.776 62.9128 347.009C59.7921 351.066 56.7173 345.671 56.8872 342.441C56.8729 337.343 55.6634 317.273 61.3189 316.368C68.2884 315.257 64.3751 323.829 65.7692 327.146" fill="white"/>
<path fill-rule="evenodd" clip-rule="evenodd" d="M41.1923 308.804C38.4089 314.669 33.0234 319.571 29.1686 324.858C27.8128 326.818 26.3597 325.797 24.6809 324.638C17.1568 321.517 40.5721 294.105 41.1923 308.804" fill="white"/>
<path fill-rule="evenodd" clip-rule="evenodd" d="M184.846 246.016C189.321 245.611 210.127 253.202 203.702 258.115C196.385 255.256 188.508 255.255 180.881 254.141C176.744 253.46 176.704 253.225 177.936 249.26C178.68 246.28 182.874 246.771 184.846 246.016" fill="white"/>
<path fill-rule="evenodd" clip-rule="evenodd" d="M101.742 340.949C100.252 346.358 101.8 352.34 99.8324 357.115C81.6446 341.07 98.746 322.952 101.742 340.949" fill="white"/>
<path fill-rule="evenodd" clip-rule="evenodd" d="M166.846 324.794C166.72 327.25 164.127 328.24 162.118 327.396C136.409 316.416 149.943 300.676 166.846 324.794" fill="white"/>
<path fill-rule="evenodd" clip-rule="evenodd" d="M181.475 289.962C176.361 288.44 166.409 286.667 164.423 280.856C165.444 273.157 174.132 279.501 177.696 281.737C180.607 283.669 190.508 289.088 181.475 289.962" fill="white"/>
<path fill-rule="evenodd" clip-rule="evenodd" d="M349.365 204.24C343.356 203.716 332.409 204.815 344.313 209.291C358.62 211.694 362.57 232.917 347.262 235.308C342.928 236.106 339.433 232.236 335.87 230.371C325.666 227.275 314.721 232.045 305.225 235.829C288.203 242.941 303.843 221.644 307.265 216.012C310.873 210.656 313.168 204.195 317.735 199.548C323.898 194.091 329.803 187.288 337.889 184.785C345.605 183.56 354.089 180.478 361.462 184.502C365.051 187.866 371.761 184.409 373.116 190.001C376.489 200.003 356.322 206.436 349.365 204.24" fill="#FE3A52"/>
<path fill-rule="evenodd" clip-rule="evenodd" d="M299.429 44.245C296.624 44.5039 288.379 40.6609 287.759 44.2094C287.465 45.1796 287.015 45.6622 286.082 45.9682C280.352 48.3729 274.831 41.7859 269.417 43.8296C268.077 44.6618 266.657 43.813 265.409 44.1813C259.564 49.5993 255.475 43.5375 254.421 37.6487C254.307 33.1979 247.298 32.0078 248.08 27.4303C248.146 26.9941 248.249 26.2402 248.453 26.1976C250.822 25.704 251.825 23.3965 253.783 22.2733C263.012 16.7978 265.899 25.6299 274.897 27.1637C282.74 31.0957 302.768 29.0966 305.871 37.4936C308.036 43.723 304.007 43.9657 299.429 44.245" fill="#FFC43B"/>
<path fill-rule="evenodd" clip-rule="evenodd" d="M143.686 31.9887C139.63 32.3542 131.186 30.972 132.251 25.616C132.827 24.3584 132.414 23.6246 131.109 22.9714C128.852 21.8422 128.684 21.2108 129.931 19.2308C138.176 11.5092 151.415 10.1481 161.922 6.31168C164.516 5.48679 168.547 5.24102 169.856 8.25083C170.476 12.0243 177.795 11.0114 175.295 16.4744C174.548 18.5918 177.08 18.9238 178.29 20.0883C179.982 21.7141 178.173 25.9919 175.673 26.0103C164.765 26.5381 154.513 32.5899 143.686 31.9887" fill="#FFC43B"/>
<path fill-rule="evenodd" clip-rule="evenodd" d="M260.109 62.2724C261.191 81.2894 226.538 92.2106 221.652 70.6337C221.554 56.79 260.412 42.2301 260.109 62.2724" fill="#3A5AFF"/>
<path fill-rule="evenodd" clip-rule="evenodd" d="M120.834 123.072C120.736 133.743 104.171 124.917 107.491 137.814C107.857 139.797 106.46 140.919 105.113 142.156C100.071 147.317 99.1547 137.409 99.2028 133.974C99.2572 129.388 92.3396 131.335 89.2675 129.712C87.4724 129.263 86.0566 126.73 86.6939 125.056C88.9317 121.414 94.9164 123.525 98.0671 121.772C100.136 119.535 96.8344 112.309 101.698 111.962C105.327 112.259 104.871 116.98 105.888 119.582C106.19 122.401 109.063 120.626 110.818 120.467C113.634 120.012 120.697 119.449 120.834 123.072" fill="#3A5AFF"/>
<path fill-rule="evenodd" clip-rule="evenodd" d="M281.926 195.611C279.841 201.952 277.814 211.577 270.021 212.732C267.958 212.915 266.081 215.794 263.887 214.097C254.909 209.024 279.442 178.829 281.926 195.611" fill="#3A5AFF"/>
<path fill-rule="evenodd" clip-rule="evenodd" d="M178.159 24.1331C177.271 24.3456 177.611 24.9511 177.852 25.5426C178.79 26.2879 179.028 24.4034 178.159 24.1331M308.238 41.8039C305.808 42.427 297.92 45.2073 305.141 46.9807C309.672 48.7858 308.725 48.7312 313.295 46.0017C315.264 44.0068 309.621 42.5523 308.238 41.8039M329.568 57.9842C335.164 54.5268 324.645 52.1861 322.416 50.0382C320.939 48.6436 317.862 48.3313 316.922 50.3612C319.942 53.8012 325.498 55.6123 329.568 57.9842M312.097 39.6945C315.765 42.1937 318.814 44.514 322.997 42.228C328.667 40.4245 334.417 40.9894 340.155 41.7302C344.795 42.3429 343.203 35.6555 338.784 35.246C329.398 32.2937 320.459 34.2432 312.097 39.6945M275.759 81.1744C277.668 90.3167 282.007 75.5165 283.557 73.1076C288.372 64.8633 295.022 58.3092 302.799 52.8016C304.374 51.0275 294.375 48.4933 293.855 50.7143C286.462 60.0168 277.115 68.6502 275.759 81.1744M291.58 43.3021C293.015 42.8303 298.736 39.7197 296.715 38.2493C292.249 36.2672 287.811 34.218 283.294 32.3622C273.666 28.8948 264.03 23.9915 254.292 21.3376C253.055 21.9385 254.409 23.6499 253.923 24.7493C254.281 27.389 250.624 36.19 254.16 36.3693C267.066 36.9889 278.977 40.8638 291.58 43.3021M216.013 25.272C216.02 25.2723 216.026 25.2726 216.033 25.2726C217.952 13.2583 212.806 17.9262 204.239 17.993C198.823 19.1713 185.101 19.0557 182.381 23.5768C183.638 26.8314 184.091 37.413 188.685 36.659C197.042 34.7175 205.566 34.2581 214.095 33.7375C217.249 32.9593 215.3 27.767 216.013 25.272M128.427 17.3689C153.796 33.4675 138.258 35.6555 165.186 24.7454C178.265 19.2541 179.07 24.2719 175.236 8.6621C173.779 6.00433 169.371 8.45095 166.846 8.15983C153.611 10.028 140.964 12.224 128.427 17.3689M161.253 49.5875C158.753 44.5056 151.526 45.5496 149.704 39.7516C147.161 31.2507 133.014 46.8841 128.277 48.6996C127.02 49.5321 126.756 50.4186 126.943 51.8399C128.165 62.7604 123.867 73.4192 124.476 84.4314C124.166 90.8373 129.782 108.368 138.167 101.977C144.103 95.6242 144.62 86.6021 146.821 78.5897C149.617 68.0611 154.04 57.8308 161.253 49.5875M281.5 88.9276C299.056 110.612 348.647 123.639 355.427 85.8174C358.771 72.7334 361.483 57.5868 352.767 46.0325C351.652 44.8137 349.163 39.2628 347.637 42.1874C346.016 46.8993 343.015 50.8101 339.878 54.5804C337.775 58.0821 339.447 57.7647 335.269 59.7115C321.846 75.826 303.197 88.9366 281.5 88.9276M188.698 0.230835C228.028 0.910681 266.691 14.4816 300.911 33.6167C307.518 37.3825 313.056 28.0768 320.028 29.8059C332.776 26.0916 349.037 27.938 356.64 40.1915C365.975 52.5953 366.184 68.0299 362.589 82.5524C361.454 87.4159 360.941 94.0465 356.769 97.1792C355.226 106.565 345.824 113.165 336.533 115.051C312.066 119.657 284.774 106.977 270.919 86.6561C267.186 72.811 278.441 59.6907 286.615 49.3978C287.257 48.6339 287.044 47.9239 286.121 47.6965C276.602 45.3527 267.103 42.9524 257.272 42.1781C245.234 41.3003 233.235 39.8731 221.191 39.1094C219.087 38.2811 217.645 41.7239 216.678 40.2964C209.34 36.6981 192.753 41.5955 184.485 43.5589C162.339 48.4324 153.402 70.733 149.608 90.892C142.956 117.399 120.039 108.334 119.013 85.0292C118.756 75.5601 120.476 66.2496 121.239 56.846C121.32 55.8231 121.831 54.3503 120.496 53.8594C104.251 63.8297 109.627 91.721 93.8836 102.9C65.48 116.668 72.0801 71.7203 79.1856 57.3898C95.9907 14.0133 146.198 0.991335 188.698 0.230835" fill="white"/>
<path fill-rule="evenodd" clip-rule="evenodd" d="M258.505 200.809C258.708 202.25 259.368 206.533 261.287 203.728C264.002 199.368 267.098 195.207 269.577 190.715C269.485 188.174 264.75 189.287 263.26 190.431C259.609 192.774 259.066 196.788 258.505 200.809M279.646 200.323C279.622 198.186 278.328 191.224 275.629 193.694C274.034 196.307 262.525 208.89 267.624 210.307C272.792 210.268 279.814 205.914 279.646 200.323M327.642 148.985C321.78 151.771 316.612 155.602 311.038 158.894C307.481 161.066 313.931 163.873 316.072 163.838C324.218 164.272 330.824 156.899 327.642 148.985M251.912 237.048C252.038 228.374 254.056 220.324 257.397 212.547C260.106 207.626 248.795 203.556 258.365 189.974C262.853 183.343 271.798 189.106 276.011 183.018C278.548 179.735 281.131 176.477 283.88 173.371C288.227 168.461 293.15 164.159 298.478 160.33C301.319 158.603 303.763 156.958 302.683 153.069C299.385 138.244 313.914 128.728 325.648 138.946C327.984 141.767 329.689 142.597 332.833 140.254C341.002 135.944 349.453 131.213 354.415 123.177C357.682 117.55 358.752 111.173 360.417 104.977C360.651 104.194 360.789 102.922 361.868 103.165C363.478 104.249 362.303 107.464 362.534 109.238C362.36 127.124 348.118 138.55 333.245 145.637C330.144 148.013 333.099 154.025 330.988 157.607C327.756 166.004 315.452 171.453 307.791 163.728C307.163 162.997 306.281 161.976 305.32 162.782C300.101 166.895 277.625 184.549 281.117 190.877C287.474 199.703 281.733 210.682 271.708 213.041C268.67 214.516 263.861 210.898 262.707 215.174C260.255 221.221 258.076 227.346 257.113 233.851C254.907 248.765 264.324 266.383 279.123 270.531C280.911 270.734 281.111 271.145 280.957 273.071C280.135 277.128 272.753 272.84 270.697 271.401C260.146 263.381 251.988 250.451 251.912 237.048" fill="white"/>
<path fill-rule="evenodd" clip-rule="evenodd" d="M348.779 233.07C359.229 233.725 360.611 218.835 352.074 215.318C348.035 212.795 338.489 212.59 340.106 205.861C345.006 198.54 361.39 206.836 368.024 198.877C373.154 192.123 359.26 186.442 353.901 186.282C329.309 182.948 306.084 214.186 299.663 235.261C320.661 220.21 326.808 224.018 348.779 233.07V233.07ZM354.737 208.145C352.837 208.461 350.547 207.368 348.993 208.649C370.821 215.503 361.119 243.693 342.476 236.503C336.136 233.878 329.868 230.615 322.857 230.836C320.962 230.537 319.201 230.361 317.626 231.95C309.719 234.788 302.837 239.472 297.63 246.15C296.442 247.487 295.843 249.15 295.13 250.733C293.884 252.775 291.386 254.216 291.177 256.875C289.707 261.184 286.86 254.311 288.399 252.226C295.159 238.607 297.1 223.056 306.72 210.731C317.778 194.594 334.813 177.218 356.146 180.808C363.703 182.528 373.857 186.672 374.729 195.473C375.179 199.358 371.174 204.432 367.358 205.106C366.518 205.037 365.585 205.324 365.061 206.155C362.604 209.258 358.155 207.828 354.737 208.117V208.145Z" fill="white"/>
</svg>
