<svg width="362" height="371" viewBox="0 0 362 371" fill="none" xmlns="http://www.w3.org/2000/svg">
<path fill-rule="evenodd" clip-rule="evenodd" d="M105.157 301.459C103.6 301.777 95.4917 301.096 99.731 304.195C108.207 310.515 88.9746 313.954 100.48 316.637C102.239 316.881 119.662 315.413 116.097 313.044C106.424 309.606 114.651 299.656 105.157 301.459M118.919 331.339C108.512 331.172 97.7911 332.288 87.8549 328.696C82.2344 326.448 78.3227 332.335 73.1663 333.547C51.6554 337.848 56.8084 307.514 55.3846 295.301C56.0062 291.619 62.647 291.703 64.6098 294.477C65.4509 295.539 66.515 295.502 67.5091 295.073C72.7395 292.815 78.3649 292.715 83.9017 292.644C104.215 291.397 124.213 286.326 144.639 289.828C154.393 291.704 152.189 304.818 154.331 311.912C154.76 315.897 156.758 319.916 155.906 323.924C154.393 327.491 149.957 326.342 146.86 327.469C138.853 332.906 128.067 331.245 118.919 331.339" fill="#42C7FF"/>
<path fill-rule="evenodd" clip-rule="evenodd" d="M105.017 213.846C118.101 214.012 129.294 224.906 133.269 235.881C133.108 240.834 126.623 241.2 125.07 236.589C116.371 221.567 101.431 221.834 85.6511 224.756C76.8876 226.38 72.3025 235.331 65.4241 240.051C64.601 240.667 63.585 241.212 62.4426 240.531C56.3869 234.228 70.0989 225.644 74.3969 221.233C82.8154 214.424 94.7137 215.646 105.017 213.846" fill="#3F5EFF"/>
<path fill-rule="evenodd" clip-rule="evenodd" d="M198.081 221.462C201.165 222.329 206.454 223.42 206.904 227.585C209.944 233.862 206.676 237.925 199.48 237.724C184.981 236.866 181.174 222.942 198.081 221.462" fill="#FF3B54"/>
<path fill-rule="evenodd" clip-rule="evenodd" d="M68.1328 156.731C66.1242 155.63 59.8112 156.482 60.2581 154.041C55.6523 151.222 61.3455 145.182 63.1601 142.005C67.8094 137.671 72.8558 143.547 76.4325 146.387C78.2274 148.148 76.3504 149.838 75.8083 151.616C75.1867 154.844 71.4349 156.684 68.1328 156.731" fill="#FF3B54"/>
<path fill-rule="evenodd" clip-rule="evenodd" d="M37.7308 207.459C34.0231 215.203 29.0458 213.225 22.8505 209.713C19.3402 204.534 21.4681 198.662 26.4371 195.103C31.6106 192.942 37.3093 203.206 37.7308 207.459" fill="#FF3B54"/>
<path fill-rule="evenodd" clip-rule="evenodd" d="M121.054 155.979C112.092 157.156 113.752 140.462 120.904 139.423C133.413 140.466 133.01 155.202 121.054 155.979" fill="#FFC540"/>
<path fill-rule="evenodd" clip-rule="evenodd" d="M205.178 274.769C200.488 274.53 194.967 273.668 195.632 268.334C197.198 264.864 198.642 257.785 204.151 259.939C213.502 263.218 215.766 272.119 205.178 274.769" fill="#FF3B54"/>
<path fill-rule="evenodd" clip-rule="evenodd" d="M208.329 293.018C210.158 291.341 213.612 288.792 215.56 291.601C216.731 293.215 219.143 293.693 219.726 295.613C220.333 299.294 217.495 304.696 213.746 306.093C208.251 307.581 201.078 299.28 204.371 294.663C205.893 293.46 207.751 295.315 208.329 293.018" fill="#FF3B54"/>
<path fill-rule="evenodd" clip-rule="evenodd" d="M38.8407 333.262C39.0103 349.017 15.5157 332.429 27.7746 325.593C33.9593 323.646 40.5512 326.2 38.8407 333.262" fill="#FF3B54"/>
<path fill-rule="evenodd" clip-rule="evenodd" d="M220.154 189.621C219.222 195.098 219.747 198.06 213.557 197.892C211.42 198.219 207.844 195.904 207.127 194.032C207.239 191.523 203.148 188.77 205.845 188.233C206.436 188.103 207.128 187.752 206.727 187.264C205.017 185.182 207.126 185.187 208.204 184.973C213.717 183.601 220.053 182.939 220.154 189.621" fill="#FFC540"/>
<path fill-rule="evenodd" clip-rule="evenodd" d="M77.481 119.193C74.658 106.581 93.5253 113.224 91.1827 120.066C89.7537 122.381 88.2708 125.636 85.4919 126.615C80.9931 126.022 77.2429 123.609 77.481 119.193" fill="#FFC540"/>
<path fill-rule="evenodd" clip-rule="evenodd" d="M213.767 320.582C216.543 320.265 219.677 320.352 219.807 323.634C219.998 324.926 221.06 326.127 220.112 327.632C218.783 331.209 215.023 331.633 212.401 333.825C212.196 334.14 211.467 333.832 211.39 333.663C211.077 331.485 208.517 333.947 208.036 332.197C205.411 326.864 206.112 319.608 213.767 320.582" fill="#FF3B54"/>
<path fill-rule="evenodd" clip-rule="evenodd" d="M18.3914 165.385C8.06091 163.625 17.5946 151.43 24.7258 152.665C34.2602 158.432 27.8192 165.126 18.3914 165.385" fill="#FF3B54"/>
<path fill-rule="evenodd" clip-rule="evenodd" d="M239.098 249.816C235.993 249.242 234.844 246.398 232.744 244.539C231.035 242.944 232.522 241.367 232.534 239.79C235.28 237.941 240.725 233.62 244.061 236.773C247.175 240.29 247.279 242.382 244.257 246.119C242.825 248.115 242.281 250.119 239.098 249.816" fill="#FFC540"/>
<path fill-rule="evenodd" clip-rule="evenodd" d="M194.765 163.224C194.692 162.942 194.64 162.739 194.587 162.536C194.109 162.857 194.014 163.247 194.116 163.77C194.342 163.58 194.569 163.389 194.765 163.224M188.856 163.095C190.611 160.686 186.918 157.62 189.791 155.714C191.231 155.041 192.333 153.458 194.47 154.12C197.236 155.33 204.11 154.307 203.09 158.639C202.935 159.489 201.498 160.252 202.931 161.212C202.054 163.473 199.626 165.721 196.635 165.719C194.911 165.407 193.136 168.18 192.362 165.787C190.469 164.55 189.198 166.3 188.856 163.095" fill="#42C7FF"/>
<path fill-rule="evenodd" clip-rule="evenodd" d="M28.7308 306.127C29.5397 304.982 30.4489 304.486 31.7685 304.257C32.6234 303.566 33.4217 302.871 34.6478 303.271C38.2733 303.989 42.8126 307.11 44.0285 310.399C46.2121 315.681 34.9628 316.106 31.9889 314.314C30.2286 312.136 29.9394 308.903 28.7308 306.127" fill="#FFC540"/>
<path fill-rule="evenodd" clip-rule="evenodd" d="M143.441 107.969C144.715 112.697 138.684 116.463 134.058 114.787C130.474 113.074 129.579 103.496 135.332 104.147C138.206 104.983 144.93 103.436 143.441 107.969" fill="#FFC540"/>
<path fill-rule="evenodd" clip-rule="evenodd" d="M251.56 321.531C252.366 325.422 247.816 327.127 245.019 328.363C240.037 329.384 236.984 317.021 243.997 318.214C247.168 318.371 252.374 316.631 251.56 321.531" fill="#FFC540"/>
<path fill-rule="evenodd" clip-rule="evenodd" d="M177.599 324.082C176.936 324.054 176.093 325.434 175.285 323.862C170.282 317.758 172.98 314.693 180.322 313.885C187.246 313.952 182.531 325.533 177.599 324.082" fill="#42C7FF"/>
<path fill-rule="evenodd" clip-rule="evenodd" d="M220.216 243.636C225.208 243.462 228.515 249.238 229.5 253.192C228.29 257.707 221.464 252.573 218.373 252.167C215.104 251.302 217.085 243.155 220.216 243.636" fill="#FFC540"/>
<path fill-rule="evenodd" clip-rule="evenodd" d="M39.4411 108.962C47.3132 113.604 45.3211 123.014 35.7305 118.497C30.0664 113.368 33.6707 111.142 39.4411 108.962" fill="#FFC540"/>
<path fill-rule="evenodd" clip-rule="evenodd" d="M262.385 344.607C262.069 347.739 257.404 351.811 254.295 348.867C252.734 347.392 248.465 346.485 250.431 343.794C252.708 339.455 260.737 340.17 262.385 344.607" fill="#42C7FF"/>
<path fill-rule="evenodd" clip-rule="evenodd" d="M39.5434 96.2653C40.2418 89.4599 50.4157 89.4817 49.4853 96.9898C49.2726 101.225 38.4537 101.781 39.5434 96.2653" fill="#42C7FF"/>
<path fill-rule="evenodd" clip-rule="evenodd" d="M123.452 351.615C120.36 349.483 117.534 347.151 121.842 344.425C123.264 343.56 124.487 341.785 126.391 342.82C130.762 345.428 127.825 350.953 123.452 351.615" fill="#42C7FF"/>
<path fill-rule="evenodd" clip-rule="evenodd" d="M245.077 300.964C245.014 297 251.82 296.193 251.651 300.523C251.206 305.973 245.634 306.534 245.077 300.964" fill="#42C7FF"/>
<path fill-rule="evenodd" clip-rule="evenodd" d="M98.0376 98.7977C97.717 94.2154 103.559 97.6947 105.231 98.9276C105.065 103.357 97.1044 103.758 98.0376 98.7977" fill="#42C7FF"/>
<path fill-rule="evenodd" clip-rule="evenodd" d="M160.269 132.594C159.646 135.694 155.165 135.597 154.145 132.911C153.568 131.536 155.442 128.714 156.966 128.692C158.598 129.162 159.267 131.61 160.269 132.594" fill="#42C7FF"/>
<path fill-rule="evenodd" clip-rule="evenodd" d="M74.4231 346.169C73.7953 348.372 70.9163 348.123 69.7023 346.78C67.6955 341.835 72.6332 343.639 74.4231 346.169" fill="#42C7FF"/>
<path fill-rule="evenodd" clip-rule="evenodd" d="M208.385 293.083C208.107 293.556 207.829 294.029 207.557 294.5C207.292 293.788 207.25 293.126 207.588 292.423C207.854 292.643 208.119 292.863 208.385 293.083" fill="#FFC540"/>
<path fill-rule="evenodd" clip-rule="evenodd" d="M74.8668 293.533C74.8668 293.527 74.8668 293.52 74.8668 293.514C71.5417 294.235 55.8574 291.841 55.9486 294.864C56.4091 304.633 56.3691 314.333 59.3011 323.748C59.5627 325.043 60.1767 325.358 61.6051 325.436C79.0628 326.922 96.4288 328.356 114.008 327.935C127.198 327.607 140.935 330.403 153.602 325.98C156.068 325.129 153.316 322.537 153.431 320.95C153.879 311.845 150.979 303.348 149.425 294.48C149.496 290.037 136.514 292.799 133.003 292.169C113.655 293.522 94.2612 293.506 74.8668 293.533M55.7651 291.476C72.898 284.369 91.1677 287.32 109.254 287.49C118.759 287.011 127.966 286.704 137.381 286.104C140.344 285.315 147.919 287.816 148.175 283.965C146.466 256.273 140.691 228.886 139.916 201.158C140.211 195.573 139.796 192.431 132.959 192.161C114.245 189.487 95.296 192.006 76.4687 190.782C75.0115 190.742 73.4862 191.132 72.127 190.223C70.857 190.228 69.3191 190.813 67.9908 190.843C64.385 191.979 51.1338 189.07 52.5727 194.394C54.4881 226.731 53.4771 259.113 55.7651 291.476M161.132 323.111C173.893 340.186 104.436 332.802 95.3416 334.353C87.729 334.272 80.1642 333.577 72.6521 332.433C68.0233 331.787 63.3718 329.651 58.7307 331.461C54.5434 332.919 54.0811 323.634 53.1508 321.09C45.1831 279.943 46.0166 237.128 46.9973 195.345C48.216 181.731 71.2356 185.205 81.535 183.815C101.687 183.259 121.954 182.66 141.842 186.061C152.739 187.514 148.409 201.223 149.797 208.49C150.536 218.181 151.712 227.846 152.587 237.524C154.6 260.176 156.616 282.928 160.445 305.368C161.281 311.401 162.612 318.982 159.908 323.952C160.576 323.91 161.088 323.869 161.132 323.111" fill="white"/>
<path fill-rule="evenodd" clip-rule="evenodd" d="M190.957 311.808C186.576 310.758 171.76 310.781 178.088 303.924C183.335 299.076 207.386 311.577 190.957 311.808" fill="white"/>
<path fill-rule="evenodd" clip-rule="evenodd" d="M23.959 268.184C21.1939 268.352 4.71192 265.846 9.02233 262.148C16.424 258.496 48.1036 267.354 23.959 268.184" fill="white"/>
<path fill-rule="evenodd" clip-rule="evenodd" d="M105.814 360.06C105.429 375.774 95.1999 352.668 98.0085 347.99C104.096 340.485 106.138 355.91 105.814 360.06" fill="white"/>
<path fill-rule="evenodd" clip-rule="evenodd" d="M160.186 157.109C161.661 156.935 163.61 159.017 162.487 160.178C158.307 163.057 149.747 172.636 145.034 166.889C143.76 160.722 155.064 157.651 160.186 157.109" fill="white"/>
<path fill-rule="evenodd" clip-rule="evenodd" d="M17.3272 237.818C21.8032 238.188 27.961 236.414 31.0255 240.356C31.3714 240.765 30.9683 241.497 30.4082 241.46C23.0236 241.851 15.6184 244.058 8.1766 242.971C-0.130057 237.466 13.4902 237.592 17.3272 237.896C17.3272 237.869 17.3272 237.843 17.3272 237.818" fill="white"/>
<path fill-rule="evenodd" clip-rule="evenodd" d="M179.654 210.087C178.563 216.21 169.537 214.924 165.006 217.746C161.651 219.092 160.586 214.735 162.863 212.989C166.472 209.958 176.267 205.149 179.654 210.087" fill="white"/>
<path fill-rule="evenodd" clip-rule="evenodd" d="M181.8 245.346C178.456 244.177 159.175 244.979 164.222 239.169C167.936 235.988 195.364 243.925 181.8 245.346" fill="white"/>
<path fill-rule="evenodd" clip-rule="evenodd" d="M10.5469 211.423C17.9762 213.352 27.9675 216.433 31.5 223.065C26.3594 224.317 14.8938 215.942 8.49585 214.75C4.78515 213.324 8.54254 212.036 10.5469 211.423" fill="white"/>
<path fill-rule="evenodd" clip-rule="evenodd" d="M59.8846 352.112C59.3517 353.784 58.9275 355.793 58.0682 357.622C52.2201 370.317 49.5997 357.547 53.2654 351.254C55.0302 347.445 59.4746 347.456 59.8846 352.112" fill="white"/>
<path fill-rule="evenodd" clip-rule="evenodd" d="M20.4231 304.247C22.4301 297.939 22.7131 290.644 29.5989 288.325C32.5441 287.807 32.1606 291.03 30.902 292.549C28.5939 295.481 23.1808 307.801 20.4231 304.247" fill="white"/>
<path fill-rule="evenodd" clip-rule="evenodd" d="M195.458 347.808C190.819 347.373 179.852 345.686 182.974 340.291C183.722 339.481 184.45 339.292 185.479 339.728C189.619 341.128 193.389 343.998 197.863 344.254C199.599 344.031 199.936 346.73 198.424 347.161C197.309 347.535 196.099 347.676 195.458 347.808" fill="white"/>
<path fill-rule="evenodd" clip-rule="evenodd" d="M143.497 346.769C146.119 347.282 148.579 346.982 149.544 349.518C150.757 353.03 154.064 356.708 154.038 360.259C149.174 360.613 139.685 351.381 143.497 346.769" fill="white"/>
<path fill-rule="evenodd" clip-rule="evenodd" d="M55.7307 171.269C50.8869 170.739 43.7944 164.668 40.8839 160.856C40.0083 149.898 54.6518 168.425 55.7307 171.269" fill="white"/>
<path fill-rule="evenodd" clip-rule="evenodd" d="M29.4231 185.263C25.9417 188.165 18.7913 183.147 14.8809 181.965C11.2731 180.706 10.9179 176.905 15.4744 177.579C20.8012 178.977 26.0452 181.096 29.4231 185.263" fill="white"/>
<path fill-rule="evenodd" clip-rule="evenodd" d="M172.899 270.962C177.597 271.149 182.303 272.004 184.293 275.764C184.945 277.078 183.966 278.073 182.605 277.223C178.743 275.409 173.53 277.449 170.016 275.115C167.344 272.582 170.065 270.939 172.899 270.962" fill="white"/>
<path fill-rule="evenodd" clip-rule="evenodd" d="M99 165.63C97.923 168.013 98.5217 172.215 95.8286 173.346C88.2591 170.758 96.8543 156.507 99 165.63" fill="white"/>
<path fill-rule="evenodd" clip-rule="evenodd" d="M178.075 178.888C191.728 180.583 178.945 183.952 173.055 183.719C166.849 180.638 174.183 178.792 178.075 178.888" fill="white"/>
<path fill-rule="evenodd" clip-rule="evenodd" d="M110.45 230.075C108.507 229.981 108.068 230.514 108.554 231.973C110.649 237.319 109.214 243.1 108.926 248.609C113.244 251.912 120.047 242.665 121.236 238.918C121.361 235.563 113.96 229.835 110.45 230.075M88.7136 230.892C81.8417 231.558 75.5918 234.938 71.1214 239.822C68.1295 242.373 84.7861 246.936 87.0514 248.442C91.524 250.037 87.0627 240.89 88.3884 238.637C88.3603 236.15 90.1609 233.057 88.7136 230.892M122.311 228.622C132.118 238.347 129.688 240.386 121.396 250.466C114.442 257.154 103.525 255.909 94.3876 256.423C83.359 256.429 73.5147 250.833 64.351 245.7C60.3566 242.185 69.4567 236.091 70.9957 232.448C73.383 230.78 72.1081 229.004 69.951 227.935C68.1283 226.867 62.901 221.775 67.1798 221.276C71.9663 221.128 73.3048 229.676 78.266 227.142C87.4211 225.054 72.9175 216.331 79.4496 212.65C84.7158 212.906 83.5375 223.716 88.956 223.518C102.433 221.897 98.2267 222.434 99.0731 211.421C103.365 205.929 105.672 214.968 104.323 218.501C103.416 222.359 104.966 222.761 108.358 222.357C111.109 221.897 108.592 217.009 111.61 215.245C116.815 211.882 115.386 219.613 114.551 222.245C114.09 224.348 117.009 224.527 118.355 225.536C118.998 225.842 119.571 225.869 120.167 225.297C129.999 216.138 135.622 222.032 122.311 228.622" fill="white"/>
<path fill-rule="evenodd" clip-rule="evenodd" d="M104.746 197C107.598 197.457 113.016 195.655 114.231 198.74C114.074 200.769 113.399 201.543 111.383 201.606C107.202 201.737 103.015 201.759 98.832 201.699C96.1378 201.961 91.9965 199.511 95.4971 197.484C98.4949 196.678 101.664 197.096 104.746 197.012C104.746 197.008 104.746 197.004 104.746 197" fill="white"/>
<path fill-rule="evenodd" clip-rule="evenodd" d="M86.8835 199.776C86.9735 204.039 81.7278 205.665 81.0295 200.938C80.5464 197.595 86.1533 196.781 86.8835 199.776" fill="white"/>
<path fill-rule="evenodd" clip-rule="evenodd" d="M103.609 304.753C96.7022 306.61 103.955 316.798 109.164 313.159C114.336 309.693 107.473 305.312 103.609 304.753M103.018 299.346C130.2 300.08 113.399 330.245 96.2421 314.565C92.2705 310.538 94.9926 305.723 96.0514 301.318C97.1417 299.262 100.906 299.911 103.018 299.346" fill="white"/>
<path fill-rule="evenodd" clip-rule="evenodd" d="M289.819 199.999C290.397 187.559 290.057 175.109 290.037 162.669C291.163 154.225 304.218 156.721 310.348 154.069C315.896 152.913 321.522 152.465 327.155 151.962C333.6 151.49 340.041 148.356 346.459 150.576C357.709 156.512 350.212 174.985 354.111 185.578C355.353 199.251 356.898 212.677 359.727 226.143C360.191 234.016 365.126 270.163 356.659 271.704C340.326 278.771 322.071 278.596 305.033 283.501C300.505 284.176 294.009 282.23 293.829 277.05C295.23 273.004 289.256 261.181 293.675 261.354C335.509 255.198 323.153 209.121 289.819 199.999" fill="#FE3A52"/>
<path fill-rule="evenodd" clip-rule="evenodd" d="M289.819 199.999C332.63 213.479 330.561 266.938 280.994 261.223C262.741 259.803 252.054 239.323 257.474 222.69C260.377 210.042 277.834 201.157 289.819 199.999" fill="#3CC5FF"/>
<path fill-rule="evenodd" clip-rule="evenodd" d="M287.514 161.121C286.657 179.164 275.838 173.012 266.581 180.721C264.595 182.664 261.971 179.595 259.498 181.015C252.048 182.682 243.429 180.977 238.834 174.457C234.929 156.481 262.897 145.332 276.217 139.449C284.709 135.827 286.287 155.625 287.514 161.121" fill="#3A5AFF"/>
<path fill-rule="evenodd" clip-rule="evenodd" d="M116.883 39.0193C115.028 39.0885 113.128 38.6953 111.352 39.7272C108.888 40.2004 106.196 38.6223 103.642 39.6268C98.6117 40.2364 86.1173 45.0268 86.1928 36.6322C87.3337 30.334 90.0583 1.00919 98.0059 2.48207C100.1 3.00269 102.08 0.0659161 104.272 1.24215C110.027 2.27161 111.708 7.90457 114.237 12.5448C115.078 17.3733 121.914 16.2773 120.979 20.9971C118.934 28.6364 133.321 39.4624 116.883 39.0193" fill="#FFC43B"/>
<path fill-rule="evenodd" clip-rule="evenodd" d="M294.026 136.593C293.815 142.431 294.702 148.184 294.942 154.014C294.935 155.413 296.575 155.844 297.707 155.486C310.677 153.014 323.762 151.245 336.901 150.064C339.404 148.832 348.875 150.042 348.086 146.612C344.914 134.667 350.534 130.068 335.879 133.767C324.268 134.561 312.226 138.1 300.717 136.407C298.496 135.723 296.557 136.408 294.026 136.593M232.29 17.962C218.193 17.4085 204.302 20.842 190.76 24.4015C188.504 24.9426 188.938 26.6997 189.786 28.2902C192.356 32.9775 193.399 38.1795 193.744 43.4507C189.752 45.8624 186.692 25.4622 183.019 27.1604C167.449 31.0671 180.07 32.722 179.763 42.2928C178.287 44.9309 172.763 34.6155 171.803 33.0533C167.451 29.1414 148.035 46.9507 144.342 50.8508C140.148 56.1788 133.333 59.9145 132.17 67.3371C130.794 79.8364 143.838 76.479 151.602 74.9379C161.3 73.4422 169.914 69.2555 178.923 65.6527C183.959 64.9732 198.006 52.6363 200.133 60.5348C197.951 65.3557 192.146 65.491 188.368 68.6137C186.984 70.09 179.21 73.7918 181.756 75.6538C186.595 77.4489 191.4 79.4635 195.203 83.0556C200.798 90.1126 191.581 84.931 188.863 83.373C180.55 80.1607 179.014 73.9455 172.466 83.382C172.043 85.3201 175.102 85.7324 176.305 86.685C180.798 89.3365 186.264 91.4453 190.397 94.0363C188.261 96.3711 183.898 94.4627 181.3 93.5863C177.28 92.768 168.965 85.03 166.241 88.9675C160.6 95.369 156.103 102.728 151.794 110.08C134.681 151.536 183.98 121.486 196.215 108.386C205.188 101.551 212.615 93.4142 219.417 84.4585C220.696 81.1936 227.197 80.5747 226.217 84.9805C225.334 86.6923 228.409 87.6899 226.764 89.3265C225.775 91.8379 219.533 96.0263 221.161 98.321C224.204 100.968 231.986 103.241 233.059 106.715C228.101 109.808 222.62 103.1 218.018 101.416C215.483 101.412 214.617 105.265 213.04 106.929C212.446 109.567 217.722 109.741 219.338 111.203C227.924 117.821 215.338 112.978 212.174 111.947C207.637 109.283 199.628 133.338 199.808 137.21C198.994 141.412 201.983 144.576 205.013 146.956C212.539 150.469 219.213 140.51 224.496 136.311C237.84 125.914 245.724 111.024 256.798 98.6564C277.488 80.6637 285.213 103.197 292.644 119.791C294.095 122.87 293.848 126.398 295.395 129.514C298.967 134.404 310.924 129.054 316.631 129.486C320.009 129.028 338.257 130.496 336.683 126.474C329.923 111.054 332.502 92.5762 325.735 76.8196C314.654 35.043 272.237 18.032 232.29 17.962M354.863 227.711C351.79 228.534 346.226 230.054 345.45 225.654C345.084 222.241 344.267 216.168 349.409 216.678C352.889 216.703 355.385 218.38 354.521 213.399C355.114 194.242 350.036 175.784 348.295 156.889C348.914 150.376 340.638 154.869 337.008 154.822C323.435 155.61 310.247 158.772 296.739 160.073C293.514 161.306 296.069 173.388 295.301 177.006C295.304 177.706 295.622 178.233 296.449 178.087C301.899 177.713 306.423 186 301.516 189.558C294.749 194.484 295.434 190.922 296.269 200.158C297.413 204.55 295.697 219.168 299.17 220.78C302.191 221.122 307.458 222.768 305.771 226.793C304.558 229.805 303.243 233.341 299.249 232.967C294.884 233.675 299.932 260.587 300.277 265.482C303.036 265.2 307.505 263.266 308.31 267.168C308.697 269.888 310.246 274.675 306.349 275.07C303.316 275.508 298.143 274.031 297.058 271.057C294.89 257.804 293.499 244.439 293.173 231.009C291.782 205.998 288.011 181.301 288.197 156.204C287.479 147.326 287.776 138.21 289.093 129.714C285.43 122.982 278.54 103.28 272.4 100.372C254.912 99.1188 234.661 150.678 208.706 152.974C201.501 154.6 193.606 145.933 193.471 139.143C193.713 131.8 195.315 124.726 198.194 117.948C198.368 117.418 197.633 117.1 197.255 117.415C184.385 127.262 168.82 138.317 151.83 135.946C130.806 127.658 149.612 103.294 157.075 91.0912C160.028 86.3679 163.99 82.4757 167.674 78.3541C172.957 73.4903 165.169 76.6289 162.872 77.3229C153.891 78.7373 144.178 83.4322 134.727 80.5044C126.565 76.9425 125.967 65.6793 130.611 58.983C134.52 52.1139 140.75 47.2099 146.386 41.8536C153.558 34.0118 162.125 27.8284 172.094 24.0567C199.951 12.7721 230.684 7.63763 260.382 14.3295C303.178 19.0673 330.767 57.678 336.243 98.0741C336.252 103.378 337.019 108.6 339.101 113.56C340.944 117.922 338.701 122.68 339.231 127.282C342.997 128.352 349.528 125.385 350.319 131.19C354.009 143.568 351.715 156.298 353.645 168.872C359.269 201.015 358.705 234.384 359.906 266.747C353.509 275.146 343.617 262.964 353.75 258.588C358.556 259.98 355.134 231.269 354.863 227.711" fill="white"/>
<path fill-rule="evenodd" clip-rule="evenodd" d="M85.8472 82.2544C85.9251 82.0508 86.0026 81.847 86.0805 81.6431C85.3858 81.4537 85.1681 81.9778 85.8472 82.2544M82.639 78.1023C82.5598 77.8883 82.4809 77.6744 82.4016 77.4605C81.7235 77.5785 81.8107 77.8527 82.0492 78.356C82.2458 78.2722 82.4421 78.1881 82.639 78.1023M82.0959 64.0177C82.0894 63.9477 82.0828 63.8782 82.0759 63.8082C70.8324 64.3465 76.9185 66.042 81.9827 70.6496C84.2916 71.696 89.8065 81.3278 91.5747 77.725C94.7859 69.9753 90.7889 63.2108 82.0959 64.0177M131.471 29.0277C108.904 29.6722 71.5106 17.5998 58.6232 42.6956C56.9617 48.5439 56.5082 56.2669 62.4382 59.7731C64.6681 60.7707 67.6866 63.4544 69.8961 61.1501C72.2461 59.1092 75.365 57.3687 78.4807 58.593C82.9838 59.7959 87.8234 58.9721 91.9468 61.6278C101.883 67.2033 95.3121 78.9033 92.0039 86.3245C91.1267 98.4714 79.5482 109.086 67.2179 105.599C63.773 101.323 82.7813 105.816 86.6915 92.3109C87.0764 90.8196 89.5652 86.1341 86.3588 86.5945C78.3236 88.3405 65.7125 87.1764 64.7377 76.9977C64.3296 74.1444 64.1873 71.2557 65.0548 68.3996C66.6751 65.5217 55.2721 63.433 53.6674 55.154C46.0149 33.0909 71.4026 19.5195 90.3531 20.8959C114.288 21.1593 138.331 25.8144 162.08 22.2846C154.599 30.2552 142.007 27.5853 131.471 29.0277" fill="white"/>
<path fill-rule="evenodd" clip-rule="evenodd" d="M322.378 197.753C328.627 197.601 327.429 206.59 324.418 209.735C315.913 213.66 311.174 196.961 322.378 197.753" fill="white"/>
<path fill-rule="evenodd" clip-rule="evenodd" d="M332.601 244.667C332.409 252.693 319.476 250.732 321.364 243.444C322.49 241.249 322.869 237.274 326.165 237.714C329.904 238.371 332.938 240.192 332.601 244.667" fill="white"/>
<path fill-rule="evenodd" clip-rule="evenodd" d="M317.988 171.716C315.185 171.132 311.263 169.72 313.089 165.807C314.474 162.496 317.049 157.531 321.304 160.421C326.511 163.52 324.938 172.221 317.988 171.716" fill="white"/>
<path fill-rule="evenodd" clip-rule="evenodd" d="M349.413 181.903C350.009 188.68 338.673 186.801 337.325 182.198C335.569 173.845 350.317 173.968 349.413 181.903" fill="white"/>
</svg>
