<svg width="360" height="360" viewBox="0 0 360 360" fill="none" xmlns="http://www.w3.org/2000/svg">
<path fill-rule="evenodd" clip-rule="evenodd" d="M56.913 281.083C62.1956 284.357 64.5696 290.973 68.668 295.551C77.0069 305.374 80.0738 318.728 88.0346 328.552C92.6911 331.231 94.2419 336.926 97.9644 340.628C100.043 343.076 111.488 357.783 106.091 359.061C100.532 362.175 95.8581 356.135 90.6374 355.176C76.686 355.408 62.8101 353.409 48.8556 353.609C36.771 353.439 24.9976 356.225 13.0023 357.416C-4.24893 357.917 21.237 340.639 16.0478 334.219C9.88315 322.152 35.692 311.239 40.8158 302.007C43.0772 296.078 50.1547 292.215 51.1308 286.166C50.6687 282.965 54.9648 282.667 56.913 281.083" fill="#FF3B53"/>
<path fill-rule="evenodd" clip-rule="evenodd" d="M92.8255 169.753C92.155 168.578 90.758 167.283 89.4571 167.808C88.2795 168.968 92.1755 173.136 92.8255 169.753M56.4666 208.738C48.3655 204.672 44.9081 193.814 40.0696 186.377C35.2228 176.9 27.5468 169.438 20.7521 161.277C20.0934 160.328 19.4655 159.434 18.1079 159.445C14.6176 157.626 18.2495 151.376 21.3098 150.361C34.2566 144.401 43.096 131.66 58.1548 130.066C69.9212 124.394 82.2315 160.537 87.1894 160.053C96.9022 159.344 102.785 167.599 96.6342 175.888C93.9581 179.217 100.02 183.818 95.4116 186.426C80.7202 190.942 70.7271 203.967 56.4666 208.738" fill="#FFC43C"/>
<path fill-rule="evenodd" clip-rule="evenodd" d="M116.659 215.811C116.921 214.394 116.996 213.16 115.405 212.267C112.443 208.162 118.217 203.268 121.397 201.04C124.972 199.102 128.88 194.761 133.216 196.59C138.678 197.86 144.888 195.196 148.87 200.638C157.967 214.935 162.966 229.597 140.051 229.926C127.833 231.022 117.207 230.918 116.659 215.811" fill="#3E5DFF"/>
<path fill-rule="evenodd" clip-rule="evenodd" d="M185.634 343.99C181.412 342.428 175.369 344.604 173.236 339.786C172.03 337.078 169.157 336.126 167.729 333.743C166.731 332.856 164.687 333.429 163.407 333.23C160.038 332.796 158.261 330.305 159.025 326.874C159.245 323.883 155.656 321.811 159.177 319.549C161.725 317.567 181.954 305.824 182.751 310.953C184.776 312.321 187.021 310.426 187.359 314.081C189.29 319.714 194.755 311.117 197.366 316.679C200.749 319.155 198.475 325.414 203.526 324.176C204.006 324.229 204.753 324.402 204.876 324.718C205.652 326.87 208.305 329.709 205.943 331.731C199.812 336.523 192.896 341.228 185.634 343.99" fill="#3BC5FF"/>
<path fill-rule="evenodd" clip-rule="evenodd" d="M158.277 292.629C152.682 290.043 145.353 287.249 143.68 280.653C143.601 280.24 142.836 279.702 142.368 279.68C139.279 279.917 136.144 280.494 133.028 280.495C127.294 279.559 130.808 272.499 134.371 270.915C141.074 267.901 146.683 262.387 154.218 261.874C156.966 261.115 159.983 265.426 158.535 267.847C158.097 268.533 157.906 269.142 159.085 269.451C161.906 270.582 164.49 274.717 161.146 276.733C155.408 280.692 173.794 288.875 158.277 292.629" fill="#FFC43C"/>
<path fill-rule="evenodd" clip-rule="evenodd" d="M41.2854 272.614C26.893 268.249 76.8783 232.325 82.7802 227.9C84.8696 226.2 87.7001 228.484 86.6959 230.936C84.0561 237.698 76.9641 241.298 72.1301 246.386C61.8711 254.619 53.0473 267.152 41.2854 272.614" fill="#3BC5FF"/>
<path fill-rule="evenodd" clip-rule="evenodd" d="M32.3784 262.913C23.404 260.733 39.253 246.723 41.9049 243.224C50.0707 232.133 102.059 201.428 64.9494 232.719C60.2064 236.641 55.2522 240.334 50.7561 244.52C44.1964 249.973 39.8494 258.796 32.3784 262.913" fill="#3BC5FF"/>
<path fill-rule="evenodd" clip-rule="evenodd" d="M56.913 281.083C30.877 288.282 86.2644 245.593 90.0157 241.937C105.831 241.104 59.1841 275.937 56.913 281.083" fill="#3BC5FF"/>
<path fill-rule="evenodd" clip-rule="evenodd" d="M57.9232 213.692C65.0785 215.03 47.2526 228.331 45.2927 231.011C39.8733 235.545 36.301 241.799 31.3873 246.693C29.5714 248.26 26.3553 245.469 27.472 243.329C34.5754 231.066 46.6358 221.818 57.9232 213.692" fill="#3BC5FF"/>
<path fill-rule="evenodd" clip-rule="evenodd" d="M55.282 127.106C48.0128 132.784 40.3434 137.812 32.5508 142.762C27.3041 146.404 21.3084 149.092 16.6073 153.454C14.0049 155.993 18.7136 157.91 19.9408 159.854C32.898 175.222 45.7424 190.66 58.6858 206.009C59.4954 207.072 60.4491 206.221 61.1061 205.383C70.9957 193.642 82.9643 183.786 92.5095 171.802C96.4487 169.386 80.5651 157.286 78.5332 154.234C69.0735 146.683 63.4021 135.783 55.282 127.106M53.4796 214.355C25.157 212.176 15.4141 243.391 31.2333 263.482C33.4418 267.519 52.1054 276.31 56.2527 274.616C59.7325 273.239 61.4723 278.472 64.9778 277.874C109.362 276.587 100.803 212.858 53.4796 214.355M57.8764 353.05C69.1358 353.114 87.8845 353.193 101.016 352.338C101.987 352.297 102.345 351.621 101.838 350.805C96.267 342.442 91.947 333.235 85.8903 325.199C76.4386 311.544 65.9719 298.679 57.1911 284.579C55.2041 282.059 48.9727 293.119 46.7798 294.521C31.8658 312.165 20.0616 332.274 7.55814 351.654C6.48783 353.056 7.96833 353.827 9.30968 353.66C26.4699 353.986 38.532 353.451 57.8764 353.05M97.3851 174.976C87.3947 185.622 76.9104 195.784 66.8117 206.383C64.9148 208.114 63.9982 209.661 67.2344 210.271C107.335 219.008 109.511 279.386 66.0384 282.94C72.0746 295.481 82.3623 305.537 89.0178 317.825C97.4003 328.599 101.851 342.359 110.321 352.738C111.235 352.977 111.148 354.267 110.901 355.045C112.228 357.622 109.375 359.101 107.173 358.732C95.1939 358.797 83.099 358.602 71.1283 359.437C51.8551 359.106 32.4525 360.297 13.1329 358.801C9.80572 357.841 -0.936474 359.678 0.0656416 354.546C11.7334 327.255 31.5199 304.527 49.5134 281.385C52.1898 277.096 29.307 275.74 24.2511 262.251C10.4935 237.394 20.748 209.225 51.5408 208.752C55.8096 208.114 38.7892 192.898 37.1003 191.031C28.2533 181.582 21.1513 170.64 12.0637 161.375C3.43995 153.437 16.3394 146.065 22.7117 142.358C33.2102 135.933 44.041 130.033 54.2834 123.208C55.4634 122.414 58.9589 120.102 58.9405 122.7C58.5989 123.669 58.6719 124.391 59.4442 125.044C63.7116 128.656 66.6757 133.39 70.1732 137.654C77.8367 146.486 86.9364 153.849 94.4909 162.765C98.1816 166.358 102.872 171.086 103.363 176.264C102.147 180.197 98.7676 177.231 97.3851 174.976" fill="white"/>
<path fill-rule="evenodd" clip-rule="evenodd" d="M199.347 325.344C196.043 322.016 186.345 307.21 182.201 308.983C178.784 310.075 154.46 317.916 157.331 321.124C165.468 327.559 173.058 334.872 181.949 340.256C183.058 340.738 184.008 339.677 184.742 338.949C189.438 334.301 195.361 330.536 199.347 325.344M206.933 324.669C202.307 330.698 194.974 334.727 189.426 340.073C186.44 341.615 185.694 347.998 181.363 345.189C171.245 339.532 162.6 331.741 154.461 323.574C152.195 320.763 150.664 323.511 148.529 322.828C150.317 315.715 167.557 307.432 174.308 304.254C177.745 303.039 182.628 300.314 185.998 302.647C193.907 309.065 200.395 316.917 206.933 324.669" fill="white"/>
<path fill-rule="evenodd" clip-rule="evenodd" d="M132.446 196.836C111.353 196.36 112.343 230.486 138.144 226.495C157.392 225.872 148.187 194.964 132.446 196.836M134.932 231.197C121.167 232.657 109.625 220.361 114.668 206.527C114.8 206.087 114.911 205.234 114.772 205.174C109.167 202.304 124.984 191.124 128.431 192.715C153.784 182.416 168.883 232.722 134.932 231.197" fill="white"/>
<path fill-rule="evenodd" clip-rule="evenodd" d="M157.555 261.462C158.573 256.764 137.181 270.616 134.315 271.236C132.924 271.964 132.9 272.581 134.197 273.269C138.105 275.342 141.624 277.969 144.996 280.799C167.22 297.545 152.063 282.147 157.555 261.462M163.283 257.818C155.262 280.803 175.473 307.387 138.543 281.591C135.145 278.91 131.196 277.331 127.304 275.548C121.047 270.784 131.687 265.705 135.643 264.041C140.144 263.505 165.243 248.289 163.283 257.818" fill="white"/>
<path fill-rule="evenodd" clip-rule="evenodd" d="M75.6836 68.0302C73.572 69.3798 73.53 69.1921 71.7534 67.6539C66.9895 62.8825 60.7667 62.6689 67.3028 55.4093C67.7835 54.668 68.6447 53.8127 68.5534 53.1214C68.6363 47.6466 74.7109 45.1852 78.0827 41.8852C79.4596 40.2757 99.2874 29.2022 89.0674 31.7725C83.677 32.591 74.7728 42.18 70.3085 38.3113C69.8222 37.8186 57.227 43.0117 53.8204 28.8835C52.4155 28.0182 52.3165 27.1993 53.1237 25.7124C56.1118 18.8341 64.0944 21.4841 69.4664 18.2972C87.55 11.8892 107.199 13.1674 125.715 8.67052C126.892 8.38808 127.396 7.96422 127.141 6.40809C126.707 -0.0208295 135.408 5.43186 137.627 2.56784C138.296 1.71802 139.291 2.1373 140.13 2.58704C148.009 6.18323 148.232 15.6193 150.055 23.1992C150.194 28.0712 159.133 53.698 155.047 54.27C137.838 45.5181 153.112 43.9295 127.853 57.565C106.16 71.719 110.258 93.8106 95.918 89.8865C92.2962 88.1338 89.9499 84.1918 86.1487 82.4755C78.4609 77.7524 90.8449 64.3418 92.2746 58.1695C91.9389 58.2725 91.6032 58.3751 91.2675 58.4782C85.8887 61.3868 81.1248 65.2467 75.6836 68.0302Z" fill="#FFC43C"/>
<path fill-rule="evenodd" clip-rule="evenodd" d="M285.827 283.186C285.706 282.643 285.61 282.216 285.515 281.788C285.39 282.623 285.053 283.449 285.512 284.243C285.625 283.862 285.739 283.481 285.827 283.186M215.979 245.141C228.421 245.944 240.853 247.082 253.332 247.049C261.143 244.976 268.796 243.233 276.699 246.176C280.09 247.139 280.875 247.896 280.811 243.32C280.653 236.812 284.978 237.335 287.571 242.257C289.304 246.757 289.609 251.652 292.171 255.774C289.868 260.42 292.702 265.492 292.976 270.322C294.387 279.082 295.789 287.843 297.183 296.606C297.757 298.147 296.775 300.558 294.904 299.516C293.548 298.43 292.31 296.583 290.316 297.43C282.962 300.994 281.414 295.181 274.367 297.152C265.986 298.585 257.881 300.263 249.424 299.222C244.1 298.726 237.729 301.381 233.725 296.611C230.646 293.214 222.106 291.11 229.77 286.686C230.989 285.973 232.033 285.248 232.158 283.685C236.906 274.987 226.999 281.905 220.961 274.935C219.081 272.141 211.351 270.698 215.012 266.416C216.495 264.558 218.47 263.642 220.571 264.761C224.017 266.594 226.56 265.533 229.486 263.441C232.156 261.393 235.919 260.979 238.708 259.037C230.255 254.729 219.741 257.251 210.564 258.239C206.125 258.527 203.383 253.597 199.707 251.675C195.503 248.077 205.551 245.184 208.299 245.303C210.854 245.268 213.41 245.296 215.965 245.296C215.97 245.245 215.974 245.193 215.979 245.141" fill="#39C4FF"/>
<path fill-rule="evenodd" clip-rule="evenodd" d="M236.458 48.9715C235.27 25.5807 264.378 7.23827 285.827 9.54174C310.512 15.8473 335.679 37.0997 335.066 64.465C335.32 69.6002 329.706 77.2344 324.513 74.5648C320.584 69.9073 326.604 63.6532 324.256 58.6646C325.057 34.7535 300.782 24.4846 279.961 25.8961C268.661 28.3627 254.315 33.4166 251.164 45.8717C248.327 54.5657 247.913 63.9076 246.316 72.761C237.653 68.9627 236.431 57.3532 236.587 48.9715H236.458Z" fill="#3E5CFF"/>
<path fill-rule="evenodd" clip-rule="evenodd" d="M295.269 236.484C296.468 229.018 303.815 238.322 305.008 241.556C308.449 249.658 310.852 258.224 313.431 266.637C316.663 276.515 315.339 287.918 320.876 296.876C321.281 305.315 307.013 290.346 307.289 287.182C305.435 281.954 303.998 276.602 303.469 271.059C302.093 259.187 295.725 248.578 295.269 236.484" fill="#39C4FF"/>
<path fill-rule="evenodd" clip-rule="evenodd" d="M174.787 48.2566C174.984 50.8922 173.772 54.4923 171.183 51.4606C169.481 49.3749 166.22 49.0505 165.196 46.2427C163.072 41.5239 152.728 1.15392 163.037 5.1199C168.977 7.94283 170.078 14.5229 170.888 20.4294C172.173 29.6515 173.832 39.0202 174.787 48.2566" fill="#FFC43C"/>
<path fill-rule="evenodd" clip-rule="evenodd" d="M271.83 61.443C270.966 56.0744 275.907 48.6603 280.278 51.5196C285.855 55.3918 300.536 65.1169 286.791 69.1088C285.529 69.1953 283.171 70.7336 282.383 70.608C280.998 69.4644 278.96 69.7543 277.781 68.122C276.537 65.8379 271.572 63.9006 271.83 61.443" fill="#FF3C54"/>
<path fill-rule="evenodd" clip-rule="evenodd" d="M255.188 5.31675C215.297 9.46034 175.258 5.08647 135.295 9.35892C123.45 12.1788 48.1464 17.0053 57.878 34.5239C69.3118 42.9869 90.5605 25.4715 97.7596 30.8655C100.514 36.4298 81.6304 43.3146 77.8154 47.4232C69.925 52.7592 57.706 67.6909 76.7726 63.7537C87.8807 61.5435 95.562 53.6358 104.598 47.7394C114.457 48.4477 103.955 58.1449 99.9663 60.2878C95.8619 62.9857 93.4222 66.8298 91.7204 71.2657C87.9173 79.2979 88.8937 93.2719 100.697 85.3438C109.041 78.0327 113.04 67.3945 118.645 58.0649C122.712 49.7026 156.207 46.9149 166.194 44.7918C169.915 44.4688 173.484 45.419 177.179 43.9148C179.925 42.2077 183.4 43.4271 186.408 43.1066C196.857 39.4375 208.477 40.7623 219.408 39.2991C230.161 38.7243 223.868 44.5925 223.319 50.6599C222.541 63.07 218.989 78.1655 228.196 88.2731C239.119 105.97 260.283 115.535 280.791 115.148C287.39 115 294.118 115.073 300.371 112.628C303.113 111.969 307.716 109.486 309.277 112.965C309.361 117.904 296.054 118.256 292.196 119.224C261.032 124.025 217.723 108.273 214.426 73.0006C215.163 37.5005 234.522 45.3355 175.719 51.1038C158.739 52.1303 142.409 57.3884 126.003 61.5383C119.021 65.4874 117.381 75.5926 111.813 81.3347C105.566 89.6159 88.0169 100.105 84.2712 84.4784C82.5371 80.4493 88.1288 68.6605 85.3439 68.3443C76.2876 72.9389 53.6019 73.3625 61.3955 57.8088C63.664 53.3112 66.9617 49.6417 70.4582 46.0971C71.3274 45.2161 72.9635 44.779 72.6108 43.0167C54.4006 44.89 39.6798 34.2578 58.8344 19.8507C69.743 12.4843 83.0627 11.4729 95.6066 8.74283C132.67 2.46819 170.068 -0.347761 207.7 0.542366C223.443 3.41957 239.85 0.519298 255.188 5.31675" fill="white"/>
<path fill-rule="evenodd" clip-rule="evenodd" d="M228.082 282.853C222.447 280.71 210.885 284.421 210 276.18C209.349 269.369 215.888 266.664 219.915 262.849C214.032 260.7 205.182 262.511 200.704 256.34C195.774 248.096 205.644 238.543 214.077 239.249C232.041 240.548 250.184 241.151 268.171 239.947C295.49 239.413 306.544 235.285 306.077 205.525C307.374 181.768 305.999 158.209 303.397 134.594C303.379 129.827 302.665 122.636 306.333 119.423C310.162 127.364 308.292 138.186 310.677 147.047C314.415 168.044 312.103 189.577 312.055 210.776C313.314 249.597 278.804 247.664 249.835 247.627C237.787 247.559 225.778 246.362 213.798 245.544C209.812 245.226 201.696 251.721 207.236 254.609C217.344 257.318 228.08 254.493 238.145 257.21C243.24 257.034 249.621 262.486 241.038 263.034C233.862 263.142 217.86 267.318 216.959 275.197C225.655 277.959 236.678 278.461 245.633 275.606C247.587 275.049 249.139 275.662 250.479 277.139C253.52 280.723 247.117 281.71 244.781 282.565C212.337 296.29 233.149 300.971 255.016 294.855C258.533 294.245 259.782 299.175 263.722 298.25C284.596 299.829 305.02 295.214 325.607 293.492C343.006 290.785 342.399 284.426 347.295 269.616C351.827 258.249 349.306 245.852 351.65 234.015C353.543 228.767 348.495 209.292 358.666 213.379C362.115 224.637 357.665 237.926 358.7 249.914C359.326 263.019 354.348 285.57 345.148 295.1C334.192 302.863 318.805 299.143 306.238 302.439C288.191 306.187 269.949 302.951 251.754 303.351C241.869 304.087 218.161 306.713 221.62 290.823C222.726 287.121 227.021 286.254 228.082 282.853" fill="white"/>
<path fill-rule="evenodd" clip-rule="evenodd" d="M286.31 92.1161C311.392 94.0168 322.927 79.2217 321.212 56.0377C315.571 37.5424 293.725 34.2103 276.872 32.7979C254.229 31.7743 246.128 54.8237 250.254 73.9144C252.82 88.6788 275.118 91.921 286.31 92.1161M286.614 97.2692C271.183 96.5539 252.359 94.736 244.466 79.3519C235.455 51.9463 251.375 22.0658 282.349 24.7447C301.043 28.889 313.531 27.7232 325.447 45.8253C332.336 57.7814 327.782 74.7854 320.427 85.7107C312.714 95.4203 298.33 97.1955 286.614 97.2692" fill="white"/>
<path fill-rule="evenodd" clip-rule="evenodd" d="M291.808 175.598C290.61 180.582 276.099 202.708 273.462 189.922C275.282 186.48 290.6 163.317 291.808 175.598" fill="white"/>
<path fill-rule="evenodd" clip-rule="evenodd" d="M164.533 83.7693C157.983 83.0538 152.424 80.6786 147.884 76.1531C146.781 74.3848 141.045 70.5841 144.291 68.9894C148.715 65.6648 174.621 81.7527 164.533 83.7693" fill="white"/>
<path fill-rule="evenodd" clip-rule="evenodd" d="M269.265 157.154C270.633 157.128 272.912 158.237 270.995 159.716C266.551 162.52 263.19 166.637 258.962 169.703C255.505 174.201 245.472 174.972 249.461 167.211C255.101 162.206 261.447 157.683 269.265 157.154" fill="white"/>
<path fill-rule="evenodd" clip-rule="evenodd" d="M204.352 160.601C199.265 160.811 192.822 158.705 200.519 155.621C209.364 154.463 218.421 151.509 227.305 152.02C229.173 152.86 227.302 154.252 226.756 155.14C223.431 160.571 210.145 159.444 204.352 160.601" fill="white"/>
<path fill-rule="evenodd" clip-rule="evenodd" d="M285.926 146.268C282.648 146.502 257.199 143.102 264.332 138.115C272.134 138.223 279.98 139.63 287.448 141.857C293.281 143.983 291.696 147.163 285.926 146.268" fill="white"/>
<path fill-rule="evenodd" clip-rule="evenodd" d="M179.063 84.1153C171.509 83.4354 185.719 68.1848 189.601 67.9362C192.28 66.4912 197.447 66.8841 194.185 70.5017C189.153 74.7564 185.695 82.6467 179.063 84.1153" fill="white"/>
<path fill-rule="evenodd" clip-rule="evenodd" d="M181.731 128.176C180.666 138.683 165.133 121.604 169.278 117.273C177.688 114.466 180.554 121.744 181.731 128.176" fill="white"/>
<path fill-rule="evenodd" clip-rule="evenodd" d="M249.638 198C254.325 198.457 270.781 203.349 269.593 208.93C269.453 213.05 240.472 200.809 249.638 198" fill="white"/>
<path fill-rule="evenodd" clip-rule="evenodd" d="M225.749 187.202C205.726 187.367 232.46 179.713 238.325 181.72C247.676 184.437 229.023 189.016 225.749 187.202" fill="white"/>
<path fill-rule="evenodd" clip-rule="evenodd" d="M237.467 130.5C232.599 129.649 227.485 126.782 224.773 122.582C223.838 119.62 228.669 120.545 230.252 120.799C233.566 120.888 244.751 128.951 237.467 130.5" fill="white"/>
<path fill-rule="evenodd" clip-rule="evenodd" d="M212.192 112.661C209.106 118.609 202.878 109.099 201.231 105.903C199.853 103.451 201.724 99.936 204.658 101.438C208.475 103.765 210.931 108.502 212.192 112.661" fill="white"/>
<path fill-rule="evenodd" clip-rule="evenodd" d="M250.615 214.789C248.791 217.392 240.241 234.025 237.808 225.897C238.901 222.804 247.775 207.614 250.615 214.789" fill="white"/>
<path fill-rule="evenodd" clip-rule="evenodd" d="M167.89 103.5C156.55 102.156 167.983 95.5217 172.964 94.2375C175.166 93.5762 177.511 96.9975 176.121 98.6759C174.054 101.165 171.512 102.993 167.89 103.5" fill="white"/>
<path fill-rule="evenodd" clip-rule="evenodd" d="M209.077 128.993C208.969 131.853 205.775 145.254 202.018 140.037C200.523 136.022 207.441 116.715 209.077 128.993" fill="white"/>
<path fill-rule="evenodd" clip-rule="evenodd" d="M133.615 81.5202C132.992 86.3291 127.404 86.686 124.079 88.9606C120.172 89.0834 130.878 76.4162 133.615 81.5202" fill="white"/>
<path fill-rule="evenodd" clip-rule="evenodd" d="M218.4 221.006C216.088 222.119 213.863 217.92 211.908 216.748C207.234 208.476 219.005 216.842 218.4 221.006" fill="white"/>
<path fill-rule="evenodd" clip-rule="evenodd" d="M274.041 60.4889C273.44 74.4732 298.26 67.3185 288.199 57.1156C283.519 54.429 273.414 52.1271 274.041 60.4889M268.658 62.1632C267.227 39.3844 302.509 43.3505 296.699 64.0695C291.686 74.9311 269.579 75.9054 268.658 62.1632" fill="white"/>
</svg>
