<svg width="371" height="360" viewBox="0 0 371 360" fill="none" xmlns="http://www.w3.org/2000/svg">
<path fill-rule="evenodd" clip-rule="evenodd" d="M71.453 316.742C60.5737 320.205 52.0854 332.117 40.1208 330.826C23.6399 326.603 97.5403 257.701 104.616 250.182C105.41 249.371 108.392 246.988 106.059 246.504C93.4493 245.866 81.0667 242.734 69.1042 238.793C66.397 237.934 66.0601 237.323 66.0229 234.366C68.1719 221.476 86.7304 217.067 95.4735 208.756C100.078 206.628 128.514 182.232 129.55 190.274C129.592 193.414 128.905 196.468 125.717 198.097C117.18 203.032 114.103 212.002 111.028 220.663C108.863 224.069 110.98 226.797 112.096 229.703C123.745 237.478 138.663 239.796 149.629 249.231C151.237 250.443 153.014 251.514 154.859 252.315C157.47 253.466 164.728 259.421 160.915 261.654C131.508 280.331 100.854 298.136 71.453 316.742" fill="#3CC5FF"/>
<path fill-rule="evenodd" clip-rule="evenodd" d="M240.565 305.146C244.85 304.738 245.597 307.6 247.369 310.484C250.155 315.746 243.822 317.897 239.888 318.827C227.066 320.839 229.367 304.702 240.565 305.146" fill="#FF3F56"/>
<path fill-rule="evenodd" clip-rule="evenodd" d="M71.5022 316.577C76.9002 310.267 79.7917 314.049 83.9776 319.077C85.6582 320.812 85.4567 322.47 83.8892 324.494C78.1214 332.738 64.5779 325.729 71.5022 316.577" fill="#FF3F56"/>
<path fill-rule="evenodd" clip-rule="evenodd" d="M95.0147 182.399C90.8334 182.357 86.9005 181.598 88.1629 176.765C88.5333 174.387 88.6222 171.413 91.3608 170.566C100.953 166.642 107.23 183.136 95.0147 182.399" fill="#FF3F56"/>
<path fill-rule="evenodd" clip-rule="evenodd" d="M23.1407 174.462C26.2932 174.929 32.3111 179.003 29.2911 182.709C26.5222 186.241 21.6873 191.406 17.9857 185.889C12.721 181.781 16.8336 174.544 23.1407 174.462" fill="#FF3F56"/>
<path fill-rule="evenodd" clip-rule="evenodd" d="M157.297 213.231C162.569 213.856 162.333 220.7 161.627 224.638C161.158 226.152 154.283 226.713 153.302 224.918C151.834 223.417 150.409 221.705 149.581 219.814C149.231 219.012 151.173 217.646 150.164 216.111C151.497 214.376 155.467 213.853 157.297 213.231" fill="#FF3F56"/>
<path fill-rule="evenodd" clip-rule="evenodd" d="M194 346.846C185.507 345.399 190.871 334.545 197.672 334.533C201.098 334.235 204.505 338.682 203.159 341.774C202.583 343.82 195.919 346.535 194 346.846" fill="#FF3F56"/>
<path fill-rule="evenodd" clip-rule="evenodd" d="M184.578 281.69C185.497 284.961 184.005 287.436 180.811 287.654C178.124 286.597 172.52 287.406 172.28 283.662C169.906 274.186 185.857 274.044 184.578 281.69" fill="#FF3F56"/>
<path fill-rule="evenodd" clip-rule="evenodd" d="M55.4091 261.692C45.8791 260.601 43.5305 252.363 53.6245 250.033C57.3132 249.19 58.2729 253.403 60.0877 255.891C62.1088 259.024 57.3372 260.949 55.4091 261.692" fill="#FF3F56"/>
<path fill-rule="evenodd" clip-rule="evenodd" d="M221.522 272.53C221.798 276.712 218.496 280.544 214.835 278.995C212.326 277.304 207.432 275.97 209.053 272.065C211.138 265.308 219.062 266.773 221.522 272.53" fill="#3A5AFF"/>
<path fill-rule="evenodd" clip-rule="evenodd" d="M129.462 305.574C129.105 311.023 123.556 315.662 118.929 309.983C112.219 302.926 128.985 295.05 129.462 305.574" fill="#FF3F56"/>
<path fill-rule="evenodd" clip-rule="evenodd" d="M60.5604 203.685C60.7963 209.614 55.9723 210.185 51.3213 208.785C41.2051 205.225 61.2303 192.18 60.5604 203.685" fill="#FF3F56"/>
<path fill-rule="evenodd" clip-rule="evenodd" d="M30.3614 110.283C30.6263 111.537 29.8839 112.086 28.8627 112.701C23.318 116.813 22.4273 111.595 21.322 107.012C21.3171 99.5872 30.6974 105.798 30.3614 110.283" fill="#3A5AFF"/>
<path fill-rule="evenodd" clip-rule="evenodd" d="M20.5072 276.543C15.3225 276.956 17.0327 271.186 18.1672 268.186C23.5807 260.535 29.7798 277.433 20.5072 276.543" fill="#3A5AFF"/>
<path fill-rule="evenodd" clip-rule="evenodd" d="M27.6856 232C27.8869 234.514 23.488 237.949 21.7088 237.404C19.2896 236.71 19.4146 233.213 18.1729 231.288C17.6929 230.16 18.2829 229.502 19.0763 228.908C22.3351 226.012 26.061 229.231 27.6856 232" fill="#FF3F56"/>
<path fill-rule="evenodd" clip-rule="evenodd" d="M163.003 324.346C158.052 323.578 156.891 320.701 159.666 316.634C162.208 312.522 173.044 323.137 163.003 324.346" fill="#3A5AFF"/>
<path fill-rule="evenodd" clip-rule="evenodd" d="M67.1538 167.14C65.9771 171.387 57.0718 169.891 58.2633 164.774C61.3831 158.894 66.0975 161.037 67.1538 167.14" fill="#3A5AFF"/>
<path fill-rule="evenodd" clip-rule="evenodd" d="M82.0385 130.229C79.1298 133.513 76.2367 136.487 72.9795 130.595C72.2882 129.527 72.9083 128.043 74.1633 127.621C79.4663 126.785 79.1277 124.188 82.0385 130.229" fill="#3A5AFF"/>
<path fill-rule="evenodd" clip-rule="evenodd" d="M116.326 345.082C108.083 344.623 115.241 333.65 118.483 339.621C119.214 342.729 120.971 345.448 116.326 345.082" fill="#3A5AFF"/>
<path fill-rule="evenodd" clip-rule="evenodd" d="M163.946 255.949C148.487 246.42 130.395 241.164 115.502 230.66C110.998 227.087 110.492 224.672 113.561 219.879C117.963 213.004 121.068 205.529 124.08 197.999C128.228 187.737 113.218 203.381 110.276 204.49C97.2406 214.065 83.0029 222.096 70.9509 232.945C70.202 233.688 68.7321 234.756 69.6423 235.876C79.7316 239.179 90.1987 241.952 100.224 245.732C103.639 247.799 108.372 246.087 111.245 248.684C112.147 250.125 110.144 251.121 110.434 252.623C110.538 253.165 109.941 254.125 109.396 254.468C102.059 258.568 96.1733 264.969 89.6465 269.866C86.7315 269.492 87.5518 273.126 85.7492 274.249C81.7982 278.175 77.2089 280.953 74.3088 285.767C63.231 298.662 49.3009 310.887 42.1504 326.28C82.7187 303.687 125.309 281.709 163.946 255.949M96.4863 253.764C88.8274 247.039 58.3711 248.23 59.4211 235.576C65.2534 215.836 122.692 188.647 141.265 173.197C142.756 172.272 144.804 169.676 146.339 171.839C147.5 173.597 148.701 174.526 147.227 176.283C142.467 182.844 137.415 189.132 133.608 196.327C129.485 202.626 127.159 209.703 124.599 216.705C124.015 219.342 119.072 222.884 121.87 225.251C135.113 233.579 149.934 239.346 163.739 246.785C166.454 248.794 172.616 249.59 171.995 253.831C171.023 259.117 163.763 263.489 159.29 266.36C153.453 271.997 145.965 275.271 139.178 279.683C112.717 296.388 84.6921 310.332 57.6118 325.989C49.0753 330.739 40.3181 335.155 31.8005 339.891C25.2786 340.474 28.6748 332.927 31.2953 330.045C48.448 300.981 72.8064 277.253 96.4863 253.764" fill="white"/>
<path fill-rule="evenodd" clip-rule="evenodd" d="M32.7311 131.639C38.9453 132.173 47.1119 132.754 52.98 136.214C56.6427 137.895 61.2309 143.179 53.8208 141.691C44.4871 139.309 34.8546 139.098 25.4086 137.564C14.4205 132.634 26.8391 131.319 32.7311 131.639" fill="white"/>
<path fill-rule="evenodd" clip-rule="evenodd" d="M205.144 317.098C211.197 316.017 233.021 357.458 218.999 344.778C216.579 341.421 196.083 317.737 205.144 317.098" fill="white"/>
<path fill-rule="evenodd" clip-rule="evenodd" d="M93.8077 341.891C94.2002 337.642 100.306 313.928 105.913 317.861C111.111 322.683 100.273 339.711 98.018 345.817C95.4275 348.131 93.8321 343.995 93.8077 341.891" fill="white"/>
<path fill-rule="evenodd" clip-rule="evenodd" d="M186.231 332.123C179.652 334.049 175.368 320.375 171.577 316.088C170.132 312.65 165.062 308.382 167.499 304.653C168.643 303.98 170.621 302.819 171.64 304.283C177.918 312.728 181.908 322.567 186.231 332.123" fill="white"/>
<path fill-rule="evenodd" clip-rule="evenodd" d="M14.4004 263.769C2.44343 259.495 34.8908 245.667 38.8258 246.497C45.3651 248.895 17.2047 262.779 14.4004 263.769" fill="white"/>
<path fill-rule="evenodd" clip-rule="evenodd" d="M22.4121 303.231C15.4161 301.083 32.8606 285.277 35.5653 282.368C37.9815 280.378 41.2837 277.814 44.1305 280.513C44.8231 281.047 44.8646 281.949 44.0358 282.39C36.0743 288.454 31.7192 298.629 22.4121 303.231" fill="white"/>
<path fill-rule="evenodd" clip-rule="evenodd" d="M63.0837 186.577C94.3063 190.171 52.047 194.893 43.6498 194.105C36.3471 187.584 59.4251 186.984 63.0837 186.577" fill="white"/>
<path fill-rule="evenodd" clip-rule="evenodd" d="M141.217 325.003C139.458 330.536 140.338 340.776 136.862 344.769C130.852 342.651 132.945 324.856 135.144 319.718C139.403 315.355 141.418 320.84 141.217 325.003" fill="white"/>
<path fill-rule="evenodd" clip-rule="evenodd" d="M49.7535 165.462C45.6253 164.493 14.1621 164.611 18.3898 158.174C21.3875 154.79 69.0713 165.243 49.7535 165.462" fill="white"/>
<path fill-rule="evenodd" clip-rule="evenodd" d="M76.0145 156.808C79.6283 157.181 99.172 159.108 94.4651 165.2C90.3533 167.004 58.9171 158.967 76.0145 156.808" fill="white"/>
<path fill-rule="evenodd" clip-rule="evenodd" d="M166.852 200.844C170.228 192.43 182.672 215.948 183.462 219.69C179.832 221.333 166.518 205.313 166.852 200.844" fill="white"/>
<path fill-rule="evenodd" clip-rule="evenodd" d="M225.811 265.5C220.558 264.673 195.213 240.789 213.588 249.35C217.353 252.583 227.698 260.279 225.811 265.5" fill="white"/>
<path fill-rule="evenodd" clip-rule="evenodd" d="M162.308 351.694C163.029 373.259 153.215 346.841 155.393 339.729C160.61 328.068 162.265 348.043 162.308 351.694" fill="white"/>
<path fill-rule="evenodd" clip-rule="evenodd" d="M198.809 286.269C205.256 289.133 211.802 294.988 214.962 301.219C210.497 303.717 188.99 288.836 198.809 286.269" fill="white"/>
<path fill-rule="evenodd" clip-rule="evenodd" d="M129.808 150.919C125.771 157.895 110.256 153.197 109.385 146.877C112.342 140.437 124.314 150.215 129.808 150.919" fill="white"/>
<path fill-rule="evenodd" clip-rule="evenodd" d="M240.585 283.807C245.748 282.605 259.133 303.445 254.008 303.415C252.194 299.683 232.96 285.78 240.585 283.807" fill="white"/>
<path fill-rule="evenodd" clip-rule="evenodd" d="M25.7323 216.401C27.9438 216.892 32.5905 215.629 34.9615 217.687C31.1487 220.476 25.1845 220.327 20.5608 221.752C18.0793 222.345 9.19387 220.959 11.9462 217.413C16.8588 216.357 20.2574 216.25 25.7323 216.401" fill="white"/>
<path fill-rule="evenodd" clip-rule="evenodd" d="M146.845 284.16C149.15 283.253 150.873 284.367 150.979 286.789C150.849 290.332 153.106 294.866 151.181 297.937C147.51 299.534 138.274 281.661 146.845 284.16" fill="white"/>
<path fill-rule="evenodd" clip-rule="evenodd" d="M183.814 257.381C183.856 253.181 186.788 252.453 189.121 255.993C190.883 259.08 197.347 263.242 196.114 266.746C195.027 267.233 194.432 266.315 193.681 265.874C190.573 263.22 183.573 262.22 183.814 257.381" fill="white"/>
<path fill-rule="evenodd" clip-rule="evenodd" d="M58.1295 345.115C64.5455 345.619 60.5504 353.012 58.3902 355.992C52.08 359.405 53.0925 345.738 58.1295 345.115" fill="white"/>
<path fill-rule="evenodd" clip-rule="evenodd" d="M-7.62939e-05 348.527C0.879319 345.244 2.36819 340.62 6.11242 340.008C7.88193 339.902 8.79924 341.336 8.0855 342.958C6.84182 344.193 0.602808 352.72 -7.62939e-05 348.527" fill="white"/>
<path fill-rule="evenodd" clip-rule="evenodd" d="M308.099 122.734C316.18 126.328 339.102 135.735 346.008 129.15C353.386 119.856 344.049 106.427 337.468 99.0289C323.295 78.8507 299.104 67.0254 278.515 54.0529C264.655 44.7915 248.214 38.8636 231.378 39.4514C220.229 39.2628 218.541 49.0896 219.433 58.0579C221.528 62.8142 225.57 66.9018 228.38 71.3476C231.944 76.5112 239.123 77.7605 244.256 81.0691C264.337 96.7707 286.564 109.134 308.099 122.734M342.544 93.1656C365.053 131.185 361.215 150.254 313.813 133.233C304.526 130.179 297.886 122.56 288.783 119.367C286.533 117.782 284.336 116.118 282.022 114.633C274.687 110.083 266.481 107.303 260.025 101.372C249.126 91.0647 232.673 88.3512 224.551 75.0575C219.758 67.0315 212.349 59.31 211.3 49.7019C210.586 40.4567 212.18 30.6433 223.053 29.0879C225.464 28.5985 227.769 28.1318 229.76 26.4106C236.707 21.8709 251.008 28.903 258.243 31.7807C270.034 37.2001 280.982 44.0264 291.987 50.8491C311.13 61.8821 330.441 74.1863 342.544 93.1656" fill="#39C4FF"/>
<path fill-rule="evenodd" clip-rule="evenodd" d="M217.69 127.92C217.383 128.324 216.973 128.614 216.943 128.939C218.038 137.25 230.602 135.312 217.69 127.92M224.45 74.8916C228.2 80.0062 232.324 84.7219 238.066 87.7201C227.818 97.3425 221.369 109.79 225.142 123.913C225.453 125.495 226.059 125.895 227.752 125.531C246.061 119.746 241.093 130.032 251.534 129.546C264.473 128.176 276.767 124.474 288.659 119.306C293.523 120.535 297.23 123.675 300.961 126.773C287.016 132.77 272.989 138.905 257.734 140.446C248.05 141.243 239.158 146.298 229.372 145.604C220.847 144.576 215.623 136.765 209.489 131.574C196.003 116.576 211.182 86.1403 224.45 74.8916" fill="#FFC43C"/>
<path fill-rule="evenodd" clip-rule="evenodd" d="M342.311 93.0523C340.047 89.954 337.784 86.856 335.521 83.7569C347.26 71.6466 357.316 57.4437 360.997 40.8411C361.614 38.7468 361.229 38.1928 359.025 37.5534C347.713 34.3796 321.878 32.3121 311.274 36.9677C285.635 47.7502 294.482 53.6569 272.428 38.8573C296.396 22.329 315.814 20.2757 343.961 25.4785C354.529 27.4619 372.025 33.473 370.266 46.7356C365.297 64.5287 355.672 80.2418 342.311 93.0523" fill="#FFC43C"/>
<path fill-rule="evenodd" clip-rule="evenodd" d="M228.115 71.2804C238.513 61.6247 250.772 54.4253 261.889 45.6923C267.716 47.7624 273.384 50.1451 278.308 53.99C265.787 61.6202 254.744 71.1146 244.012 81C238.865 77.6921 231.692 76.4454 228.115 71.2804" fill="#FFC43C"/>
<path fill-rule="evenodd" clip-rule="evenodd" d="M337.5 98.8752C328.613 107.828 318.814 115.908 308.064 122.538C304.375 120.288 300.688 118.039 297 115.788C308.704 108.056 319.831 99.5687 329.753 89.6538C333.244 91.9738 335.814 95.0586 337.5 98.8752" fill="#FFC43C"/>
<path fill-rule="evenodd" clip-rule="evenodd" d="M293.538 75.3804C293.025 77.3186 294.065 79.5034 292.172 80.3431C290.097 81.2637 289.552 78.7826 288.337 77.8376C286.549 76.4476 285.768 74.4976 285.785 72.1923C286.94 66.9612 278.493 67.9487 277.69 71.5824C276.335 75.2119 277.944 86.5951 271.831 79.3015C263.586 72.602 269.267 56.2955 280.673 60.109C287.501 62.2076 293.155 68.1883 293.538 75.3804" fill="#3E5CFF"/>
<path fill-rule="evenodd" clip-rule="evenodd" d="M320.907 84.81C320.923 84.81 320.94 84.8104 320.956 84.8104C320.569 89.1106 321.14 92.1107 325.359 88.0742C328.478 85.0627 328.182 84.7835 325.599 82.3048C321.336 76.9935 320.576 79.462 320.907 84.81M259.263 50.2282C260.284 54.4946 266.526 46.8058 268.483 45.6043C267.865 43.9206 266.123 43.8203 264.838 43.1848C259.1 39.1973 260.388 46.8571 259.263 50.2282M310.854 113.704C311.857 105.419 303.357 114.396 300.706 116.191C299.785 118.93 306.021 118.749 307.853 119.899C310.893 120.736 310.212 114.855 310.854 113.704M251.99 76.9838C253.917 64.4672 246.129 75.0958 242.109 78.7959C238.387 82.2281 249.435 87.7106 251.792 90.0507C255.03 90.2296 251.642 79.5248 251.99 76.9838M262.134 110.5C263.317 113.203 264.816 126.447 269.115 124.334C271.602 122.536 280.97 121.241 280.15 117.953C277.753 116.826 260.974 103.992 262.134 110.5M284.755 44.9712C291.549 49.9131 299.375 53.4461 306.561 57.9003C307.159 58.5049 308.137 58.05 308.32 57.4662C307.296 53.4607 305.255 34.7206 300.085 36.5364C294.955 39.4109 289.087 40.8517 284.755 44.9712M326.604 123.632C338.032 124.787 348.426 119.636 343.54 107.276C345.054 104.134 334.093 87.8916 331.431 91.442C325.553 96.7137 319.259 101.256 320.041 109.972C319.519 119.046 314.029 123.82 326.604 123.632M280.035 12.03C269.014 12.156 265.472 25.7696 262.8 34.5363C262.311 38.9462 270.183 38.2731 272.979 40.4305C281.17 41.4571 289.102 32.0103 297.181 29.7661C300.777 27.0334 291.663 17.3025 289.107 14.9274C286.716 12.9962 284.204 11.84 280.035 12.03M287.938 151.247C299.78 151.465 303.959 139.81 307.251 130.746C307.686 129.529 307.182 128.831 305.836 128.327C286.634 119.967 289.332 123.437 270.98 131.224C268.854 137.036 281.723 150.79 287.938 151.247M218.691 46.9534C217.921 53.2222 230.427 75.2487 236.609 75.0029C248.684 62.1019 252.961 62.3041 253.98 43.4665C254.651 40.0763 253.744 39.6857 251.102 38.9604C240.789 37.2213 221.197 32.7821 218.691 46.9534M242.369 130.2C244.928 128.829 263.493 129.77 261.247 124.281C257.899 116.316 258.74 105.761 251.831 99.8696C247.67 98.1659 237.989 85.682 234.933 87.7473C221.364 103.288 212.383 129.862 242.369 130.2M353.082 43.5187C352.627 21.3659 325.155 26.9176 311.461 32.4478C309.839 37.4904 315.909 47.7374 316.634 53.7604C318.736 68.4026 320.946 69.0577 331.925 78.2427C333.042 79.14 333.623 79.0931 334.654 77.983C343.169 68.4772 352.103 56.4058 353.082 43.5187M258.484 80.7788C255.983 100.765 269.6 102.045 283.963 110.321C293.598 117.738 301.734 105.143 310.081 100.928C314.129 95.8364 311.213 87.5748 312.008 81.3459C311.007 76.5406 312.293 70.0418 307.575 67.0609C298.737 61.1887 290.182 55.0441 280.608 50.4292C273.573 47.538 266.779 58.5363 260.662 61.4443C255.438 66.186 258.644 74.565 258.484 80.7788M238.488 32.1889C243.434 32.4286 248.306 33.0524 253.127 34.1462C255.348 34.6496 255.734 34.4658 256.465 32.1726C260.49 20.1514 270.154 -2.2428 285.91 4.80514C294.561 8.29323 300.856 15.726 305.596 23.5628C306.742 25.4944 307.137 25.5776 309.382 24.8609C324.447 20.6251 350.538 14.7297 357.034 33.9464C362.366 52.2414 349.345 69.5934 338.801 83.5213C337.343 85.4468 340.036 87.0294 340.795 88.6519C344.242 93.1698 345.807 98.9287 349.773 102.94C356.324 115.962 350.696 131.929 334.239 132.328C328.893 134.065 317.889 129.403 315.017 132.361C311.362 142.428 305.242 154.067 294.025 156.848C281.538 159.152 272.926 147.996 267.498 138.381C266.202 133.835 263.789 133.081 259.531 134.671C248.526 136.992 235.991 138.833 225.906 132.526C209.316 120.53 220.848 97.4623 229.865 84.1552C232.886 79.7266 225.02 75.7155 223.245 71.781C208.648 53.4982 210.589 30.6658 238.488 32.1889" fill="white"/>
<path fill-rule="evenodd" clip-rule="evenodd" d="M232.837 154.385C244.058 157.672 228.355 173.738 221.852 174.462C213.405 173.969 229.823 155.82 232.837 154.385" fill="white"/>
<path fill-rule="evenodd" clip-rule="evenodd" d="M286.962 201.541C283.803 220.362 270.486 190.433 280.735 185.655C287.522 184.19 285.948 196.884 286.962 201.541" fill="white"/>
<path fill-rule="evenodd" clip-rule="evenodd" d="M72.0786 41.8856C99.7194 41.7408 59.0601 58.8575 58.1539 46.2459C59.6171 40.9946 67.7187 42.456 72.079 42.0881C72.079 42.0206 72.079 41.9531 72.0786 41.8856" fill="white"/>
<path fill-rule="evenodd" clip-rule="evenodd" d="M198.622 35.3077C195.091 33.8092 175.789 35.4294 178.967 28.3622C182.553 20.3839 214.95 34.8055 198.622 35.3077" fill="white"/>
<path fill-rule="evenodd" clip-rule="evenodd" d="M324.692 213.693C324.387 219.1 318.567 213.616 317.572 211.284C315.677 206.93 312.703 197.445 317.949 194.885C326.22 196.892 323.005 207.315 324.692 213.693" fill="white"/>
<path fill-rule="evenodd" clip-rule="evenodd" d="M237.799 13.5702C237.964 16.5525 235.705 16.5677 233.774 15.9401C229.009 15.9661 218.743 0.312544 226.316 0C227.564 0.584786 228.667 1.38547 230.19 0.782182C235.109 2.44689 237.081 9.17809 237.799 13.5702" fill="white"/>
<path fill-rule="evenodd" clip-rule="evenodd" d="M65.4522 76.4642C65.7919 80.2357 66.6527 80.6593 62.6212 82.2183C36.1557 94.7467 42.4977 73.3689 65.4522 76.4642" fill="white"/>
<path fill-rule="evenodd" clip-rule="evenodd" d="M152.521 113.246C153.413 118.35 146.509 122.467 141.885 121.301C136.485 119.054 141.305 110.704 145.97 110.145C149.191 109.322 154.647 108.056 152.521 113.246" fill="white"/>
<path fill-rule="evenodd" clip-rule="evenodd" d="M302.708 242.688C303.747 244.655 301.818 245.198 301.971 246.61C304.242 247.866 303.286 255.986 300.358 254.156C289.324 247.848 299.141 220.948 302.708 242.688" fill="white"/>
<path fill-rule="evenodd" clip-rule="evenodd" d="M173.546 83.7121C170.141 84.3973 168.455 78.7159 171.706 77.5256C176.215 76.5719 186.847 73.718 190.038 76.9908C187.505 82.0584 179.222 82.9011 173.546 83.7121" fill="white"/>
<path fill-rule="evenodd" clip-rule="evenodd" d="M104.192 17.5849C101.094 21.0677 92.7023 15.3903 89.1836 13.5187C85.8856 11.9425 85.9912 5.96391 90.4442 6.6282C96.1097 8.23983 101.681 12.1092 104.192 17.5849" fill="white"/>
<path fill-rule="evenodd" clip-rule="evenodd" d="M164.558 60.1365C157.613 61.0463 149.658 55.1464 160.145 52.2017C167.34 50.0576 179.567 61.0214 164.558 60.1365" fill="white"/>
<path fill-rule="evenodd" clip-rule="evenodd" d="M338.584 156.905C337.931 153.339 344.521 152.114 345.709 154.804C346.799 159.292 350.371 164.476 349.472 168.923C344.102 168.808 339.896 161.683 338.584 156.905" fill="white"/>
<path fill-rule="evenodd" clip-rule="evenodd" d="M353.773 310.668C351.888 321.934 343.803 311.626 344.708 305.267C347.398 296.373 354.39 304.348 353.773 310.668" fill="white"/>
<path fill-rule="evenodd" clip-rule="evenodd" d="M236.168 216.659C235.265 212.524 241.265 200.733 245.59 204.682C246.843 211.195 241.233 216.003 238.392 221.294C236.114 222.657 236.719 217.937 236.168 216.659" fill="white"/>
<path fill-rule="evenodd" clip-rule="evenodd" d="M348.231 225.234C347.467 231.359 336.995 220.501 336.436 217.571C335.826 215.94 336.033 214.97 337.525 214.144C343.658 211.171 347.397 220.63 348.231 225.234" fill="white"/>
<path fill-rule="evenodd" clip-rule="evenodd" d="M243.051 274.282C242.461 269.323 247.086 259.697 251.51 264.942C252.844 269.751 244.523 286.493 243.051 274.282" fill="white"/>
<path fill-rule="evenodd" clip-rule="evenodd" d="M334.038 277.261C330.962 281.743 326.815 274.219 325.66 271.385C323.421 267.842 327.682 258.996 331.267 264.479C332.331 268.774 333.051 272.9 334.038 277.261" fill="white"/>
<path fill-rule="evenodd" clip-rule="evenodd" d="M123.299 36.3369C116.993 36.6629 116.016 28.2615 122.231 27.6923C125.218 27.9842 132.761 28.7105 131.369 33.057C129.646 36.2544 126.441 35.8927 123.299 36.3369" fill="white"/>
<path fill-rule="evenodd" clip-rule="evenodd" d="M83.7692 90.6923C83.1852 97.3219 75.4327 100.045 69.469 100.033C64.8704 100.24 64.3672 94.1905 69.0417 93.8666C74.1944 93.2504 78.8238 94.0316 83.7692 90.6923" fill="white"/>
<path fill-rule="evenodd" clip-rule="evenodd" d="M114.991 95.5058C114.228 95.4418 112.169 95.6556 111.973 94.2114C107.739 87.664 120.356 86.9955 124.346 88.7635C129.256 93.7513 119.054 95.8301 114.991 95.5058" fill="white"/>
<path fill-rule="evenodd" clip-rule="evenodd" d="M197.666 147.335C197.462 143.614 204.839 137.627 206.766 143.072C207.441 145.544 209.308 148.174 206.669 149.778C203.305 152.887 197.354 153.175 197.666 147.335" fill="white"/>
<path fill-rule="evenodd" clip-rule="evenodd" d="M275.732 258.853C275.128 274.072 273.334 273.297 269.284 259.032C267.048 250.912 277.237 250.314 275.732 258.853" fill="white"/>
<path fill-rule="evenodd" clip-rule="evenodd" d="M315.052 302.327C315.955 306.454 314.934 308.82 309.803 309.808C306.481 309.797 308.204 304.514 307.386 302.307C307.237 296.481 316.825 294.941 315.052 302.327" fill="white"/>
<path fill-rule="evenodd" clip-rule="evenodd" d="M166.529 11.2577C155.515 11.1165 160.857 -0.717967 174.55 7.26245C180.429 11.2547 168.809 10.6712 166.548 11.4231C166.541 11.3684 166.535 11.3132 166.529 11.2577" fill="white"/>
<path fill-rule="evenodd" clip-rule="evenodd" d="M49.449 19.4462C47.8326 11.8869 62.7938 17.0641 62.6529 20.9783C62.6313 21.3794 61.7787 22.1458 61.5669 22.0677C58.9379 21.097 56.401 22.0048 53.8356 22.2836C51.5036 22.7967 48.1341 22.5971 49.449 19.4462" fill="white"/>
<path fill-rule="evenodd" clip-rule="evenodd" d="M117.18 67.8462C104.569 66.1614 117.397 57.8227 122.828 62.8735C126.65 66.6299 119.417 66.8225 117.18 67.8462" fill="white"/>
<path fill-rule="evenodd" clip-rule="evenodd" d="M261.66 159.021C260.925 160.909 261.025 166.79 258.211 166.489C253.945 165.675 253.841 158.215 256.817 155.865C259.161 154.754 262.027 155.714 261.66 159.021" fill="white"/>
<path fill-rule="evenodd" clip-rule="evenodd" d="M199.886 112.5C195.972 110.747 198.994 106.827 201.358 105.106C203.156 103.192 210.141 104.383 207.971 107.757C205.54 109.746 202.691 110.83 199.886 112.5" fill="white"/>
<path fill-rule="evenodd" clip-rule="evenodd" d="M99.1817 47.5813C97.9842 42.3173 103.884 44.8729 106.642 45.3212C112.544 49.1513 97.1773 55.1809 99.1817 47.5813" fill="white"/>
<path fill-rule="evenodd" clip-rule="evenodd" d="M265.979 302.464C266.391 310.371 258.887 301.546 261.044 297.81C263.035 292.802 267.177 299.205 265.979 302.464" fill="white"/>
<path fill-rule="evenodd" clip-rule="evenodd" d="M173.077 132.186C171.861 132.044 170.692 132.52 169.962 131.913C170.776 131.462 171.983 131.276 173.077 132.186" fill="white"/>
<path fill-rule="evenodd" clip-rule="evenodd" d="M291.115 77.7784C291.154 84.3629 286.287 87.9561 281.031 89.2246C274.212 90.3089 271.072 80.5328 272.36 74.8903C275.953 61.608 290.315 66.2088 291.115 77.7784" fill="white"/>
</svg>
